<?xml version="1.0" encoding="UTF-8" ?>
<!DOCTYPE svg PUBLIC "-//W3C//DTD SVG 1.1//EN" "http://www.w3.org/Graphics/SVG/1.1/DTD/svg11.dtd">
<svg width="1008pt" height="828pt" viewBox="0 0 1008 828" version="1.1" xmlns="http://www.w3.org/2000/svg">
<g id="#888888ff">
<path fill="#888888" opacity="1.00" d=" M 745.01 33.99 C 751.77 34.31 758.22 31.54 765.00 31.96 C 779.28 32.36 793.60 31.07 807.86 32.04 C 807.85 59.37 807.95 86.70 807.83 114.03 C 807.91 115.80 807.60 118.87 810.13 118.93 C 837.03 119.19 863.96 118.81 890.86 119.09 C 892.28 122.19 891.50 125.71 891.66 129.01 C 891.75 147.34 891.62 165.68 891.60 184.02 C 891.57 186.17 891.83 188.33 892.61 190.35 C 903.10 192.52 914.30 189.53 924.55 193.36 C 940.12 198.80 951.66 214.40 951.60 231.00 C 951.57 387.66 951.62 544.33 951.58 700.99 C 951.49 706.89 951.72 712.97 949.74 718.62 C 946.00 730.29 936.73 739.96 925.27 744.28 C 917.41 746.65 909.22 748.01 900.99 747.58 C 813.66 747.63 726.33 747.52 639.00 747.64 C 636.13 747.80 632.67 747.25 630.55 749.64 C 621.82 758.20 613.21 766.89 604.43 775.40 C 597.47 782.81 588.50 789.30 578.05 790.05 C 556.70 790.45 535.35 790.19 514.00 790.19 C 493.00 790.53 471.99 789.91 450.98 790.32 C 442.66 790.42 434.34 790.13 426.02 790.15 C 416.96 790.53 407.97 786.71 401.29 780.72 C 393.58 773.09 386.04 765.29 378.22 757.79 C 376.64 756.02 374.29 755.58 372.03 755.63 C 299.02 755.70 226.01 755.71 153.00 755.64 C 138.88 755.62 124.77 756.01 110.66 755.42 C 84.91 754.39 62.29 730.78 62.50 704.98 C 62.29 688.65 62.31 672.32 62.40 656.00 C 62.33 516.34 62.39 376.67 62.37 237.01 C 62.36 230.82 62.04 224.36 64.45 218.52 C 68.80 206.28 79.18 196.39 91.58 192.57 C 95.19 191.47 99.01 191.55 102.67 190.74 C 104.63 190.14 104.85 187.77 104.96 186.05 C 105.19 163.76 104.73 141.45 105.16 119.17 C 109.77 118.81 114.39 119.04 119.00 119.00 C 224.02 119.00 329.04 119.01 434.06 119.00 C 438.68 119.00 443.04 120.71 447.58 121.34 C 460.24 123.03 472.21 128.26 482.87 135.17 C 488.18 138.56 492.76 142.95 498.00 146.44 C 501.64 144.35 503.63 140.42 506.37 137.38 C 519.63 121.81 535.96 109.16 552.99 97.97 C 598.03 69.09 649.36 51.23 701.53 40.52 C 706.14 38.58 711.25 39.44 715.97 38.00 C 721.38 36.40 727.16 37.13 732.57 35.49 C 736.59 34.20 740.80 33.79 745.01 33.99 M 757.37 68.50 C 752.12 69.86 746.72 70.11 741.33 70.25 C 735.76 70.40 730.58 72.87 725.02 72.97 C 719.42 73.04 714.15 75.26 708.57 75.66 C 699.57 78.18 690.18 79.05 681.33 82.17 C 671.11 84.59 661.07 87.72 651.17 91.18 C 614.27 103.80 578.12 120.77 548.31 146.31 C 537.08 155.84 527.32 167.21 520.14 180.10 C 519.24 181.56 518.95 183.25 518.97 184.94 C 519.02 360.65 519.00 536.36 518.98 712.07 C 519.31 713.65 518.51 716.75 520.90 716.76 C 524.90 711.75 528.14 706.17 532.22 701.21 C 552.04 677.10 576.84 657.43 603.76 641.79 C 637.75 622.14 674.43 606.99 712.59 597.71 C 716.10 596.88 719.67 596.27 723.11 595.12 C 726.45 593.88 730.08 594.17 733.51 593.29 C 739.78 591.34 746.48 591.68 752.78 589.82 C 758.27 588.22 764.06 589.64 769.62 588.63 C 772.97 587.27 771.76 582.84 772.08 580.01 C 771.94 410.99 772.09 241.96 772.01 72.94 C 771.93 71.20 771.83 68.72 769.67 68.33 C 765.61 67.60 761.41 67.83 757.37 68.50 M 144.54 160.54 C 143.57 164.96 144.07 169.52 144.00 174.00 C 143.99 342.69 144.02 511.38 143.98 680.07 C 143.96 682.30 144.20 685.70 147.16 685.80 C 170.09 686.64 193.06 685.76 216.00 686.15 C 271.00 686.09 326.00 686.06 381.00 686.16 C 398.88 686.05 416.77 685.93 434.65 686.35 C 447.14 686.50 459.21 692.26 467.88 701.14 C 473.65 706.68 478.61 713.36 480.82 721.16 C 481.87 725.10 483.38 728.99 486.10 732.11 C 487.27 728.17 486.83 724.03 486.88 720.00 C 486.50 702.66 486.98 685.33 486.87 668.00 C 486.43 646.33 487.26 624.66 486.66 603.00 C 486.92 586.33 487.00 569.66 486.66 553.00 C 487.14 526.33 486.55 499.67 486.87 473.00 C 486.49 449.00 487.19 425.00 486.66 401.00 C 487.26 379.33 486.43 357.66 486.87 336.00 C 487.04 320.00 486.45 304.00 486.87 288.00 C 486.82 265.33 486.69 242.66 486.89 219.99 C 487.21 213.62 485.22 207.49 484.60 201.20 C 479.52 180.35 461.04 163.76 440.03 160.08 C 419.69 159.69 399.34 159.61 379.00 159.88 C 352.00 159.56 325.00 159.95 298.00 159.74 C 274.67 160.01 251.33 159.50 228.00 159.88 C 205.33 159.48 182.66 160.02 160.00 159.74 C 154.85 159.85 149.58 159.22 144.54 160.54 M 809.32 160.14 C 806.60 163.24 808.24 168.15 807.88 171.99 C 807.85 282.99 807.93 394.00 807.85 505.00 C 807.83 544.26 808.07 583.53 807.70 622.78 C 798.55 623.92 789.26 622.72 780.12 624.02 C 769.27 625.89 758.03 624.19 747.35 627.23 C 743.23 628.44 738.82 627.51 734.72 628.78 C 731.41 629.82 727.94 630.01 724.58 630.74 C 717.34 633.03 709.74 633.91 702.61 636.59 C 670.24 645.68 639.64 660.79 612.28 680.29 C 610.32 681.45 608.98 683.39 609.04 685.73 C 614.66 686.50 620.35 686.06 626.00 686.15 C 697.00 686.08 768.00 686.07 839.00 686.16 C 842.54 686.09 846.15 686.35 849.66 685.67 C 851.81 685.27 852.11 682.80 852.18 681.03 C 852.53 674.02 852.25 667.01 852.33 660.00 C 852.03 635.00 852.60 610.00 852.16 585.00 C 852.67 563.33 851.95 541.67 852.34 520.00 C 852.24 497.67 852.23 475.34 852.34 453.00 C 851.97 430.67 852.66 408.33 852.16 386.00 C 852.64 362.67 851.98 339.33 852.33 316.00 C 852.07 288.66 852.54 261.33 852.16 234.00 C 852.70 212.67 851.90 191.33 852.37 170.00 C 852.31 166.81 852.68 163.51 851.62 160.44 C 845.20 158.98 838.53 160.02 832.01 159.86 C 824.45 160.22 816.83 159.09 809.32 160.14 Z" />
</g>
</svg>
