<?xml version="1.0" encoding="utf-8"?>
<!-- Generator: Adobe Illustrator 19.1.0, SVG Export Plug-In . SVG Version: 6.00 Build 0)  -->
<svg version="1.1" id="Layer_1" xmlns="http://www.w3.org/2000/svg" xmlns:xlink="http://www.w3.org/1999/xlink" x="0px" y="0px"
	 viewBox="0 0 64 64" enable-background="new 0 0 64 64" xml:space="preserve">
<g id="Wallet-cash">
	<path fill="#ffffff" d="M58.2539406,13.033968h-4.336998L48.488842,2.1779683c-0.1184998-0.2361001-0.3254013-0.4158001-0.5750008-0.4983001
		c-0.2515831-0.0855-0.522583-0.0651-0.7595825,0.0534L37.3651428,6.627768l-7.8645-5.4523001
		c-0.4167004-0.2865-0.9839001-0.2156-1.3171005,0.1652L18.0172577,13.033968H5.7460427
		c-3.0924001,0-5.5992999,2.507-5.5992999,5.5993996v38.7673035c0,3.0923996,2.5068998,5.5993004,5.5992999,5.5993004h52.5078964
		c3.0923996,0,5.5993156-2.5069008,5.5993156-5.5993004V18.6333675
		C63.8532562,15.5409679,61.3463402,13.033968,58.2539406,13.033968z M51.692543,13.033968H29.0019417l18.152317-9.0764999
		L51.692543,13.033968z M29.1004429,3.3183682l6.2359982,4.3239002L24.553257,13.033968h-3.8993149L29.1004429,3.3183682z
		 M58.2539406,61.0106697H5.7460427c-1.9905002,0-3.6099-1.6194-3.6099-3.6100006V18.6333675
		c0-1.9905987,1.6193998-3.6099997,3.6099-3.6099997h52.5078964c1.9905014,0,3.6099014,1.619401,3.6099014,3.6099997v7.1905003
		H47.9002571c-5.4561157,0-9.8953171,4.4469013-9.8953171,9.9137001v1.7611008c0,5.4658012,4.4392014,9.9118004,9.8953171,9.9118004
		H61.863842v9.9902C61.863842,59.3912697,60.244442,61.0106697,58.2539406,61.0106697z M61.863842,27.8131676v17.6078987H47.9002571
		c-4.3595161,0-7.9059143-3.5541992-7.9059143-7.9223976v-1.7611008c0-4.3691998,3.5463982-7.9244003,7.9059143-7.9244003H61.863842
		z"/>
	<path fill="#ffffff" d="M43.936142,36.3232689c0,2.1942978,1.7844009,3.9786987,3.9786987,3.9786987
		c2.1943016,0,3.9787025-1.7844009,3.9787025-3.9786987c0-2.1943016-1.7844009-3.9787025-3.9787025-3.9787025
		C45.7205429,32.3445663,43.936142,34.1289673,43.936142,36.3232689z M47.9148407,34.3339691
		c1.0965996,0,1.9892998,0.8927002,1.9892998,1.9892998c0,1.0966988-0.8927002,1.989399-1.9892998,1.989399
		c-1.0966988,0-1.989399-0.8927002-1.989399-1.989399C45.9254417,35.2266693,46.8181419,34.3339691,47.9148407,34.3339691z"/>
</g>
</svg>
