<?xml version="1.0" encoding="UTF-8" ?>
<!DOCTYPE svg PUBLIC "-//W3C//DTD SVG 1.1//EN" "http://www.w3.org/Graphics/SVG/1.1/DTD/svg11.dtd">
<svg width="200pt" height="200pt" viewBox="0 0 200 200" version="1.1" xmlns="http://www.w3.org/2000/svg">
<g id="#63dbcbff">
<path fill="#63dbcb" opacity="1.00" d=" M 54.26 5.16 C 59.66 4.08 65.47 8.30 65.89 13.83 C 66.17 19.54 65.90 25.26 66.02 30.98 C 66.40 35.51 65.73 40.87 61.41 43.39 C 55.62 47.56 46.49 43.21 46.12 36.09 C 45.87 29.04 46.02 21.97 46.03 14.90 C 45.92 10.21 49.69 5.95 54.26 5.16 Z" />
<path fill="#63dbcb" opacity="1.00" d=" M 144.26 5.16 C 148.38 4.39 152.77 6.54 154.77 10.20 C 156.47 13.15 155.91 16.70 156.01 19.95 C 155.84 25.65 156.31 31.39 155.77 37.07 C 154.61 44.01 145.36 47.49 139.95 42.94 C 134.52 39.04 136.26 31.73 136.00 26.01 C 136.34 20.97 135.14 15.64 136.92 10.80 C 138.29 7.90 141.10 5.73 144.26 5.16 Z" />
<path fill="#63dbcb" opacity="1.00" d=" M 17.74 26.80 C 23.44 24.11 29.91 25.23 36.00 25.00 C 36.00 31.67 36.00 38.33 36.00 45.00 C 32.67 45.00 29.33 45.00 26.00 45.00 C 26.00 88.33 26.00 131.67 26.00 175.00 C 76.00 175.00 126.00 175.00 176.00 175.00 C 176.00 131.67 176.00 88.33 176.00 45.00 C 172.67 45.00 169.33 45.00 166.00 45.00 C 166.00 38.33 166.00 31.67 166.00 25.00 C 170.04 25.06 174.09 24.83 178.12 25.15 C 185.57 25.81 192.30 31.13 194.78 38.16 C 196.24 41.93 196.00 46.03 196.01 49.99 C 195.98 91.67 196.03 133.34 195.98 175.01 C 196.09 182.94 190.95 190.56 183.60 193.49 C 179.02 195.49 173.92 194.94 169.06 195.00 C 121.36 194.99 73.65 195.02 25.94 194.98 C 15.30 195.24 5.77 185.70 6.02 175.06 C 5.99 131.69 5.99 88.33 6.02 44.96 C 5.93 37.29 10.74 29.90 17.74 26.80 Z" />
<path fill="#63dbcb" opacity="1.00" d=" M 76.00 25.00 C 92.67 25.00 109.33 25.00 126.00 25.00 C 126.00 31.67 126.00 38.33 126.00 45.00 C 109.33 45.00 92.67 45.00 76.00 45.00 C 76.00 38.33 76.00 31.67 76.00 25.00 Z" />
<path fill="#63dbcb" opacity="1.00" d=" M 54.23 75.17 C 61.48 73.56 68.35 81.66 65.36 88.54 C 63.05 95.42 53.00 97.26 48.48 91.56 C 43.30 86.17 46.84 76.18 54.23 75.17 Z" />
<path fill="#63dbcb" opacity="1.00" d=" M 84.25 75.16 C 91.49 73.57 98.34 81.66 95.36 88.53 C 93.06 95.42 82.99 97.26 78.47 91.55 C 73.29 86.15 76.86 76.17 84.25 75.16 Z" />
<path fill="#63dbcb" opacity="1.00" d=" M 114.27 75.16 C 121.54 73.58 128.38 81.72 125.33 88.59 C 123.00 95.42 113.03 97.23 108.51 91.60 C 103.27 86.20 106.84 76.14 114.27 75.16 Z" />
<path fill="#63dbcb" opacity="1.00" d=" M 144.24 75.16 C 151.52 73.56 158.39 81.72 155.33 88.61 C 152.98 95.45 142.96 97.24 138.46 91.54 C 133.29 86.14 136.86 76.17 144.24 75.16 Z" />
<path fill="#63dbcb" opacity="1.00" d=" M 52.46 105.67 C 59.05 102.80 67.01 108.99 65.94 116.06 C 65.47 123.47 55.71 127.81 49.99 122.95 C 43.74 118.72 45.27 107.99 52.46 105.67 Z" />
<path fill="#63dbcb" opacity="1.00" d=" M 82.49 105.66 C 89.08 102.82 97.03 109.01 95.94 116.08 C 95.45 123.45 85.76 127.78 80.04 122.99 C 73.73 118.77 75.26 107.96 82.49 105.66 Z" />
<path fill="#63dbcb" opacity="1.00" d=" M 112.47 105.67 C 119.08 102.80 127.06 109.03 125.94 116.12 C 125.42 123.51 115.67 127.79 109.97 122.94 C 103.74 118.69 105.28 107.98 112.47 105.67 Z" />
<path fill="#63dbcb" opacity="1.00" d=" M 144.27 105.16 C 151.23 103.67 157.96 111.09 155.58 117.87 C 153.75 124.89 143.82 127.47 138.94 122.03 C 133.16 116.82 136.57 106.15 144.27 105.16 Z" />
<path fill="#63dbcb" opacity="1.00" d=" M 54.29 135.15 C 61.54 133.60 68.35 141.69 65.35 148.56 C 63.02 155.40 53.01 157.27 48.49 151.55 C 43.26 146.16 46.87 136.11 54.29 135.15 Z" />
<path fill="#63dbcb" opacity="1.00" d=" M 84.24 135.16 C 91.20 133.65 97.96 141.08 95.58 147.87 C 93.76 154.88 83.84 157.48 78.94 152.04 C 73.17 146.84 76.56 136.19 84.24 135.16 Z" />
</g>
</svg>
