<?xml version="1.0" encoding="UTF-8" ?>
<!DOCTYPE svg PUBLIC "-//W3C//DTD SVG 1.1//EN" "http://www.w3.org/Graphics/SVG/1.1/DTD/svg11.dtd">
<svg width="239pt" height="395pt" viewBox="0 0 239 395" version="1.1" xmlns="http://www.w3.org/2000/svg">
<g id="#555555ff">
<path fill="#555555" opacity="1.00" d=" M 11.25 0.00 L 161.68 0.00 C 168.93 -0.74 177.08 4.20 177.24 11.98 C 177.36 62.98 177.27 113.99 177.29 164.99 C 177.62 171.65 171.70 177.70 165.05 177.56 C 114.34 177.65 63.63 177.59 12.92 177.58 C 6.76 177.94 1.08 173.22 0.01 167.17 L 0.00 169.30 L 0.00 11.11 C 0.98 4.16 7.97 -0.72 14.90 0.34 L 11.25 0.00 M 40.71 41.15 C 40.72 73.05 40.68 104.95 40.73 136.85 C 72.68 136.88 104.64 136.87 136.59 136.85 C 136.59 104.95 136.59 73.05 136.59 41.15 C 104.63 41.13 72.67 41.12 40.71 41.15 Z" />
<path fill="#555555" opacity="1.00" d=" M 0.00 228.48 C 0.92 222.29 6.74 217.48 12.98 217.81 C 63.31 217.78 113.64 217.80 163.97 217.80 C 168.84 217.54 173.80 220.16 175.97 224.59 C 177.50 227.36 177.32 230.62 177.28 233.69 C 163.69 247.19 150.19 260.78 136.60 274.28 C 136.57 269.04 136.61 263.79 136.58 258.54 C 104.62 258.53 72.67 258.52 40.72 258.55 C 40.70 290.47 40.69 322.39 40.72 354.32 C 54.47 354.36 68.21 354.31 81.96 354.34 C 87.62 359.91 93.18 365.59 98.86 371.15 C 106.58 378.54 117.30 382.67 128.00 382.26 C 138.17 382.09 148.11 377.75 155.36 370.64 C 162.69 363.38 169.95 356.03 177.29 348.77 C 177.27 360.19 177.35 371.62 177.26 383.04 C 177.28 388.94 172.45 394.00 166.76 395.00 L 10.72 395.00 C 5.30 394.17 0.94 389.77 0.00 384.40 L 0.00 228.48 Z" />
<path fill="#555555" opacity="1.00" d=" M 203.87 235.84 C 209.56 229.76 219.07 227.74 226.70 231.15 C 233.21 233.85 237.72 240.14 239.00 246.99 L 239.00 252.19 C 238.26 256.89 236.09 261.33 232.65 264.62 C 202.11 295.13 171.61 325.68 141.04 356.16 C 133.63 363.78 120.22 363.84 112.75 356.27 C 99.89 343.48 87.07 330.64 74.24 317.81 C 68.89 312.56 66.91 304.24 69.31 297.15 C 71.51 290.16 77.79 284.69 85.00 283.45 C 91.44 282.22 98.36 284.39 102.98 289.02 C 110.96 296.94 118.88 304.92 126.86 312.84 C 152.51 287.16 178.20 261.51 203.87 235.84 Z" />
</g>
</svg>
