<?xml version="1.0" encoding="UTF-8" ?>
<!DOCTYPE svg PUBLIC "-//W3C//DTD SVG 1.1//EN" "http://www.w3.org/Graphics/SVG/1.1/DTD/svg11.dtd">
<svg width="869pt" height="771pt" viewBox="0 0 869 771" version="1.1" xmlns="http://www.w3.org/2000/svg">
<g id="#ed7262ff">
<path fill="#ed7262" opacity="1.00" d=" M 388.11 0.00 L 472.21 0.00 C 474.33 1.12 476.92 2.12 479.20 0.77 C 483.12 1.40 486.99 2.25 490.87 3.09 C 491.45 3.29 492.61 3.70 493.19 3.90 C 525.49 13.11 551.79 40.19 560.24 72.67 C 560.42 73.26 560.78 74.43 560.97 75.01 C 562.62 83.24 563.79 91.60 563.56 100.01 C 563.58 151.42 563.47 202.83 563.62 254.24 C 616.41 254.17 669.20 254.24 721.99 254.20 C 754.94 254.57 786.76 273.22 803.63 301.45 C 808.27 309.03 811.83 317.27 814.21 325.83 C 814.40 326.42 814.77 327.60 814.95 328.19 C 815.84 332.54 816.71 336.90 817.34 341.30 C 817.83 364.41 817.45 387.53 817.58 410.65 C 734.05 410.66 650.51 410.66 566.98 410.65 C 562.56 410.70 557.59 409.88 553.93 412.99 C 549.02 416.46 548.55 422.85 546.68 428.07 C 544.28 436.18 541.32 444.16 539.57 452.46 C 531.43 395.66 523.65 338.81 515.58 282.00 C 515.26 277.76 512.22 274.23 508.56 272.32 C 502.15 269.64 493.70 273.13 492.09 280.19 C 482.52 320.14 473.08 360.13 463.52 400.09 C 462.30 404.99 461.10 409.89 460.22 414.86 C 454.19 388.28 447.96 361.74 441.87 335.17 C 441.16 330.93 438.15 327.16 434.06 325.77 C 430.03 324.92 425.31 325.01 422.17 328.04 C 418.46 330.91 417.96 335.87 416.73 340.06 C 407.80 372.34 398.81 404.61 389.87 436.89 C 388.33 442.63 386.43 448.28 385.50 454.17 C 384.02 444.66 383.85 435.01 382.76 425.46 C 377.82 367.35 372.83 309.24 367.86 251.13 C 367.19 246.52 368.11 241.18 364.50 237.55 C 360.41 231.94 351.49 232.06 346.69 236.63 C 344.28 239.33 343.42 242.95 342.16 246.25 C 322.63 300.79 303.02 355.30 283.49 409.84 C 283.16 411.51 281.75 412.47 280.06 412.13 C 215.36 412.12 150.65 412.13 85.95 412.12 C 72.88 411.91 59.77 412.57 46.72 411.76 C 46.69 391.84 46.73 371.92 46.70 351.99 C 46.68 344.66 47.72 337.39 49.13 330.21 C 49.30 329.62 49.65 328.44 49.82 327.85 C 57.80 295.73 83.28 268.81 114.80 258.82 C 115.39 258.62 116.55 258.23 117.14 258.04 C 125.25 255.91 133.55 254.28 141.96 254.20 C 194.97 254.22 247.98 254.21 301.00 254.21 C 301.01 205.80 301.00 157.39 301.00 108.98 C 301.04 100.65 300.68 92.26 301.98 84.00 C 304.01 69.61 309.43 55.78 317.41 43.65 C 317.46 43.58 317.56 43.43 317.61 43.35 C 330.36 24.41 349.81 10.07 371.77 3.73 C 372.35 3.54 373.53 3.17 374.12 2.99 C 378.75 1.87 383.51 1.31 388.11 0.00 Z" />
<path fill="#ed7262" opacity="1.00" d=" M 302.75 427.44 C 317.84 384.97 333.30 342.63 348.28 300.12 C 348.42 304.70 348.55 309.29 349.15 313.84 C 354.97 381.53 360.70 449.23 366.55 516.93 C 366.76 521.31 366.82 526.38 370.33 529.58 C 374.36 534.15 382.07 534.80 386.54 530.53 C 389.71 528.11 390.73 524.13 391.66 520.46 C 404.03 475.64 416.64 430.88 428.86 386.02 C 434.88 411.66 440.73 437.34 446.65 463.00 C 447.77 467.75 448.25 473.35 452.50 476.49 C 458.78 481.72 469.86 478.36 471.57 470.14 C 477.17 446.77 482.72 423.37 488.25 399.98 C 492.29 382.25 497.11 364.68 500.52 346.82 C 507.58 398.93 515.17 450.96 522.30 503.06 C 522.81 506.70 523.00 510.63 525.20 513.74 C 529.48 519.84 539.72 520.18 544.29 514.27 C 546.85 510.56 547.58 506.00 549.03 501.81 C 555.94 479.42 562.95 457.05 569.77 434.63 C 651.91 434.67 734.06 434.59 816.20 434.67 L 816.23 435.50 C 815.75 439.03 814.87 442.49 814.03 445.94 C 813.84 446.53 813.44 447.69 813.24 448.27 C 807.97 464.75 798.29 479.79 785.41 491.35 C 770.42 504.94 751.14 513.76 731.02 516.02 C 721.37 517.18 711.64 516.69 701.96 516.79 C 655.93 516.85 609.91 516.67 563.89 516.88 C 563.17 519.15 563.65 521.65 563.54 524.01 C 563.58 574.01 563.53 624.01 563.56 674.01 C 563.57 681.35 562.36 688.61 560.96 695.80 C 560.78 696.39 560.42 697.56 560.24 698.15 C 551.73 730.98 524.94 758.20 492.27 767.26 C 491.68 767.44 490.50 767.80 489.91 767.99 C 485.65 768.87 481.39 769.86 477.04 770.21 C 474.24 770.32 471.46 770.69 468.67 771.00 L 395.35 771.00 C 365.03 769.84 335.61 753.86 318.57 728.70 C 318.51 728.62 318.40 728.45 318.34 728.37 C 307.05 712.27 300.98 692.62 300.99 672.98 C 301.01 620.91 301.00 568.85 301.00 516.79 C 256.65 516.79 212.30 516.79 167.95 516.79 C 152.38 516.66 136.57 517.70 121.30 513.91 C 120.71 513.73 119.53 513.37 118.93 513.19 C 86.67 504.60 60.00 478.34 50.74 446.28 C 50.55 445.69 50.18 444.52 49.99 443.94 C 49.64 442.31 49.29 440.69 48.97 439.08 C 48.90 438.28 48.75 436.67 48.67 435.87 C 129.47 435.88 210.26 435.88 291.06 435.87 C 296.36 436.20 301.16 432.37 302.75 427.44 Z" />
</g>
<g id="#ed726228">
<path fill="#ed7262" opacity="0.16" d=" M 472.21 0.00 L 479.15 0.00 L 479.20 0.77 C 476.92 2.12 474.33 1.12 472.21 0.00 Z" />
<path fill="#ed7262" opacity="0.16" d=" M 371.77 3.73 C 372.35 3.54 373.53 3.17 374.12 2.99 C 373.53 3.17 372.35 3.54 371.77 3.73 Z" />
<path fill="#ed7262" opacity="0.16" d=" M 490.87 3.09 C 491.45 3.29 492.61 3.70 493.19 3.90 C 492.61 3.70 491.45 3.29 490.87 3.09 Z" />
<path fill="#ed7262" opacity="0.16" d=" M 317.41 43.65 C 317.46 43.58 317.56 43.43 317.61 43.35 C 317.56 43.43 317.46 43.58 317.41 43.65 Z" />
<path fill="#ed7262" opacity="0.16" d=" M 560.24 72.67 C 560.42 73.26 560.78 74.43 560.97 75.01 C 560.78 74.43 560.42 73.26 560.24 72.67 Z" />
<path fill="#ed7262" opacity="0.16" d=" M 114.80 258.82 C 115.39 258.62 116.55 258.23 117.14 258.04 C 116.55 258.23 115.39 258.62 114.80 258.82 Z" />
<path fill="#ed7262" opacity="0.16" d=" M 814.21 325.83 C 814.40 326.42 814.77 327.60 814.95 328.19 C 814.77 327.60 814.40 326.42 814.21 325.83 Z" />
<path fill="#ed7262" opacity="0.16" d=" M 49.13 330.21 C 49.30 329.62 49.65 328.44 49.82 327.85 C 49.65 328.44 49.30 329.62 49.13 330.21 Z" />
<path fill="#ed7262" opacity="0.16" d=" M 49.99 443.94 C 50.18 444.52 50.55 445.69 50.74 446.28 C 50.55 445.69 50.18 444.52 49.99 443.94 Z" />
<path fill="#ed7262" opacity="0.16" d=" M 813.24 448.27 C 813.44 447.69 813.84 446.53 814.03 445.94 C 813.84 446.53 813.44 447.69 813.24 448.27 Z" />
<path fill="#ed7262" opacity="0.16" d=" M 118.93 513.19 C 119.53 513.37 120.71 513.73 121.30 513.91 C 120.71 513.73 119.53 513.37 118.93 513.19 Z" />
<path fill="#ed7262" opacity="0.16" d=" M 560.24 698.15 C 560.42 697.56 560.78 696.39 560.96 695.80 C 560.78 696.39 560.42 697.56 560.24 698.15 Z" />
<path fill="#ed7262" opacity="0.16" d=" M 318.34 728.37 C 318.40 728.45 318.51 728.62 318.57 728.70 C 318.51 728.62 318.40 728.45 318.34 728.37 Z" />
<path fill="#ed7262" opacity="0.16" d=" M 489.91 767.99 C 490.50 767.80 491.68 767.44 492.27 767.26 C 491.68 767.44 490.50 767.80 489.91 767.99 Z" />
<path fill="#ed7262" opacity="0.16" d=" M 468.67 771.00 C 471.46 770.69 474.24 770.32 477.04 770.21 L 478.36 771.00 L 468.67 771.00 Z" />
</g>
<g id="#ffffffff">
<path fill="#ffffff" opacity="1.00" d=" M 346.69 236.63 C 351.49 232.06 360.41 231.94 364.50 237.55 C 368.11 241.18 367.19 246.52 367.86 251.13 C 372.83 309.24 377.82 367.35 382.76 425.46 C 383.85 435.01 384.02 444.66 385.50 454.17 C 386.43 448.28 388.33 442.63 389.87 436.89 C 398.81 404.61 407.80 372.34 416.73 340.06 C 417.96 335.87 418.46 330.91 422.17 328.04 C 425.31 325.01 430.03 324.92 434.06 325.77 C 438.15 327.16 441.16 330.93 441.87 335.17 C 447.96 361.74 454.19 388.28 460.22 414.86 C 461.10 409.89 462.30 404.99 463.52 400.09 C 473.08 360.13 482.52 320.14 492.09 280.19 C 493.70 273.13 502.15 269.64 508.56 272.32 C 512.22 274.23 515.26 277.76 515.58 282.00 C 523.65 338.81 531.43 395.66 539.57 452.46 C 541.32 444.16 544.28 436.18 546.68 428.07 C 548.55 422.85 549.02 416.46 553.93 412.99 C 557.59 409.88 562.56 410.70 566.98 410.65 C 650.51 410.66 734.05 410.66 817.58 410.65 C 817.45 387.53 817.83 364.41 817.34 341.30 C 818.03 348.52 817.66 355.80 817.75 363.04 C 817.78 379.02 817.70 395.01 817.80 410.99 C 831.20 410.99 844.60 411.03 858.00 410.97 C 859.50 410.93 861.01 411.14 862.50 411.44 C 865.10 413.37 867.52 415.64 869.00 418.58 L 869.00 427.57 C 867.61 429.90 865.87 432.07 863.48 433.44 C 862.49 433.75 861.50 434.05 860.51 434.33 C 859.41 434.82 858.27 435.05 857.08 435.02 C 845.71 434.97 834.34 435.03 822.97 434.98 C 820.71 434.99 818.40 434.81 816.23 435.50 L 816.20 434.67 C 734.06 434.59 651.91 434.67 569.77 434.63 C 562.95 457.05 555.94 479.42 549.03 501.81 C 547.58 506.00 546.85 510.56 544.29 514.27 C 539.72 520.18 529.48 519.84 525.20 513.74 C 523.00 510.63 522.81 506.70 522.30 503.06 C 515.17 450.96 507.58 398.93 500.52 346.82 C 497.11 364.68 492.29 382.25 488.25 399.98 C 482.72 423.37 477.17 446.77 471.57 470.14 C 469.86 478.36 458.78 481.72 452.50 476.49 C 448.25 473.35 447.77 467.75 446.65 463.00 C 440.73 437.34 434.88 411.66 428.86 386.02 C 416.64 430.88 404.03 475.64 391.66 520.46 C 390.73 524.13 389.71 528.11 386.54 530.53 C 382.07 534.80 374.36 534.15 370.33 529.58 C 366.82 526.38 366.76 521.31 366.55 516.93 C 360.70 449.23 354.97 381.53 349.15 313.84 C 348.55 309.29 348.42 304.70 348.28 300.12 C 333.30 342.63 317.84 384.97 302.75 427.44 C 301.16 432.37 296.36 436.20 291.06 435.87 C 210.26 435.88 129.47 435.88 48.67 435.87 C 48.75 436.67 48.90 438.28 48.97 439.08 C 48.73 438.05 48.48 437.02 48.22 436.01 C 35.14 435.92 22.06 436.14 9.00 435.91 C 8.60 435.72 7.81 435.36 7.42 435.18 C 6.91 435.12 5.89 435.01 5.38 434.95 C 3.38 432.95 1.30 430.97 0.00 428.42 L 0.00 419.48 L 0.57 418.57 C 1.84 416.46 3.68 414.80 5.38 413.05 C 5.89 412.99 6.91 412.88 7.42 412.82 C 7.83 412.64 8.65 412.27 9.06 412.09 C 21.60 411.72 34.18 412.37 46.72 411.76 C 59.77 412.57 72.88 411.91 85.95 412.12 C 150.65 412.13 215.36 412.12 280.06 412.13 C 281.75 412.47 283.16 411.51 283.49 409.84 C 303.02 355.30 322.63 300.79 342.16 246.25 C 343.42 242.95 344.28 239.33 346.69 236.63 Z" />
</g>
</svg>
