<?xml version="1.0" encoding="UTF-8" ?>
<!DOCTYPE svg PUBLIC "-//W3C//DTD SVG 1.1//EN" "http://www.w3.org/Graphics/SVG/1.1/DTD/svg11.dtd">
<svg width="692pt" height="680pt" viewBox="0 0 692 680" version="1.1" xmlns="http://www.w3.org/2000/svg">
<g id="#cfd0d1ff">
<path fill="#ffffff" opacity="1.00" d=" M 194.56 33.61 C 201.35 32.04 207.23 36.70 213.30 38.87 C 218.70 41.79 223.99 44.95 229.59 47.48 C 234.75 50.68 239.81 54.09 245.30 56.73 C 250.34 60.36 255.52 63.84 260.94 66.91 C 267.12 72.27 274.50 76.02 280.50 81.59 C 284.38 85.06 289.07 87.54 292.58 91.43 C 295.77 94.57 299.36 97.26 302.74 100.18 C 306.85 104.76 311.35 108.97 315.78 113.22 C 319.31 117.66 323.01 121.96 326.99 126.01 C 331.65 133.62 338.18 140.01 341.79 148.24 C 343.88 154.88 339.79 163.12 332.80 164.62 C 326.88 165.73 320.89 162.08 318.21 156.88 C 315.45 151.79 311.76 147.32 307.90 143.03 C 304.26 136.84 298.18 132.77 293.96 127.07 C 290.15 122.84 285.31 119.75 281.50 115.53 C 277.14 111.13 271.75 107.99 267.29 103.72 C 263.66 100.60 259.59 98.09 255.69 95.33 C 250.13 90.36 243.26 87.25 237.39 82.71 C 232.84 79.40 227.50 77.42 223.04 74.00 C 217.96 70.54 212.05 68.57 207.02 65.06 C 203.35 63.29 199.89 61.06 196.04 59.67 C 191.36 57.78 187.08 53.93 186.18 48.75 C 184.15 42.60 188.19 35.08 194.56 33.61 Z" />
<path fill="#ffffff" opacity="1.00" d=" M 490.38 33.62 C 494.01 32.53 498.16 33.48 500.85 36.18 C 503.62 38.62 504.68 42.34 505.42 45.83 C 505.75 51.10 502.05 55.93 497.52 58.28 C 492.69 60.55 487.89 62.89 483.00 65.01 C 465.75 74.23 448.87 84.31 433.44 96.37 C 419.61 106.74 406.00 117.55 394.03 130.07 C 386.62 138.37 379.44 146.93 373.27 156.21 C 370.86 159.98 367.80 164.08 363.08 164.86 C 355.95 165.95 349.18 159.80 348.21 152.95 C 348.54 149.88 349.45 146.83 351.29 144.31 C 372.01 111.99 401.80 86.63 433.46 65.45 C 440.04 60.68 446.86 56.22 454.06 52.43 C 466.06 45.98 477.80 38.87 490.38 33.62 Z" />
<path fill="#ffffff" opacity="1.00" d=" M 98.13 85.43 C 102.35 84.63 106.71 85.24 110.99 85.15 C 117.17 84.80 123.19 86.48 129.34 86.83 C 133.61 88.03 138.14 87.00 142.37 88.34 C 150.42 90.48 158.89 90.44 166.81 93.01 C 171.91 94.12 177.01 95.29 182.15 96.20 C 190.54 99.41 199.56 100.52 207.82 104.06 C 218.35 107.01 228.21 111.69 238.51 115.28 C 243.77 118.30 249.45 120.48 254.97 122.94 C 260.30 126.10 265.81 128.94 271.38 131.66 C 277.62 136.23 284.86 139.26 290.89 144.11 C 294.53 146.51 298.04 149.09 301.76 151.36 C 306.35 155.44 311.34 159.05 316.23 162.76 C 319.31 166.24 323.97 168.60 325.22 173.41 C 327.20 178.56 324.32 183.65 321.82 188.01 C 320.49 190.47 317.58 191.48 314.92 191.42 C 311.01 192.08 307.90 189.20 304.93 187.14 C 301.69 184.25 297.80 182.17 294.78 179.02 C 289.96 174.33 283.69 171.62 278.61 167.28 C 275.09 164.80 271.52 162.36 267.58 160.61 C 262.42 157.17 257.17 153.75 251.38 151.46 C 245.99 148.34 240.53 145.21 234.57 143.31 C 228.93 140.39 223.16 137.55 216.99 135.97 C 211.01 133.29 204.91 130.71 198.45 129.43 C 192.22 126.78 185.69 124.85 179.01 123.76 C 170.68 120.30 161.53 119.81 152.94 117.39 C 146.12 115.75 139.05 115.69 132.26 113.96 C 126.79 113.68 121.46 112.12 115.96 112.47 C 112.60 112.58 109.40 111.24 106.04 111.38 C 101.93 111.40 97.39 111.50 93.88 109.02 C 90.54 105.24 88.54 99.80 90.04 94.80 C 91.09 90.66 94.13 87.01 98.13 85.43 Z" />
<path fill="#ffffff" opacity="1.00" d=" M 566.60 85.77 C 574.98 85.20 583.43 84.81 591.83 85.17 C 596.24 86.84 599.33 91.39 599.88 96.02 C 601.91 103.48 595.01 112.77 586.99 111.38 C 581.21 111.06 575.53 112.44 569.77 112.54 C 566.21 113.32 562.63 114.02 558.97 113.84 C 550.39 114.74 541.89 116.33 533.52 118.36 C 519.69 119.91 506.65 124.98 493.24 128.30 C 485.12 131.00 476.93 133.53 469.13 137.05 C 463.44 140.00 457.23 141.69 451.48 144.49 C 440.75 149.46 430.26 155.00 420.25 161.29 C 410.76 167.78 401.14 174.08 391.97 181.02 C 387.99 184.00 384.62 187.80 380.32 190.33 C 375.60 192.85 369.69 190.59 366.69 186.47 C 364.06 182.07 363.11 176.32 365.46 171.59 C 366.78 168.42 369.66 166.36 372.19 164.20 C 389.29 149.48 408.28 137.07 427.93 126.05 C 438.06 121.45 447.99 116.36 458.36 112.28 C 463.85 110.24 468.99 107.33 474.66 105.78 C 481.22 104.15 487.49 101.56 494.03 99.87 C 500.44 98.32 506.50 95.41 513.14 94.82 C 522.02 92.68 531.01 91.05 539.91 89.03 C 548.84 88.31 557.70 86.89 566.60 85.77 Z" />
</g>
<g id="#4da0d8ff">
<path fill="#ffffff" opacity="1.00" d=" M 57.13 151.98 C 69.99 150.09 83.05 151.39 96.01 150.99 C 100.79 150.44 105.31 152.45 110.08 152.06 C 120.77 153.32 131.52 153.73 142.07 155.92 C 147.87 155.65 153.35 157.82 159.06 158.49 C 167.51 159.53 175.68 161.79 184.02 163.50 C 189.07 164.01 193.77 165.98 198.72 166.96 C 203.18 168.67 208.13 168.70 212.45 170.76 C 216.09 171.40 219.45 173.01 223.04 173.83 C 231.23 175.71 238.92 179.26 247.07 181.30 C 251.79 183.34 256.69 184.93 261.47 186.86 C 261.98 186.92 263.01 187.06 263.53 187.13 C 269.92 190.14 276.49 192.76 283.15 195.10 C 299.85 202.80 316.90 209.84 332.88 219.02 C 337.79 225.20 334.33 233.49 335.82 240.61 C 335.59 249.32 335.04 258.13 335.93 266.85 C 335.33 275.15 335.19 283.54 335.93 291.83 C 335.33 300.13 335.19 308.52 335.92 316.82 C 335.33 325.15 335.19 333.58 335.93 341.91 C 335.31 350.21 335.21 358.59 335.93 366.89 C 335.31 375.19 335.20 383.58 335.93 391.88 C 335.32 400.18 335.20 408.57 335.93 416.88 C 335.32 425.18 335.20 433.58 335.93 441.89 C 335.33 450.19 335.19 458.58 335.93 466.87 C 335.32 475.17 335.20 483.55 335.93 491.84 C 335.24 500.55 335.31 509.35 335.90 518.05 C 335.14 526.37 335.43 534.77 335.89 543.08 C 335.19 551.35 335.36 559.71 335.91 567.98 C 335.11 576.37 335.48 584.86 335.87 593.26 C 334.72 603.47 336.28 613.73 335.48 623.92 C 335.65 629.48 335.17 635.07 335.82 640.61 C 336.29 647.31 334.61 654.78 329.07 659.10 C 327.04 660.49 324.50 662.16 321.96 661.20 C 314.41 658.87 307.15 655.53 299.44 653.76 C 293.32 651.18 286.94 649.22 280.54 647.45 C 273.83 645.02 267.00 642.84 260.08 641.12 C 252.59 637.88 244.41 636.78 236.78 633.99 C 232.42 632.84 228.16 631.31 223.70 630.60 C 222.23 630.42 220.84 629.94 219.55 629.24 C 213.89 627.98 208.40 626.02 202.66 625.19 C 196.05 623.01 189.22 621.46 182.36 620.34 C 174.91 618.13 167.23 616.88 159.62 615.37 C 148.69 612.91 137.53 611.46 126.50 609.53 C 123.78 608.66 120.91 609.22 118.13 608.88 C 113.44 607.40 108.42 607.88 103.67 606.66 C 98.67 606.34 93.62 606.76 88.68 605.63 C 79.46 605.30 70.22 605.62 60.99 605.49 C 55.95 605.23 51.00 606.43 46.08 607.40 C 39.76 606.99 34.68 601.08 34.01 594.99 C 33.97 557.28 34.05 519.56 33.97 481.85 C 32.80 469.61 34.22 457.27 33.02 445.04 C 33.00 422.70 32.96 400.37 33.01 378.04 C 33.03 374.68 32.14 371.35 32.58 367.99 C 33.07 364.58 33.20 361.12 32.74 357.71 C 32.20 330.16 32.65 302.59 32.50 275.03 C 32.34 267.43 32.91 259.81 32.06 252.24 C 31.71 242.59 32.47 232.89 31.65 223.26 C 31.41 204.88 31.54 186.44 31.48 168.03 C 31.41 162.45 34.97 157.26 39.89 154.79 C 42.11 153.19 44.99 153.73 47.42 152.69 C 50.53 151.53 53.90 152.18 57.13 151.98 Z" />
<path fill="#ffffff" opacity="1.00" d=" M 590.39 151.33 C 594.22 150.67 598.12 151.11 601.99 151.00 C 610.97 151.07 619.97 150.85 628.94 151.10 C 632.04 152.33 635.39 151.79 638.62 152.31 C 642.25 152.58 645.79 153.78 649.47 153.50 C 652.21 154.91 654.93 156.65 656.74 159.21 C 659.37 164.04 658.45 169.69 658.02 174.91 C 657.97 187.26 658.02 199.61 658.00 211.96 C 657.95 216.89 658.23 221.84 657.58 226.75 C 657.33 237.10 657.67 247.47 657.42 257.82 C 656.75 261.89 656.98 266.00 657.49 270.08 C 656.73 276.69 657.06 283.35 657.00 289.99 C 657.00 321.67 657.00 353.34 657.00 385.02 C 657.44 397.02 655.60 409.01 656.96 420.98 C 656.28 425.96 656.63 430.97 656.41 435.97 C 655.37 441.23 657.18 446.52 656.05 451.79 C 655.94 478.52 656.02 505.26 656.01 531.99 C 656.17 535.38 655.77 538.76 655.68 542.16 C 656.61 548.09 655.05 554.01 655.50 559.97 C 655.06 565.59 656.53 571.18 655.57 576.77 C 655.35 582.83 655.60 588.90 655.50 594.97 C 655.20 598.84 653.53 603.05 649.79 604.79 C 644.31 607.92 637.81 606.19 631.96 605.50 C 621.89 605.57 611.80 605.33 601.75 605.63 C 596.02 607.45 589.96 605.70 584.17 607.00 C 580.02 607.93 575.67 607.45 571.60 608.76 C 568.63 609.32 565.51 608.59 562.61 609.63 C 555.12 610.91 547.55 611.67 540.17 613.56 C 530.78 614.78 521.46 616.90 512.21 619.06 C 506.72 620.85 500.87 621.05 495.39 622.90 C 489.63 624.32 483.78 625.44 478.17 627.39 C 465.28 630.48 452.41 633.81 439.86 638.08 C 425.85 641.37 412.34 646.45 398.63 650.69 C 389.94 653.47 381.28 656.36 372.70 659.48 C 370.27 660.75 367.76 661.95 364.93 661.52 C 363.06 660.16 360.93 659.23 359.05 657.90 C 356.70 655.99 355.42 653.17 354.04 650.57 C 353.94 510.03 354.05 369.49 353.98 228.96 C 353.89 226.19 354.80 223.46 356.15 221.08 C 359.35 216.09 365.27 214.13 370.36 211.67 C 380.61 206.73 390.85 201.76 401.36 197.37 C 406.51 194.76 411.83 192.47 417.34 190.71 C 427.25 186.52 437.50 183.21 447.50 179.26 C 454.11 177.23 460.72 175.14 467.39 173.32 C 485.02 167.41 503.30 163.83 521.39 159.66 C 533.53 158.14 545.48 155.15 557.71 154.31 C 561.68 153.13 565.86 153.87 569.87 153.00 C 576.56 151.10 583.60 152.69 590.39 151.33 Z" />
</g>
</svg>
