<?xml version="1.0" encoding="iso-8859-1"?>
<!-- Generator: Adobe Illustrator 16.0.0, SVG Export Plug-In . SVG Version: 6.00 Build 0)  -->
<!DOCTYPE svg PUBLIC "-//W3C//DTD SVG 1.1//EN" "http://www.w3.org/Graphics/SVG/1.1/DTD/svg11.dtd">
<svg xmlns="http://www.w3.org/2000/svg" xmlns:xlink="http://www.w3.org/1999/xlink" version="1.1" id="Capa_1" x="0px" y="0px" width="512px" height="512px" viewBox="0 0 386.325 386.326" style="enable-background:new 0 0 386.325 386.326;" xml:space="preserve">
<g>
	<path d="M374.85,34.425L351.9,11.475c-15.301-15.3-38.25-15.3-53.551,0L19.125,290.701L0,386.326l95.625-19.125L374.85,87.975   C390.15,72.675,390.15,49.725,374.85,34.425z M24.862,361.463l11.475-59.288l47.812,47.812L24.862,361.463z M99.45,336.601   l-49.725-49.726l214.2-214.2L313.65,122.4L99.45,336.601z M361.463,74.588L328.95,107.1l-49.726-49.725l32.513-32.512   c7.65-7.65,19.125-7.65,26.775,0l22.95,22.95C369.112,55.463,369.112,66.938,361.463,74.588z" fill="#82b440"/>
</g>
<g>
</g>
<g>
</g>
<g>
</g>
<g>
</g>
<g>
</g>
<g>
</g>
<g>
</g>
<g>
</g>
<g>
</g>
<g>
</g>
<g>
</g>
<g>
</g>
<g>
</g>
<g>
</g>
<g>
</g>
</svg>
