<?xml version="1.0" encoding="UTF-8" ?>
<!DOCTYPE svg PUBLIC "-//W3C//DTD SVG 1.1//EN" "http://www.w3.org/Graphics/SVG/1.1/DTD/svg11.dtd">
<svg width="106pt" height="101pt" viewBox="0 0 106 101" version="1.1" xmlns="http://www.w3.org/2000/svg">
<g id="#36474c4d">
<path fill="#05c3f9" opacity="0.30" d=" M 51.53 0.00 L 55.39 0.00 L 56.53 0.98 C 55.66 0.74 53.90 0.27 53.03 0.03 C 52.99 28.15 52.96 56.28 53.04 84.40 C 43.92 89.90 35.01 95.73 25.76 101.00 L 22.57 101.00 C 19.34 99.86 17.04 96.39 18.16 92.96 C 20.37 83.35 22.93 73.82 25.11 64.20 C 19.33 59.16 13.39 54.30 7.56 49.31 C 4.86 46.94 1.64 44.93 0.00 41.60 L 0.00 38.96 C 0.86 36.33 3.02 34.06 5.90 33.87 C 15.87 32.94 25.87 32.37 35.85 31.56 C 39.78 22.46 43.28 13.17 47.17 4.06 C 47.91 2.08 49.77 0.96 51.53 0.00 Z" />
</g>
<g id="#05c3f9ff">
<path fill="#05c3f9" opacity="1.00" d=" M 53.03 0.03 C 53.90 0.27 55.66 0.74 56.53 0.98 C 58.67 2.52 59.43 5.12 60.38 7.44 C 63.64 15.48 66.94 23.51 70.19 31.55 C 80.23 32.34 90.28 32.99 100.31 33.86 C 103.09 33.99 105.21 36.17 106.00 38.73 L 106.00 41.27 C 105.40 43.94 103.05 45.51 101.11 47.18 C 94.38 52.85 87.65 58.52 80.95 64.21 C 83.30 73.83 85.72 83.44 88.00 93.07 C 88.91 96.55 86.52 100.38 82.92 100.99 L 84.51 101.00 L 81.35 101.00 C 80.01 100.76 78.75 100.22 77.61 99.50 C 69.41 94.47 61.25 89.40 53.04 84.40 C 52.96 56.28 52.99 28.15 53.03 0.03 Z" />
</g>
</svg>
