<?xml version="1.0" encoding="UTF-8" ?>
<!DOCTYPE svg PUBLIC "-//W3C//DTD SVG 1.1//EN" "http://www.w3.org/Graphics/SVG/1.1/DTD/svg11.dtd">
<svg width="106pt" height="101pt" viewBox="0 0 106 101" version="1.1" xmlns="http://www.w3.org/2000/svg">
<g id="#05c3f94d">
<path fill="#05c3f9" opacity="0.30" d=" M 52.11 0.00 L 54.43 0.00 C 56.56 0.91 58.46 2.41 59.23 4.67 C 62.96 13.61 66.51 22.64 70.22 31.59 C 76.31 32.35 82.52 31.38 88.52 32.90 C 85.34 32.87 82.16 32.69 79.00 32.39 C 79.04 54.94 78.91 77.49 79.06 100.04 C 79.56 100.28 80.55 100.76 81.05 101.00 L 79.72 101.00 C 71.00 95.21 61.95 89.94 53.07 84.40 C 43.96 89.87 35.04 95.67 25.85 101.00 L 22.47 101.00 C 18.51 99.54 17.00 95.17 18.49 91.36 C 20.72 82.31 22.99 73.27 25.15 64.20 C 20.27 59.99 15.30 55.88 10.39 51.70 C 6.77 48.55 2.67 45.84 0.00 41.76 L 0.00 38.83 C 1.04 36.30 3.06 33.99 5.99 33.89 C 15.92 32.88 25.91 32.38 35.87 31.57 C 39.77 22.49 43.23 13.21 47.16 4.14 C 47.97 1.96 50.02 0.74 52.11 0.00 Z" />
</g>
<g id="#05c3f9ff">
<path fill="#05c3f9" opacity="1.00" d=" M 79.00 32.39 C 82.16 32.69 85.34 32.87 88.52 32.90 C 94.34 34.16 103.38 31.43 106.00 38.62 L 106.00 41.38 C 105.27 43.35 103.87 44.95 102.24 46.25 C 95.12 52.20 88.04 58.22 80.94 64.21 C 83.27 73.85 85.79 83.46 87.97 93.13 C 88.93 96.64 86.50 100.06 83.11 100.99 L 84.69 101.00 L 81.05 101.00 C 80.55 100.76 79.56 100.28 79.06 100.04 C 78.91 77.49 79.04 54.94 79.00 32.39 Z" />
</g>
</svg>
