<?xml version="1.0" encoding="UTF-8" ?>
<!DOCTYPE svg PUBLIC "-//W3C//DTD SVG 1.1//EN" "http://www.w3.org/Graphics/SVG/1.1/DTD/svg11.dtd">
<svg width="106pt" height="101pt" viewBox="0 0 106 101" version="1.1" xmlns="http://www.w3.org/2000/svg">
<g id="#05c3f9ff">
<path fill="#05c3f9" opacity="1.00" d=" M 50.57 0.00 L 53.15 0.00 C 55.75 0.06 58.11 1.73 59.02 4.15 C 62.76 13.27 66.48 22.40 70.18 31.54 C 80.23 32.35 90.29 33.00 100.33 33.85 C 103.16 34.02 105.41 36.28 106.00 38.99 L 106.00 41.24 C 105.62 42.86 104.63 44.22 103.36 45.27 C 95.91 51.60 88.38 57.85 80.96 64.24 C 83.31 73.86 85.70 83.46 88.02 93.09 C 88.88 96.57 86.52 100.42 82.89 100.99 L 84.55 101.00 L 81.39 101.00 C 80.05 100.81 78.80 100.26 77.68 99.54 C 69.47 94.51 61.29 89.42 53.07 84.42 C 45.08 89.29 37.10 94.19 29.15 99.14 C 28.62 99.41 27.54 99.96 27.00 100.24 C 27.03 77.56 26.94 54.89 27.05 32.21 C 30.00 32.01 32.95 31.78 35.90 31.54 C 39.70 22.41 43.35 13.22 47.13 4.09 C 48.05 1.93 50.06 0.30 52.43 0.01 L 50.57 0.00 Z" />
</g>
<g id="#05c3f94d">
<path fill="#05c3f9" opacity="0.30" d=" M 6.02 33.84 C 13.02 33.15 20.04 32.82 27.05 32.21 C 26.94 54.89 27.03 77.56 27.00 100.24 C 27.54 99.96 28.62 99.41 29.15 99.14 C 28.27 99.60 26.50 100.53 25.62 101.00 L 22.68 101.00 C 19.80 100.03 17.42 97.21 17.98 94.04 C 20.08 84.05 22.91 74.21 25.08 64.23 C 19.38 59.12 13.39 54.33 7.58 49.34 C 4.89 46.91 1.56 44.96 0.00 41.54 L 0.00 39.11 C 0.75 36.33 3.05 34.02 6.02 33.84 Z" />
</g>
</svg>
