<?xml version="1.0" encoding="iso-8859-1"?>
<!-- Generator: Adobe Illustrator 17.1.0, SVG Export Plug-In . SVG Version: 6.00 Build 0)  -->
<!DOCTYPE svg PUBLIC "-//W3C//DTD SVG 1.1//EN" "http://www.w3.org/Graphics/SVG/1.1/DTD/svg11.dtd">
<svg version="1.1" id="Capa_1" xmlns="http://www.w3.org/2000/svg" xmlns:xlink="http://www.w3.org/1999/xlink" x="0px" y="0px"
	 viewBox="0 0 373.594 373.594" style="enable-background:new 0 0 373.594 373.594;" xml:space="preserve">
<path d="M164.457,204.033V317.24c0,16.581-11.915,30.07-26.56,30.07h-62.34c-25.126,0-45.357-10.809-58.506-31.256
	C5.896,298.709,0,274.433,0,245.85c0-44.863,14.085-95.803,37.678-136.263c27.228-46.694,62.819-72.41,100.219-72.41
	c14.645,0,26.56,13.489,26.56,30.07v30.902c0,5.522-4.477,10-10,10s-10-4.478-10-10V67.247c0-5.764-3.463-10.07-6.56-10.07
	c-40.465,0-69.334,39.148-82.942,62.484C33.394,156.638,20,204.99,20,245.85c0,24.739,4.797,45.274,13.873,59.388
	c9.418,14.646,23.443,22.073,41.684,22.073h62.34c3.096,0,6.56-4.307,6.56-10.07V204.033c0-5.522,4.477-10,10-10
	S164.457,198.511,164.457,204.033z M335.917,109.587c-27.228-46.694-62.818-72.41-100.218-72.41c-14.646,0-26.56,13.489-26.56,30.07
	v31.271c0,5.522,4.478,10,10,10s10-4.478,10-10V67.247c0-5.764,3.463-10.07,6.56-10.07c40.464,0,69.333,39.148,82.94,62.484
	c21.561,36.976,34.954,85.328,34.954,126.188c0,24.739-4.797,45.275-13.872,59.388c-9.419,14.647-23.444,22.074-41.686,22.074
	h-62.337c-3.097,0-6.56-4.307-6.56-10.07V202.554c0-5.522-4.478-10-10-10s-10,4.478-10,10V317.24c0,16.581,11.914,30.07,26.56,30.07
	h62.337c25.127,0,45.358-10.809,58.507-31.257c11.155-17.346,17.051-41.622,17.051-70.205
	C373.594,200.986,359.509,150.047,335.917,109.587z M242.787,230.923c0,5.522,4.478,10,10,10s10-4.478,10-10v-29.16l26.33,12.526
	c4.985,2.374,10.953,0.254,13.326-4.734c2.373-4.987,0.253-10.953-4.734-13.326l-38.902-18.508l-62.01-66.609V36.283
	c0-5.522-4.478-10-10-10c-5.523,0-10,4.478-10,10v74.828l-62.005,66.606l-38.908,18.511c-4.987,2.373-7.107,8.339-4.734,13.326
	c2.374,4.988,8.339,7.105,13.326,4.734l26.33-12.526v29.16c0,5.522,4.477,10,10,10s10-4.478,10-10v-41.055l55.991-60.146
	l55.99,60.144V230.923z"/>
<g>
</g>
<g>
</g>
<g>
</g>
<g>
</g>
<g>
</g>
<g>
</g>
<g>
</g>
<g>
</g>
<g>
</g>
<g>
</g>
<g>
</g>
<g>
</g>
<g>
</g>
<g>
</g>
<g>
</g>
</svg>
