<?xml version="1.0" encoding="utf-8"?>
<!-- Generator: Adobe Illustrator 19.0.0, SVG Export Plug-In . SVG Version: 6.00 Build 0)  -->
<svg version="1.1" id="Icons" xmlns="http://www.w3.org/2000/svg" xmlns:xlink="http://www.w3.org/1999/xlink" x="0px" y="0px"
	 viewBox="0 0 1000 1000" style="enable-background:new 0 0 1000 1000;" xml:space="preserve">
<style type="text/css">
	.st0{display:none;fill:#FFFFFF;}
	.st1{display:none;}
	.st2{display:inline;fill:#DC6A4E;}
	.st3{display:inline;fill:#C44029;}
	.st4{display:inline;fill:#F8FBFE;}
	.st5{fill:#81CDBF;}
	.st6{fill:#47BEA3;}
	.st7{fill:#FFFFFF;}
	.st8{display:inline;fill:#F6B54F;}
	.st9{display:inline;fill:#F48F27;}
	.st10{display:inline;fill:#FFFFFF;}
	.st11{display:inline;fill:#697277;}
	.st12{display:inline;fill:#40474B;}
	.st13{display:inline;fill:#6A7476;}
	.st14{display:inline;fill:#40474E;}
	.st15{display:inline;fill:#81CDBF;}
	.st16{display:inline;fill:#4BB9A3;}
	.st17{display:inline;fill:#36BBA3;}
	.st18{display:inline;fill:#33AA93;}
	.st19{display:inline;}
</style>
<rect id="Background" class="st0" width="1000" height="1000"/>
<g id="Heart" class="st1">
	<path id="XMLID_15_" class="st2" d="M201.8,134c0,6.2-0.6,12.2-1.9,18c-0.1,0.4-0.2,0.8-0.2,1.2c-7.5,33.4-34,59.6-67.6,66.6
		c-0.5,0.1-1,0.2-1.5,0.3c-5.3,1-10.8,1.5-16.5,1.5c-48.4,0-87.7-39.3-87.7-87.7c0-48.4,39.3-87.7,87.7-87.7
		C162.5,46.3,201.8,85.6,201.8,134z"/>
	<path id="XMLID_14_" class="st3" d="M199.9,152c-0.1,0.4-0.2,0.8-0.2,1.2c-7.5,33.4-34,59.6-67.6,66.6l-44.3-42.1L80,159.6
		l-1.9-5.4l-3.1-30l2.3-9.1l4.8-8.6l7.9-15.3L103.5,80l2.6-6l9.4,8.1l5.9-6.5L199.9,152z"/>
	<path id="XMLID_13_" class="st4" d="M93.8,138.6c0,0-0.6,3.3-1.9,4.4s-3.6,2.5-4.3,3.6s-1,2.6-1,2.6s-3.3,2.8-4.3,4.8
		s-2.4,5.6-2.4,5.6s3,10.9,8.4,16.5s12.1,11.6,16.5,13.5s14.9,4.4,21.4,3.9c6.5-0.5,12.6-2.1,13.7-2.5s1-1.5,1-1.5s-4-5.8-4.5-7.9
		s-1.9-8.6-2.1-11.3s-0.3-11.1-0.3-11.1s1.6,8.4,2.4,11s3,10.1,4.5,12.6c1.5,2.5,2.6,4.4,2.6,4.4s3.9,0.4,6.1-1s5.1-5,6.3-8.3
		s2-5.9,2-9.8s0.9-9.9,0-14.3s1-5-5.9-15.4s-29.7-12.4-29.7-12.4s12.6,0.3,19.9,3c7.3,2.8-4.4-10.8-4.4-10.8s-8.3-1.9-11.9-0.6
		c-3.6,1.3-8.3,3.6-10.1,6.4s-3.5,9.8-2.5,12.8s2,5.8,2,5.8s6.3,3.9,9,5.8s5.2,4.9,5.2,4.9s-5.9-2.6-9-4.3s-9.1-6-9.9-9.5
		s-1.1-9.6,0.1-12.1c1.3-2.5,3.6-6.6,6.8-9.1s9.1-3,9.1-3h12.7v-5.8c0,0-2.4-1.8-8-1.6c-5.6,0.1-9.4,0-9.4,0s-1.3-4.9-5.9-4.9
		s-6.6,5.4-6.6,5.4s-1.9,6.6-3.5,7.8s-8.9,11.9-8.9,11.9s-1-1.8-0.1-2.8s1-2.1,1-2.1s-0.5-3.5-2.8-5.1s-5.1-2.9-7-3.1
		s-6-0.1-8.4,0.9s-4.9,4.8-6,6.8s-2.3,10.4-2.1,13.5s1.8,9.2,3.4,12.2c1.6,3,2.9,5.9,2.9,5.9s5.4-6.9,7.5-8.9S93.8,138.6,93.8,138.6
		z"/>
	<path id="XMLID_12_" class="st4" d="M74.6,78.5c2.1,0.2,2.4,2,5.6,4c2.2,1.3,4.1,1.8,5.4,2.1c2.2,0.5,4.9,1.2,7.9,0.3
		c0.6-0.2,1.8-0.9,4.3-2.4c3.5-2.1,4.7-3,5.8-2.5c0.7,0.3,1,1.1,1.5,2.3c0.2,0.4,1.8,4.7,0.1,6.3c-1.1,1-2.5-0.1-5.1,0.5
		c-1.8,0.4-2.9,1.4-4.6,2.9c-1.5,1.3-4.2,3.7-6.1,7.8c-1,2.1-3.5,7.4-2.1,11.1c0.1,0.4,0.5,1.3,0.1,1.8c-0.6,0.8-2.2-0.3-4.3-0.1
		c-3.2,0.3-4.5,3.3-5.8,2.8c-0.5-0.2-0.6-0.8-0.8-3c-0.4-4.3-0.6-6.5-0.4-7.6c0.4-2.4,0.9-2,1.9-5.6c0.8-2.9,1.2-4.4,0.8-6.1
		c-0.1-0.4-0.8-3.1-3.3-4.9c-2.4-1.7-4.1-0.8-5.3-2.4c-0.9-1.3-0.7-3.3,0.1-4.6C71.3,79.4,73,78.4,74.6,78.5z"/>
	<path id="XMLID_11_" class="st4" d="M99.3,120.4c-0.9,0-0.7-2.8-3-4.5c-0.5-0.4-0.6-0.3-1.9-1.1c-0.6-0.4-2-1.3-2.6-1.9
		c-2-2-1-6.3-0.5-8.5c0.7-3.2,2.1-5.4,2.9-6.6c1.1-1.7,2.2-3.6,4.5-5.4c0.9-0.7,2.2-1.7,4.2-2.3c2.2-0.7,2.3-0.2,3.1-0.9
		c0.5-0.4,0.8-4.7,0.1-6.6c-0.5-1.4-2-2.4-3.1-4.9c-0.2-0.5-0.4-0.9-0.2-1.6l3.4-2c0.7,0.2,1,0.9,1.3,1.5c2.1,4.7,3.2,7,3.3,8.3
		c0.1,1.2,0.2,2.9,1.2,4.1c0.5,0.5,0.9,0.7,1.1,0.8c0,0,1.1,0.4,1.8-0.4c1.7-2,0.1-11.8,0.8-13.1c0.3-0.4,1.1-0.3,2.5-0.3
		c1.6,0,2.8,0,3.4,0.7c0.7,0.8,0,2.1-0.7,4.9c-0.7,3.1-1.1,5-0.4,6.8c0.8,1.9,2.2,1.7,5.5,4.5c1.2,1,3.3,2.9,4.8,5.7
		c0.9,1.7,1.5,5.8,1.3,8.7h-8.1c-1.2-1.1-0.8-2.1-2.2-3.5c-2-1.9-4.7-1.9-5.1-1.9c-2.7,0-4.6,1.6-5.6,2.5c-1.9,1.6-2.8,3.5-3.5,5
		c-1,2.1-0.5,2.1-1.4,3.6c-1.6,2.7-3.1,2.5-4.8,5.3C100,119,99.9,120.4,99.3,120.4z"/>
	<path id="XMLID_10_" class="st4" d="M89.9,78.7c0,0,2.2,3.4,2.8,3.6c0.5,0.2,4.2-0.5,4.5-0.8c0.4-0.2,0.2-1,0.2-1s-2-3.6-2.5-3.6
		s-4.3,0.8-4.5,1.1C90,78.4,89.9,78.7,89.9,78.7z"/>
</g>
<g id="Lungs">
	<path id="XMLID_140_" class="st5" d="M1000,500c0,27.8-2.3,55.1-6.7,81.6C954.4,818.9,748.3,1000,500,1000c-26.5,0-52.4-2.1-77.7-6
		C183,956.7,0,749.7,0,500C0,223.9,223.9,0,500,0C776.1,0,1000,223.9,1000,500z"/>
	<path id="XMLID_135_" class="st6" d="M993.3,581.6C954.4,818.9,748.3,1000,500,1000c-26.5,0-52.4-2.1-77.7-6L203.7,778.7
		l-31.9-235.9l43.3-115.5L408,214.2l68.9,53.7l-0.1-134.3h41l75.6,80.6l49,10.7L993.3,581.6z"/>
	<path id="XMLID_134_" class="st7" d="M455.8,323.9c-2,0-2.3,4.5-7.1,7.1c-0.6,0.3-4.2,2.3-6.4,1.2c-4.1-2-2.2-13.5-1.4-19.5
		c2.5-19.2,0.7-34.1-1.4-51.8c-2.2-18.2-3.4-28.3-11.4-38c-1.2-1.5-15.2-18-35.2-17.1c-9.6,0.4-17.8,6.6-34.2,19
		c-14.7,11.1-24.7,18.8-32.3,32.8c-5.3,9.7-3.7,12-8.6,22.3c-8.9,19-22.8,29.2-30.4,35.6c-24.8,20.7-36.8,44.5-49,64.2
		c-15.7,25.5-13,29.8-20,39c-0.8,1.1-3.3,4.2-3.3,8.6c0,5.6,4.2,9.9,5.7,11.4c26.4,26.5,103.1,35.6,103.1,35.6
		c47,7.8,66.5,8.8,89.4,8.6c47.4-0.6,58.2-7.9,59.4-13.3c2.9-13.3,2.3-45.1-1-63.7c-2-11.4-7.4-25.3-19-39.4
		c-9.9-12-15-11.5-37.1-31.4c-14.1-12.7-21.3-19.2-25.7-28.5c-7.1-15-5.1-29.2-3.8-39.9c1.2-10,2.4-18.2,9-22.8
		c6.4-4.4,14.2-3.1,15.7-2.9c2.3,0.4,10.6,1.8,14.7,9c5.4,9.3-0.2,21.5-1.9,21.4c-1.7-0.1,0.8-12.3-6.7-18.5
		c-3.2-2.6-8.3-4.3-11.9-2.4c-2.6,1.4-3.9,4.6-4.8,11.9c-1.1,9.6-2.2,17.7,1,28c3.3,10.8,9.4,18.5,14.7,25.2c3.4,4.3,4.8,5.2,8.1,10
		c6.9,9.9,5.3,11.9,10,16.6c6.6,6.8,10.9,4,17.1,11.4c4,4.7,4.2,8.2,7.1,8.6c2.9,0.3,4-3.1,10.9-8.6c6-4.7,9.1-5.2,9-7.1
		c-0.2-3.3-9.1-2.3-15.2-9C457.9,331.6,458.4,323.9,455.8,323.9z"/>
	<path id="XMLID_32_" class="st7" d="M210.8,442c0,0-39.4,79.4-33.7,92.2c2.2,5,24.4,30.2,27,33.1c32.3,37,29.1,33.4,49.1,51.5
		c18.9,17.2,11.7,10.5,79.8,63.2c16,12.4,50.9,35.3,57,35.2c27.5-0.4,45.8-36.8,58.5-60.8c13.4-25.3,17.5-45.7,24.2-79.8
		c7.2-36.7,18.3-93.1,2.4-100.3c-6.7-3-12,5.5-31.4,13.3c-22.2,9-41,8-68.9,6.7c-15.5-0.8-43.8-2.4-77.5-14.3
		C241.1,462.1,222.7,446.8,210.8,442z"/>
	<path id="XMLID_30_" class="st7" d="M171.8,542.8c-3.8,17.6-6.9,39.3-8.1,87c-0.1,3.1-0.7,26.4,3.8,57c4.5,30.6,8.9,43.7,15.1,64.2
		c3.4,11.2,11,26.2,21,27.7c9.8,1.4,18.3-6.9,38-15.8c10.1-4.6,17.7-6.4,32.8-10c21.5-5.1,33.4-5.3,46.1-7.1
		c11.5-1.7,63.8-17.8,64.6-23.3c0.5-3.3-26.1-14.4-66.1-37.1c0,0-38.1-21.6-73.2-55.1C195.2,581.6,171.8,542.8,171.8,542.8z"/>
	<path id="XMLID_23_" class="st7" d="M545.2,323.9c2,0,2.3,4.5,7.1,7.1c0.6,0.3,4.2,2.3,6.4,1.2c4.1-2,2.2-13.5,1.4-19.5
		c-2.5-19.2-0.7-34.1,1.4-51.8c2.2-18.2,3.4-28.3,11.4-38c1.2-1.5,15.2-18,35.2-17.1c9.6,0.4,17.8,6.6,34.2,19
		c14.7,11.1,24.7,18.8,32.3,32.8c5.3,9.7,3.7,12,8.6,22.3c8.9,19,22.8,29.2,30.4,35.6c24.8,20.7,36.8,44.5,49,64.2
		c15.7,25.5,13,29.8,20,39c0.8,1.1,3.3,4.2,3.3,8.6c0,5.6-4.2,9.9-5.7,11.4c-26.4,26.5-103.1,35.6-103.1,35.6
		c-47,7.8-66.5,8.8-89.4,8.6c-47.4-0.6-58.2-7.9-59.4-13.3c-2.9-13.3-2.3-45.1,1-63.7c2-11.4,7.4-25.3,19-39.4
		c9.9-12,15-11.5,37.1-31.4c14.1-12.7,21.3-19.2,25.7-28.5c7.1-15,5.1-29.2,3.8-39.9c-1.2-10-2.4-18.2-9-22.8
		c-6.4-4.4-14.2-3.1-15.7-2.9c-2.3,0.4-10.6,1.8-14.7,9c-5.4,9.3,0.2,21.5,1.9,21.4c1.7-0.1-0.8-12.3,6.7-18.5
		c3.2-2.6,8.3-4.3,11.9-2.4c2.6,1.4,3.9,4.6,4.8,11.9c1.1,9.6,2.2,17.7-1,28c-3.3,10.8-9.4,18.5-14.7,25.2c-3.4,4.3-4.8,5.2-8.1,10
		c-6.9,9.9-5.3,11.9-10,16.6c-6.6,6.8-10.9,4-17.1,11.4c-4,4.7-4.2,8.2-7.1,8.6c-2.9,0.3-4-3.1-10.9-8.6c-6-4.7-9.1-5.2-9-7.1
		c0.2-3.3,9.1-2.3,15.2-9C543.1,331.6,542.6,323.9,545.2,323.9z"/>
	<path id="XMLID_22_" class="st7" d="M790.2,442c0,0,39.4,79.4,33.7,92.2c-2.2,5-24.4,30.2-27,33.1c-32.3,37-29.1,33.4-49.1,51.5
		C729,636,736.2,629.4,668.1,682c-16,12.4-50.9,35.3-57,35.2c-27.5-0.4-45.8-36.8-58.5-60.8c-13.4-25.3-17.5-45.7-24.2-79.8
		c-7.2-36.7-18.3-93.1-2.4-100.3c6.7-3,12,5.5,31.4,13.3c22.2,9,41,8,68.9,6.7c15.5-0.8,43.8-2.4,77.5-14.3
		C759.9,462.1,778.3,446.8,790.2,442z"/>
	<path id="XMLID_21_" class="st7" d="M829.2,542.8c3.8,17.6,6.9,39.3,8.1,87c0.1,3.1,0.7,26.4-3.8,57c-4.5,30.6-8.9,43.7-15.1,64.2
		c-3.4,11.2-11,26.2-21,27.7c-9.8,1.4-18.3-6.9-38-15.8c-10.1-4.6-17.7-6.4-32.8-10c-21.5-5.1-33.4-5.3-46.1-7.1
		c-11.5-1.7-63.8-17.8-64.6-23.3c-0.5-3.3,26.1-14.4,66.1-37.1c0,0,38.1-21.6,73.2-55.1C805.8,581.6,829.2,542.8,829.2,542.8z"/>
	<path id="XMLID_7_" class="st7" d="M530.7,294.2c0,0-11.4,7.1-16.6,10c-5.2,2.9-18.1,4.3-22.8,3.3c-4.8-1-13.8-4.9-17.6-6.5
		c-3.8-1.6-7.1,0-10.5,6.8c-3.3,6.8-6.2,11.6-6.2,11.6s17.6,19.5,21.4,16.6c3.8-2.9,10.9-19.7,17.6-20.8
		c6.7-1.1,11.9,21.2,17.6,23.1c5.7,1.9,10,3.8,12.8,0c2.9-3.8,11.4-12.8,10.5-18.5C535.9,314.2,530.7,294.2,530.7,294.2z"/>
	<path id="XMLID_8_" class="st7" d="M517.8,265.2c0,0-6.7,4.8-15.7,5.2c-9,0.5-25.2-2.6-25.2-2.6s2.4,9.5,0,14.5s-4.5,11.9-4.5,11.9
		s9.5,4.3,22.7,3.8s32.4-5.9,32.4-5.9s-4-5.7-5.5-11.9S517.8,265.2,517.8,265.2z"/>
	<path id="XMLID_5_" class="st7" d="M509.7,233.9c0,0-4,3.8-9.7,4c-5.7,0.2-15.4-2-15.4-2l-5.2,2c0,0,3.1,5.7,1.2,10.7
		c-1.9,5-4.3,10.9-3.6,10.9s12.7,1.7,20,1.4s18-2.9,18-2.9s-3.8-5.9-4-10.7C510.7,242.6,509.7,233.9,509.7,233.9z"/>
	<path id="XMLID_3_" class="st7" d="M511.2,201.5c0,0-8.5,4.2-14.2,4.2c-5.7,0-20.1-4.2-20.1-4.2v21.9c0,0,10.9,3.3,19.1,3.3
		s15.3-3.3,15.3-3.3V201.5z"/>
	<path id="XMLID_18_" class="st7" d="M515,159.2v33.3c0,0-6.1,4.3-18,4.3s-20.1-4.8-20.1-4.8v-35.2c0,0,6.2,7.1,17.2,7.1
		S515,159.2,515,159.2z"/>
	<path id="XMLID_2_" class="st7" d="M517.8,133.6v14.3c-5.2,1.5-12.7,3.2-21.9,3c-7.8-0.2-14.3-1.6-19.1-3v-14.3H517.8z"/>
</g>
<g id="Liver" class="st1">
	<path id="XMLID_42_" class="st8" d="M604.7,134c0,4.9-0.4,9.7-1.2,14.3c-6.8,41.6-42.9,73.4-86.5,73.4c-4.4,0-8.7-0.3-12.9-1
		c-0.3,0-0.5-0.1-0.8-0.1c-41.9-6.5-74-42.8-74-86.6c0-48.4,39.3-87.7,87.7-87.7c47.8,0,86.7,38.3,87.6,85.8
		C604.7,132.8,604.7,133.4,604.7,134z"/>
	<path id="XMLID_40_" class="st9" d="M604.7,134c0,4.9-0.4,9.7-1.2,14.3c-6.8,41.6-42.9,73.4-86.5,73.4c-4.4,0-8.7-0.3-12.9-1
		l-46.8-48.2l8.8-23.8L525.7,98l13.4,8l6.6-1.1l16.2,7.8l25,3.9l17.8,15.5C604.7,132.8,604.7,133.4,604.7,134z"/>
	<path id="XMLID_25_" class="st10" d="M487.4,160.5c1,1.8-0.4,5.1-2.5,6.3c-1.8,1-3-0.2-6.3,0.5c-1.5,0.3-1.8,0.7-4.5,2
		c-3.1,1.5-5.5,2.6-8.3,3.3c-1.9,0.4-4.9,1.1-8.5,0c-1.9-0.6-4.8-1.5-6.3-4c-0.7-1.3-0.7-2.4-2-3.8c-1.3-1.3-2.2-1.2-2.5-2
		c-0.6-1.6,2.5-3.7,4.8-6c2.3-2.4,2.5-3.9,7.3-16c2.2-5.5,3.2-8.3,4-10c2.1-4.6,6-13.4,14-21.5c3.6-3.7,8.7-8.8,17.3-12
		c3.2-1.2,11.3-4.1,21.3-2c3.2,0.7,7.1,2.1,9.3,4.9c6.2,7.9,7.6,30.9,6.9,30.1c-3.4-3.7-7.8-4.3-7.8-4.3c0,0,5.9,2.3,7.6,8.1
		c0.6,2.2,0.6,6.9-0.3,7.5c-0.4,0.2-5.2-2.6-8-1.9c-1.6,0.4-3,2.5-3.7,5.6c-0.7,2.9-2.7,3.6-3.8,4c-3.2,1.3-6.4-1.1-8.5,0.3
		c-1.1,0.8-1.3,2.3-1.7,4.7c-0.5,2.9-1.9,4-3.3,4.5c-1.7,0.7-2.7-0.8-6.3-1.3c-2.1-0.2-2.7,0.2-5,0.3c-3.5,0.1-6.2-0.8-8.3-1.5
		c-7.2-2.4-10.9-7.1-11.3-6.8c-0.4,0.4,2.6,6.2,8.5,8.5C483.6,159.6,486.4,158.6,487.4,160.5z"/>
	<path id="XMLID_26_" class="st10" d="M530.9,144.6c-0.3,0.7-2.4-0.6-4.3,0.5c-1.6,1-2.2,3.3-2.3,3.6c-0.3,1.3,0,1.8-0.5,2.9
		c-0.6,1.1-1.6,1.7-1.9,1.9c-1.6,0.9-2.6,0.2-5,0.6c-2,0.4-3.4,1.3-3.8,1.5c-2.2,1.5-3.3,3.6-3.6,4.3c-0.8,1.5-0.6,2.1-1.5,3.1
		c-1,1.2-2.3,1.7-2.8,1.9c-2.8,1.1-4-0.4-7.5,0.4c-1.4,0.3-2.4,0.8-3.3,1.3c-2.3,1.1-2.6,1.9-5.3,3.6c-1.8,1.1-2.7,1.7-4.1,2
		c-0.5,0.1-2.7,0.5-5-0.4c-1.2-0.4-2.8-1.4-2.6-1.9c0.1-0.3,0.6-0.4,3.6-0.5c3.5-0.1,4.2-0.1,5.1-0.6c0.9-0.6,1.2-1.4,1.9-2.8
		c1.4-3.1,0.7-4.6,2-5.6c1-0.8,2.4-0.6,3.1-0.5c1.8,0.2,2.1,1.2,3.9,1.8c2.4,0.8,4.6,0.1,5.1-0.1c0.6-0.2,2.8-1,4-3.1
		c1.6-2.9-0.1-5.8,1.4-6.8c0.5-0.3,1.3-0.2,3,0c1.8,0.2,2.1,0.6,3.4,0.6c0.4,0,1.7,0,3-0.8c1.7-0.9,2.5-2.3,3.1-3.5
		c1.1-1.9,0.7-2.5,1.9-4c0.6-0.8,1.1-1.5,2.1-2c1.7-0.8,3.7-0.4,5,0.5C530.1,143.1,531.1,144.1,530.9,144.6z"/>
	<path id="XMLID_27_" class="st10" d="M543.6,103.6c-0.3-0.8-2.3,0.2-5.4-0.6c-0.9-0.2-2-0.9-4.4-2.1c-1.9-1-2.9-1.7-4.8-2.4
		c-2.7-1-3.2-0.7-3.4-0.5c-0.3,0.4-0.1,1.1,0,1.5c1.1,3.5,3.8,7.6,5,9.9c0.9,1.7,1.2,3.3,2,6.5c0.5,2.1,1.3,5.5,1.4,10
		c0.1,3.2-0.3,5.9,0.1,10.6c0.1,1.1,0.2,2.4,1.1,3.8c1.1,1.6,2.2,1.5,3.9,3c0.3,0.3,2.7,2.5,3.3,5.6c0.5,2.9,0.3,4.3,0.3,5.5
		l2.6-0.5c0.5-0.7,0.3-4.7-0.5-6.9c-0.6-1.7-1.3-3.6-3.1-5.3c-1.7-1.5-2.4-1.1-4-2.8c-0.5-0.5-2-2-2.5-4.5c-0.2-1.1-0.8-3.7,0.6-5.3
		c0.5-0.5,1.1-1,1.2-1.8c0-0.5-0.3-1-0.5-1.3c-0.4-0.6-0.8-0.9-0.9-1c-1.1-0.9-1.1-4.6-0.3-8.3c0.6-2.6,1-4.5,2.5-6.4
		c0.3-0.5,1.3-1.5,3.3-3.7C543.2,104.7,543.8,104.1,543.6,103.6z"/>
	<path id="XMLID_28_" class="st10" d="M545.7,104.9c-0.8,0.4-1.3,1-3.2,3.1c-1.4,1.5-2.1,2.2-2.4,2.7c-1.8,2.3-2.4,4.6-2.6,5.1
		c-0.2,0.8-0.9,3.2-0.3,6.2c0.2,1.1,0.4,2.3,1.1,2.5c1.2,0.3,2.9-3,3.2-2.8c0.1,0,0.2,0.3-1.2,3.2c-1.6,3.3-1.9,3.5-2.3,4.9
		c-0.7,2.4-0.3,4.4-0.3,4.8c0.3,1.3,0.5,2.9,1.8,4c0.5,0.4,1.3,0.9,2.9,1.1c2.8,0.4,5-0.2,6.6-0.6c9.4-2.4,8.9-2.2,10.3-2.7
		c3.9-1.4,5.8-2.1,7.3-3.3c1.8-1.5,2.3-2.6,5.3-4.8c1.4-1.1,1.8-1.2,2.2-1.8c1.6-2.9-1.6-7.1-1.1-7.4c0.3-0.2,2,1.2,2.3,3
		c0.2,1.3-0.5,2,0,2.8c0.5,0.7,1.5,0.8,2.1,0.8c2.7,0.2,5-1.7,5.9-2.5c1.2-1,3.6-3.1,3.8-6.3c0-0.6,0.2-2.9-1.2-3.8
		c-1.2-0.8-2.4,0.2-4.6,0c-1.8-0.1-2.7-1-5.3-2.6c-3.3-2.1-6.2-3.5-6.9-3.8c-2.5-1.1-2.9-0.8-12-1.8
		C552.6,104.2,547.5,104,545.7,104.9z"/>
	<path id="XMLID_29_" class="st10" d="M533.6,138.4c0.5,0,0.3,1.7,1.8,3.5c1.1,1.3,1.8,1.2,3.1,2.5c1.2,1.2,2.1,2.4,2.4,3.9
		c0.5,2.2,0.9,4.3,1.1,6.3l-3.3,0.2c0-1-0.2-1.7-0.7-4.1c-0.2-0.8-0.7-4.9-3-5.8c-0.9-0.3-1.3,0.1-1.8-0.3
		C533.2,144.6,533.2,138.4,533.6,138.4z"/>
</g>
<g id="Bladder" class="st1">
	<path id="XMLID_48_" class="st11" d="M803.6,134c0,4.9-0.4,9.7-1.2,14.3c-5.4,33-29.3,59.8-60.6,69.5c-8.2,2.5-16.9,3.9-25.9,3.9
		c-4.6,0-9.2-0.4-13.6-1.1c-42-6.5-74-42.8-74-86.6c0-48.4,39.3-87.7,87.7-87.7c45.4,0,82.8,34.6,87.2,78.8
		C803.5,128.1,803.6,131,803.6,134z"/>
	<path id="XMLID_46_" class="st12" d="M803.6,134c0,4.9-0.4,9.7-1.2,14.3c-5.4,33-29.3,59.8-60.6,69.5L713.4,188l-0.5-4.4l-28-30.1
		l-3.1-26l-3.8-6l-7.1-20.5l0.8-13.1l24.8,25.1l47.3,6.3l16.5-10.1L766,90l37.2,35.2C803.5,128.1,803.6,131,803.6,134z"/>
	<path id="XMLID_33_" class="st10" d="M721.7,174.3c-2.7,4.3-1.5,11.4-2.4,13.9c-0.2,0.4-0.9,0.4-0.9,0.4c-1.2,0.3-2.9,0.2-4-0.1
		c-0.7-0.1-0.9-0.2-1-0.5c-1-2.6,0.2-7.9-1.8-12.1c-1.2-2.6-3.9-4.7-6.1-6c-1.1-0.5-2.3-1.1-3.4-1.8c0,0,0,0,0,0c0,0,0,0,0,0
		c-13-7.4-26.3-22.6-26.3-33.6c0-15.1,21.5-27.3,40-27.3c18.2,0,40.3,12.2,40.3,27.3c0,10.8-13,25.7-26,33.2
		C724.8,171.1,722.7,172.6,721.7,174.3z"/>
	<path id="XMLID_34_" class="st10" d="M765.9,88.9c0.4,3.6,0.3,8.3-1.4,17.4c-0.6,3.1-1.4,4.7-1.9,5.8c-1.8,4.4-3.6,6.8-5.4,9.1
		c-1.8,2.3-2.5,3-2.8,2.6c-1.6-2.5-6.4-7.1-6.4-7.1c0-1.9,8.8-6,10-10c1.4-4.8,2.6-14.9,2.3-18.3L765.9,88.9z"/>
	<path id="XMLID_37_" class="st10" d="M666,88.9c-0.4,3.6-0.3,8.3,1.4,17.4c0.6,3.1,1.4,4.7,1.9,5.8c1.8,4.4,3.6,6.8,5.4,9.1
		c1.8,2.3,2.5,3,2.8,2.6c1.6-2.5,6.4-7.1,6.4-7.1c0-1.9-8.8-6-10-10c-1.4-4.8-2.6-14.9-2.3-18.3L666,88.9z"/>
</g>
<g id="Spleen" class="st1">
	<path id="XMLID_55_" class="st8" d="M201.8,384.4c0,4.9-0.4,9.7-1.2,14.3c-0.2,1-0.3,2-0.5,3c-7.4,37-38,65.5-76,69.8
		c-3.3,0.4-6.6,0.6-10,0.6c-4.6,0-9.2-0.4-13.6-1.1c-42-6.5-74-42.8-74-86.6c0-48.4,39.3-87.7,87.7-87.7
		C162.5,296.8,201.8,336,201.8,384.4z"/>
	<path id="XMLID_53_" class="st9" d="M200,401.7c-7.4,37-38,65.5-76,69.8l-55.7-55.4l7.3-3.6l14.8-15.3L87.6,381l-0.8-5.8l-4.5-13
		l7.3-27l42,9.5l8.9-1.5L200,401.7z"/>
	<path id="XMLID_69_" class="st10" d="M157.5,401.5c2.4-24.8-5.5-41.8-5.5-41.8c-7.1-15.3-19.5-23.1-21.7-24.5
		c-2.9-1.8-20.5-12.5-36.8-6.7c-2.3,0.8-7,2.6-10.8,7.2c-0.9,1-4.9,6-5.3,13.3c-0.3,4,0.7,6.9,2.2,11.5c1.1,3.5,3.4,9.3,4.8,9
		c1.3-0.3,0.2-4.7,2.5-5.8c0.5-0.3,2.9-2.2,10.8,5.8c4.5,4.5,10.4,10.5,15,20.8c1.6,3.6,5.1,11.8,5.2,22c0,3-0.3,6.8-0.5,6.8
		c-0.2,0-0.3-4.3-2.4-5.3c-6.7-3.2-7.4-5.6-8.3-5c-1.4,0.9,2.4,4.2,4.7,12.7c1.6,5.8,0.8,7.8,3.2,12.2c1,1.9,2.5,4.6,5.5,6.5
		c4.4,2.7,9.2,1.9,12.5,1.3c1.6-0.3,8.9-1.7,15-7.8c3.1-3.2,4.6-6.3,7.3-11.8c2-4,2.2-5.6,2.3-6.2c0.5-3-0.2-4.6,0-9.7
		C157.3,403.8,157.5,402.3,157.5,401.5z M104.8,356.3c-1.5-0.3-4.7-1-7.7-3.7c-3.8-3.3-4.7-7.4-5.2-9.2c-0.4-1.5-0.6-3.2-0.3-3.3
		c0.4-0.1,1.1,5,4.9,9.1c2.8,3,6,4.3,7.7,4.8c3.6,1.1,6.6,0.8,7.3,0.7c3-0.4,5.1-1.6,5.3-1.3c0.1,0.3-1.4,1.5-3.2,2.3
		C110,357.4,106.5,356.7,104.8,356.3z M128.3,376.3c-1.6-1.9-2.3-3.8-2.2-5.8c0-1.7,0.5-2.8-0.1-3.3c-0.5-0.5-1.2,0.2-2.7,0
		c-0.3,0-1.8-0.3-3.5-1.2c-0.8-0.4-2.6-1.4-3.9-3.3c-1.8-2.6-2-5.6-1.7-5.7c0.3-0.1,0.6,2,2.6,4.1c1.8,1.9,3.8,2.7,4.8,3.1
		c1.6,0.6,2.9,1.1,4.5,0.9c1-0.2,1.4-0.5,2.7-0.7c1.6-0.2,3.1,0.1,3.1,0.4c0,0.4-2.8,0.2-3.9,2c-0.5,0.8-0.5,1.5-0.4,2.3
		c0.1,2.6,1.4,4.5,2.4,5.8c1.1,1.5,2.6,3.6,5.4,4.8c2.7,1.2,5,0.8,5,1c0,0.2-3,1-6.1,0C131.4,379.7,129.6,377.9,128.3,376.3z
		 M144.1,411.9c-0.8,3-1.4,5.4-3.4,7.9c-2.7,3.3-6.3,5.1-6.6,4.8c-0.2-0.3,1.8-1.8,3.9-4.8c2.7-3.8,3.5-7.4,4.1-9.9
		c1.3-5.3,1.1-10,0.9-13.2c-1.1,0-4.5-0.9-6.6-3.6c-0.9-1.1-1.2-2.2-1.5-3.1c-1-3.1-0.3-6,0.2-7.9c0.2,2.4,0.4,4.3,0.9,5.6
		c0.6,1.7,1.6,4.5,4.1,6.8c1.2,1.1,2.3,1.7,2.9,2c-0.2-2.4-0.5-3.8-0.2-3.8c0.5-0.1,2.1,4.7,2.4,9.9
		C145.2,403.6,145.3,407.3,144.1,411.9z"/>
	<path id="XMLID_36_" class="st10" d="M88,366.5c-0.9,0.5-1.3,1.5-2.1,6.1c-0.7,4.1-1.1,6.2-1.1,7.4c0,3,0.5,3.2,0.9,8.1
		c0.3,3.5,0.4,5.2,0,7c-0.5,2.3-1.5,3.9-3.5,6.9c-2.3,3.5-3.3,5.2-5,6.5c-2.5,1.9-4.4,3.3-7,3.8c-0.7,0.1-1.8,0.2-2.3,1
		c-0.5,0.9,0,2.2,0.5,2.9c0.9,1.3,2.4,1.6,3.1,1.8c0.8,0.2,2.6,0.4,5-0.8c2.2-1,2.9-2.1,6-5.5c1.1-1.2,3-3,6.8-6.8
		c2.6-2.5,3.6-3.5,5.5-4.3c1.1-0.4,3-1.2,5.1-0.6c1.6,0.4,2.7,1.4,4.8,3.5c2.3,2.3,2.2,2.8,3.9,4.4c2,2,5.8,4.8,6.9,4
		c0.9-0.7,0.3-4.2-1.6-6.3c-1.4-1.5-2.8-1.5-4.3-3.6c-0.2-0.3-1.4-2-0.9-2.6c0.6-0.7,2.8,0.9,3.6,0.1c0.9-0.9-0.3-4.6-2.3-5
		c-0.6-0.1-0.8,0.1-2.3,0.6c-1.4,0.5-3.3,1.1-5.3,0.8c-0.8-0.1-2.4-0.4-2.9-1.5c-0.2-0.4-0.3-1.2,1.1-3.5c2.3-3.7,4.1-3.7,4.6-5.8
		c0.6-2.5-1.3-5.6-2.8-5.6c-1.1,0-1.9,1.7-2.9,3.8c-1.7,3.5-1.2,5-3,6.8c-0.5,0.5-1.7,1.7-3.1,1.5c-1.4-0.2-2.1-1.8-2.5-2.6
		c-0.1-0.3-1.3-3,0-5.5c0.6-1.1,1.4-1.6,3-2.6c3.8-2.4,5.8-2,6.1-3.4c0.4-1.6-1.9-4-3.3-3.8c-0.8,0.1-0.7,1-1.9,1.6
		c-1.1,0.6-2.9,0.9-3.9,0c-1.2-1.1-0.7-3.3-0.5-4.3c0.5-2.1,1.5-2.8,1.1-3.6C91.4,366.4,89.3,365.8,88,366.5z"/>
	<path id="XMLID_38_" class="st10" d="M106,387.3c-0.6,0.2-0.4,1.2-1.5,2.9c-0.9,1.3-1.7,1.7-1.5,2.1c0.2,0.5,1.8,0.4,3.6,0.3
		c1.7-0.2,2.6-0.2,2.8-0.7C110.2,390.6,107.2,386.9,106,387.3z"/>
	<path id="XMLID_39_" class="st10" d="M98.3,381.2c0.1,0.2-0.9,0.7-1.7,2.1c-0.8,1.6-0.6,3.3-0.8,3.3c-0.2,0,0-2.1-1.2-2.9
		c-0.5-0.4-1-0.2-1.1-0.4C93.4,382.5,98,380.7,98.3,381.2z"/>
	<path id="XMLID_41_" class="st10" d="M94.3,369.5c0.5-0.3,1.9,0.5,2,1.5c0.1,1.4-2.4,2.4-2.8,2.1c-0.2-0.2,0.2-0.5,0.4-1.8
		C94.2,370.1,94,369.7,94.3,369.5z"/>
	<path id="XMLID_43_" class="st10" d="M113.6,402.1c-0.2,0.3-1.5,0-1.6-0.7c-0.1-0.3,0.1-0.7,0.3-0.8
		C112.9,400.5,113.8,401.8,113.6,402.1z"/>
</g>
<g id="Large_x5F_intestine" class="st1">
	<path id="XMLID_73_" class="st13" d="M401.2,381.1c0,4.9-0.4,9.7-1.2,14.3c-0.2,1-0.3,2-0.5,3c-7.1,35.5-35.7,63.3-71.6,69.2
		c-1.5,0.2-2.9,0.4-4.4,0.6c-3.3,0.4-6.6,0.6-10,0.6c-4.6,0-9.2-0.4-13.6-1.1c-42-6.5-74-42.8-74-86.6c0-48.4,39.3-87.7,87.7-87.7
		c43.2,0,79.1,31.3,86.3,72.4C400.7,370.8,401.2,375.9,401.2,381.1z"/>
	<path id="XMLID_66_" class="st14" d="M401.2,381.1c0,4.9-0.4,9.7-1.2,14.3c-0.2,1-0.3,2-0.5,3c-7.1,35.5-35.7,63.3-71.6,69.2
		l-16.1-17.8l-3.3-4.1l-3.4-8.6l-40-39.4l-4.2-6.8l-0.9-9.8l-1.2-6.9l1.3-6.6l0.4-6.6l2.7-4.4l2-12.7l3.5-6.2l7.3-8.3l5.4,5.3
		l14.3-1.3l8,5.8l12.8,3l9-0.5l13.8-8.5l14.3-5.5l6.9,1.9l39.4,36.3C400.7,370.8,401.2,375.9,401.2,381.1z"/>
	<path id="XMLID_87_" class="st10" d="M347.2,351.5c1.1-0.5,2.8-1.3,5.5-1.7c2.7-0.3,4.2-0.5,5.8,0.3s1.9,1.9,3.2,2
		c1.3,0,2.3-1,3-1.8c1.5-1.5,1.9-3.3,2-4c0.2-0.7,0.5-2.9-0.4-5.3c-0.2-0.4-1.3-3.5-2.9-3.5c-0.2,0-0.2,0.1-1.4,0.7
		c-1.8,0.9-2.4,1-2.8,1.1c-0.3,0.1-1.7,0.4-1.8,0c-0.2-0.4,1.4-1.5,2.1-2c0.7-0.4,1.3-0.8,2.2-1c1.4-0.3,1.9,0.3,2.3-0.1
		c0.8-0.7-0.5-3.2-0.7-3.4c-0.8-1.5-1.9-2.4-2.9-3.1c-1.3-1-2.8-2.1-3.9-1.6c-0.6,0.3-0.9,0.8-1,1c-0.5,1.1,0.3,1.8,0,3.2
		c-0.2,0.8-0.7,1.7-1,1.6c-0.3,0-0.5-0.9-0.5-1.6c0-1.3,0.7-1.6,1-2.8c0-0.2,0.4-1.7-0.3-2.7c-1.4-1.9-6.1-0.5-6.4-0.4
		c-2.8,0.9-2.1,1.9-6.5,4.1c-0.7,0.4-1.7,0.8-1.7,1.5c0,0.8,1.2,1,1.9,2.2c1,1.6,0.4,3.8,0.1,3.8c-0.2,0-0.2-1.1-0.9-2.5
		c-0.2-0.4-0.9-1.7-2-2.4c-1.9-1.3-4.4-0.4-6,0.1c-1.5,0.5-4.2,1.4-4.9,3.7c-0.3,1.1-0.1,2.3-0.1,2.3c0.2,1.3,0.9,1.8,1.1,3.3
		c0.1,0.6,0,1.4-0.1,1.4c-0.2,0-0.4-0.8-1.1-2.4c-0.5-1.3-0.8-1.9-1.1-2.2c-1-0.8-2.6-0.4-4,0c-1.5,0.4-3,0.8-3.5,2
		c-0.3,0.7,0,1,0,2.9c0,1.5-0.2,3.3-0.4,3.3c-0.2,0-0.6-2-0.7-4c0-2,0.3-2.2,0-2.9c-0.8-1.8-3.8-2.4-6-1.9c-0.7,0.2-2.2,0.5-2.9,1.7
		c-0.5,0.9-0.1,1.5-0.6,3.5c-0.2,0.9-0.6,2.4-0.9,2.3c-0.3,0-0.4-1.3-0.3-2.5c0.1-1.2,0.5-1.6,0.7-2.8c0.2-0.9,0.3-1.8,0-2.7
		c-0.5-1.4-1.7-2.1-2.8-2.7c-1.2-0.7-3.1-1.8-4.5-1c-1.1,0.5-1.7,1.9-1.8,2.2c-0.3,0.8-0.3,1.3-0.9,2c-0.4,0.4-1,1-1.2,0.8
		c-0.3-0.2,0-1.2,0-1.3c0.4-1.1,1-1.4,1.6-2.5c0.3-0.6,0.7-1.3,0.6-1.9c-0.1-1.4-1.7-2.2-4.1-3.5c-1.9-1-2.8-1.5-3.9-1.3
		c-0.3,0-1.7,0.3-2.6,1.3c-0.6,0.7-0.8,1.4-1.7,1.8c-0.1,0-0.5,0.2-0.7,0c-0.2-0.3,0.4-1.2,0.4-1.3c0.8-1.3,1.8-1.2,1.9-1.8
		c0.2-0.9-2.2-2.1-3.7-2.7c-1-0.4-2.9-1.1-5.4-0.8c-2.3,0.3-3.8,1.2-4.9,1.9c-1,0.6-2.3,1.4-2.2,2.3c0.1,0.7,1,0.7,1.7,1.7
		c1,1.3,0.9,3.2,0.6,3.3c-0.2,0.1-0.6-0.6-1.4-2c-1-1.7-1-2-1.4-2.3c-1.1-0.6-3,0.4-4,1.6c-1.1,1.2-1.3,2.7-1.5,4.3
		c-0.2,1.8-0.4,2.7,0.1,3.8c0.4,1.1,1.9,2.1,4.7,4.1c1.4,1,2.1,1.5,3.3,2.1c1.6,0.8,2.5,1.4,4,1.7c1.5,0.3,2.8,0.3,2.8,0.5
		c0,0.2-0.8,0.4-1.3,0.5c-2.2,0.5-4.1-0.3-4.4-0.5c-2.3-1-2-2-4.4-3.3c-1.9-1-2.3-0.5-3.4-1.4c-2-1.6-1.6-4-2.6-4.1
		c-1.3-0.2-2.7,3.8-2.7,4c-0.2,0.5-1,2.7-0.5,5.6c0.2,1.4,0.3,2.2,0.9,2.9c1.6,2,5.6,0.9,5.6,1.3c0,0.2-1.3,0.6-2.8,0.6
		c-1.8,0-2.3-0.7-3.1-0.4c-1,0.4-1.3,1.9-1.7,3.5c-0.4,1.8-0.3,3.2-0.2,3.8c0.1,1,0.3,2.3,1.3,3.5c0.2,0.3,0.7,0.9,1.5,1.4
		c1.9,1.2,4,0.7,4,0.9c0,0.2-1.3,0.7-2.6,0.4c-1.3-0.3-1.5-1-2.5-1c-0.9,0-1.6,0.9-2.1,1.4c-1,1.2-1.3,2.6-1.4,3.5
		c-0.2,1.2-0.4,2.9,0.6,4.4c0.5,0.7,1.1,1.1,1.5,1.3c2.8,1.7,6.2,0.6,6.2,0.9c0,0.1-0.7,0.4-1.7,0.6c-2.1,0.3-2.7-0.5-4-0.3
		c-1.9,0.3-3.2,2.5-3.7,4.2c-0.4,1.7-0.1,3,0.1,3.8c0.5,1.8,1.8,3.8,2.6,3.6c0.3,0,0.3-0.3,1.1-1.1c0.5-0.5,0.9-0.9,1.4-1.1
		c1-0.5,2.5-0.4,2.8,0.3c0.1,0.3-0.1,0.8-0.4,1.1c-0.5,0.4-1.1,0.1-1.9,0.2c-1.2,0.1-2.3,1.1-2.7,2.1c-0.5,1.3,0.3,2.7,1,3.7
		c0.3,0.4,1.2,1.9,3.3,3c0.4,0.2,1.8,1,5.2,1.3c3.3,0.4,5.5,0.6,8.3-0.4c2.1-0.8,3.3-1.8,4.9-3.2c2-1.7,2-2.4,1.9-2.8
		c-0.1-0.2-0.2-0.3-1-0.8c-2-1.1-3.1-1.2-3.5-2.1c-0.1-0.3-0.2-0.8,0-1c0.3-0.3,1.2,0.4,1.8,0.8c1.9,1.3,2,2.3,2.9,2.4
		c0.7,0,1.3-0.7,2.2-1.8c1.1-1.3,2-2.5,2.3-4.3c0.1-0.5,0.4-3-1.1-5.3c-0.5-0.8-0.8-1.1-1.3-1.4c-1.6-0.8-3.5,0.3-5.8-0.3
		c-0.4-0.1-0.8-0.3-0.9-0.5c-0.1-0.4,0.5-0.8,0.5-0.8c1.3-0.9,3,0.8,5,0.2c1.3-0.4,2-1.5,2.3-1.9c1.5-2.3,0.4-5,0-5.8
		c-0.3-0.7-1.2-2.8-2.6-2.9c-0.6-0.1-0.8,0.2-2,0.6c-1.6,0.4-3.3,0.5-3.4,0.2c-0.1-0.2,0.7-0.7,1.4-1c1.8-0.7,2.8,0.1,3.8-0.6
		c0.4-0.3,0.5-0.9,0.8-2.1c0.2-1.1,0.6-2.9-0.2-4.7c-0.3-0.7-0.6-1.4-1.3-1.8c-0.6-0.3-1.4-0.3-2.6-0.2c-0.9,0.1-1.5,0.2-2.2-0.1
		c-0.2-0.1-0.5-0.3-0.5-0.5c-0.1-0.4,0.4-0.8,0.8-1c0.5-0.1,0.8,0.3,1.8,0.8c0.3,0.1,1.9,0.8,2.6,0.2c0.3-0.2,0.2-0.5,0.5-0.8
		c0.5-0.5,1-0.3,1.2-0.6c0.3-0.4-0.1-1.3-0.4-1.8c-0.6-1-1.3-0.9-2.6-1.9c-0.3-0.2-2-1.6-1.8-2.3c0.1-0.3,0.5-0.4,0.7-0.4
		c0.3,0,0.8,0.1,2.2,2.3c0.7,1.1,0.5,1.1,0.8,1.4c0.7,0.6,1.5,0.7,3.3,0.8c0.9,0,1.2,0,1.3-0.2c0.3-0.4-0.1-0.8-0.1-1.7
		c0.1-1.2,1.1-2.1,1.3-2.2c0.5-0.4,1.2-0.8,1.4-0.6c0.1,0.2-0.1,0.6-0.8,2c-0.6,1.2-0.9,1.8-1,2.2c-0.3,1.3,0.3,2.5,0.4,2.8
		c0.9,1.9,2.8,2.6,4,3.1c2.7,1,3-0.2,6.3,0.8c0.5,0.1,1.4,0.4,1.8,0c0.3-0.3,0-0.7,0-1.5c0-1.6,1.5-3,1.9-2.8
		c0.2,0.1,0.2,0.6,0.2,0.8c0,1.2-0.8,1.5-1,2.4c-0.2,0.9,0.4,1.8,1,2.5c1.2,1.6,2.9,2.1,3.4,2.3c1.8,0.5,3.3,0.2,4.9-0.2
		c1.8-0.4,2.8-0.6,3.3-1.4c1.2-1.8-0.5-4.9,0-5.1c0.2-0.1,0.5,0.2,0.6,0.5c0.8,1.1-0.4,2.4,0.1,4.3c0.1,0.3,0.3,1,0.8,1.6
		c1.1,1.1,2.8,1.1,3.9,1c0.8,0,3-0.2,5-1.8c0.8-0.7,1.5-1.3,1.7-2.3c0.1-1-0.5-1.6-0.4-3.2c0,0,0.1-1.3,0.4-1.3
		c0.2,0,0.5,0.7,0.6,1.2c0.2,1-0.1,1.4,0,2c0.2,0.8,1.2,1.3,1.9,1.6c2.4,1.1,4.8,0.4,5.4,0.2c1.1-0.4,2.6-0.8,3.2-2.1
		c0.4-0.9,0-1.3,0.5-2.6c0.2-0.4,0.5-1.4,1.4-2.2c0.9-0.8,2.2-1.2,2.3-1c0.1,0.2-0.8,0.8-1.8,2.2c-0.4,0.6-1.4,1.9-1.9,3.8
		c-0.4,1.5-0.3,2.8-0.2,4.2c0.1,1.8,0.3,2.7,0.9,3.5c0.5,0.5,1.1,0.8,2.2,1.3c1.5,0.6,2.6,0.9,2.6,0.9c0,0.1-1.8-0.6-3.9-0.1
		c-0.5,0.1-1.6,0.5-2.4,1.4c-1.2,1.4-1.1,3.1-1,3.9c0.1,0.9,0.2,2.7,1.6,3.7c0.9,0.6,2,0.6,2.5,0.6c1.4,0,2.3-0.5,2.7,0
		c0.2,0.2,0.2,0.6,0.1,0.8c-0.2,0.4-0.7,0.4-1.5,0.4c-2.5,0-2.5,0-2.8,0.1c-1.3,0.5-1.8,2.5-2,3.3c-0.1,0.3-0.6,2.9,1,5.4
		c0.3,0.5,0.8,1.3,1.7,1.8c1.8,1.1,3.9,0.5,3.9,0.7c0,0.2-1,0.7-2.2,0.8c-1.2,0.1-1.6-0.3-2.4-0.2c-1.3,0.2-2,1.6-2.3,2.2
		c-0.1,0.1-1,2.1-0.3,4.2c0.2,0.5,0.3,0.9,0.8,1.4c0.6,0.6,1.1,0.5,2.1,1.2c0.3,0.2,1.3,0.9,1.2,1.2c-0.1,0.3-0.7,0.4-1.2,0.2
		c-0.5-0.1-0.7-0.4-1.9-1.5c-0.7-0.6-0.8-0.7-1-0.8c-0.6-0.2-1.3,0.1-1.8,0.4c-0.7,0.3-1.8,0.9-2.2,1.9c-0.6,1.5,0.4,3.2-0.1,5
		c-0.1,0.3-0.2,0.6-0.4,0.6c-0.4,0.1-0.8-0.6-0.9-0.6c-0.9-1.3,0.7-2.7,0.3-4.6c-0.4-1.7-2.4-2.6-3.2-2.9c-1.7-0.7-3.2-0.6-4-0.5
		c-0.7,0.1-1.9,0.7-4.3,1.8c-0.5,0.2-1.2,0.6-1.4,1.2c-0.2,0.6,0,1.1,0.1,1.2c0.3,0.6,0.7,0.7,1.1,1.2c0.7,0.9,0.6,2.3,0.3,2.4
		c-0.2,0.1-0.7-0.7-1.5-2.1c-1.2-2.1-1.2-2.6-1.8-3.1c-1-0.8-2.3-0.8-3.4-0.8c-2.3,0.1-4,1.1-5,1.8c-2,1.3-3,2.8-3.8,3.9
		c-1.7,2.3-2.3,4.5-2.5,5.1c-0.7,2.4-0.6,4.3-0.6,5.7c0,0,0,1.3,0.6,2.9c0.2,0.7,0.4,0.9,0.6,1c0.3,0.2,1,0.2,2.4,0.2
		c0.8,0,1.1,0,1.3,0.2c0.1,0.2,0.1,0.6-0.2,0.8c-0.3,0.3-0.7,0.3-2.6,0c-1.1-0.2-1.3-0.2-1.5-0.1c-0.8,0.2-1.4,1.1-1.4,1.9
		c-0.1,0.8,0.5,1.5,0.8,2c0.1,0.1,0.9,1.6,2.4,4.6c0.2,0.5,1,2.2,2.4,5.6c0.4,0.9,0.9,2.1,1.3,3.7c0,0.2,0.3,0.7,0.2,0.8
		c-0.1,0.1-0.6-0.2-0.8-0.4c-0.9-0.8-0.8-1.9-1-2.9c-0.3-1.3-0.8-1.6-1.9-3.4c-2.3-3.7-2.5-7-3-6.9c-0.3,0.1-0.2,2-0.2,2.6
		c0.1,2.4,0.6,3.9,1.7,8c1.3,4.7,1.3,4.9,1.8,5.6c0.8,1.2,1.5,1.7,1.6,3c0.1,1.1-0.3,1.9,0.2,2.9c0.2,0.4,0.4,1,1,1.3
		c0.9,0.5,2,0,2.1-0.1c1.1-0.5,1.5-1.6,1.9-2.5c1.5-3.2,1.7-2.3,2.9-5.2c0.6-1.4,1.1-3.2,2.1-6.7c0.2-0.7,0.5-1.8,0.8-3.1
		c0.3-1,1.2-4.8,0.9-4.9c-0.1,0-0.3,0.5-0.6,1.2c-0.9,2.1-0.9,2.7-1.5,4.1c-0.4,0.9-0.9,1.6-1.8,3.2c-0.4,0.6,0-0.1-1.7,2.2
		c-0.2,0.3-0.5,0.7-0.7,0.6c-0.2-0.1-0.2-0.5-0.1-0.8c0.2-0.8,0.9-1.4,1.2-1.5c0.9-0.7,1.4-2,2.6-4.6c1.2-2.8,0.6-2.9,1.6-4.2
		c0.5-0.7,1.2-1.4,1.7-2.6c0.2-0.6,0.4-1.2,0.1-1.8c-0.1-0.3-0.5-0.8-2.2-1.1c-2.6-0.6-4.6,0.1-4.7-0.3c-0.1-0.2,0.5-0.7,1.2-0.9
		c1.5-0.5,2.7,0.6,3.8-0.1c0.3-0.2,0.4-0.4,0.6-0.6c0.7-1,0.4-1.9,0.6-3.6c0.1-1.2,0.5-2.7,0.8-2.7c0.2,0,0.6,1.3,0.4,2.6
		s-0.8,1.7-0.8,3.3c0,0.7,0.1,1.1,0.3,1.4c0.3,0.4,0.6,0.4,1.2,0.7c0.7,0.4,1,0.8,1.2,1c1.4,1.4,5.6,0.4,6.9,0.1
		c3.1-0.7,3.7-1.6,3.8-1.9c0.3-0.5,0.3-1,0.4-2c0.1-1.9-0.4-2.7,0.1-3.9c0.2-0.5,0.6-1,0.8-1c0.2,0.1-0.2,1.4-0.3,3.4
		c-0.1,1.3-0.1,2,0.2,2.8c0.5,1.7,1.9,2.6,2.5,3c1.6,1.1,3.3,1.2,4.3,1.3c1.4,0.1,3.2,0.2,5-0.8c0.8-0.5,1.7-1.5,3.6-3.5
		c0.2-0.2,0.5-0.3,0.7-0.7c0.4-1.1-1.1-2.6-2.3-3.5c-1.4-1-2.6-1.2-2.6-1.4c0-0.2,1.4-0.3,2.6,0.2c1.2,0.5,2,1.6,2.3,2
		c0.6,0.8,0.5,1,0.8,1.2c1.3,0.7,3.9-1.5,4.6-2.2c1.3-1.2,2-2.2,3.1-4c0.8-1.2,1.3-2.3,1.4-3.7c0.1-1-0.2-1.5-0.3-1.7
		c-0.4-0.5-1.1-0.7-2.1-0.8c-1.4-0.3-2-0.1-2.4-0.5c-0.4-0.4-0.5-1-0.3-1.2c0.1-0.1,0.3-0.2,2.1,0.7c1.6,0.8,1.8,1,2.5,1.1
		c0.2,0,1.2,0.2,2.1-0.3c0.4-0.3,1.1-0.8,1.6-3.4c0.4-1.8,1-4.6-0.1-7.4c-0.5-1.3-1.1-2.1-1.5-2.4c-0.4-0.4-0.7-0.8-1.3-1
		c-0.7-0.3-1.4-0.3-2.8-0.2c-1.5,0.1-2,0.2-2.7-0.2c-0.1-0.1-0.7-0.4-0.7-0.8c0-0.4,0.8-0.7,1.3-0.8c1.3-0.2,1.8,0.5,3,0.3
		c0.8-0.1,1.3-0.5,1.5-0.7c0.3-0.3,0.9-0.9,1.4-3.1c0.6-3.2,0-5.2-0.3-5.9c-0.4-1.2-0.8-1.6-1.2-1.8c-0.6-0.3-1-0.1-2.3,0
		c-1.2,0-3-0.1-3-0.5c0-0.3,0.8-0.7,1.3-0.8c1.4-0.5,2.1,0.4,3.4,0.1c0.8-0.2,1.3-0.6,1.5-0.8c2.1-1.7,2.1-6.1,0-8.4
		c-0.2-0.3-0.8-0.8-1.6-1.2c-2.1-0.9-4.3,0.1-4.5-0.4c-0.1-0.3,0.3-0.7,0.7-0.9c0.8-0.5,1.6,0,3,0.1c0.4,0,1.6,0.1,2.6-0.4
		c1.5-0.8,1.9-2.7,2.2-4.2c0.3-1.6,0.8-3.7-0.4-5.7c-0.8-1.3-1.9-1.9-3-2.6c-0.6-0.4-1.9-1-3.6-1.3c-0.9-0.2-1.9-0.2-5.9,0.3
		c-3.7,0.5-5.7,1-5.8,0.8C345.7,352.2,346.6,351.8,347.2,351.5z M273.9,387.1c-1-0.6-1.4-1.5-1.5-1.8c-0.9-1.9-0.3-3.8-0.3-4
		c0.5-1.4,1.2-1.8,1-2.7c-0.1-0.6,0-0.5-0.5-1.1c-0.3-0.4-1.1-1.2-1.2-3c-0.2-3.4-0.2-5,0.3-6.4c0.4-1.1,1.2-1.5,1-2.3
		c-0.1-0.4-0.4-0.5-0.7-0.8c-0.7-0.9-1.1-3.9-0.7-5.1c0.4-1.2,0.7-1,1-2.2c0.4-1.8-0.3-2.5-0.3-4.4c0.1-2.4,1.3-4.2,1.5-4.2
		c0.1,0-1.1,1.9-0.7,4.4c0.1,0.7,0.5,2.6,0.4,3.8c-0.2,1.5-0.7,1.4-0.9,2.8c-0.1,0.6-0.3,2.9,1,4.3c0.3,0.3,0.7,0.6,0.7,1.2
		c0,0.4-0.3,0.7-0.5,1c-0.5,0.6-0.9,1.3-1.3,2c-0.7,1.5-0.5,5.1,0.2,7.3c0.4,1.3,1.5,2.1,1.6,2.8c0.1,0.5-0.3,0.5-0.7,1.3
		c-0.6,1.3-0.6,2.6-0.5,3.1c0,0.7,0.1,2,1,3.1c1,1.3,2.4,1.5,2.3,1.7C276,387.8,274.9,387.7,273.9,387.1z M347.6,401.4
		c-0.1-0.7,0-1.3-0.1-2c-0.1-2-0.2-3.2,0.1-4.5c0.3-1.5,0.6-2.9,1.7-3.9c0.2-0.2,0.6-0.6,0.6-1.1c0-0.6-0.5-1-1-1.5
		c-0.6-0.7-0.7-1.5-0.9-3c-0.3-2.1,0.1-3.7,0.3-4.4c0.4-1.4,0.5-2,1-2.5c0.1-0.1,0.4-0.3,0.4-0.6c0-0.4-0.6-0.7-1-1.1
		c-0.6-0.6-0.7-1.3-0.8-2.2c-0.3-1.7,0-4,1.3-5.1c0.4-0.4,0.8-0.8,1.2-1.2c0.6-0.5,0.9-0.7,0.9-1c0-0.4-0.4-0.6-0.8-1
		c-0.8-0.8-1-1.8-1.2-2.5c-0.3-1.3,0.1-2.4,0.6-3.8c0.7-2,1.9-3.6,2-3.5c0.1,0-0.5,1-1,2.6c-0.4,1.5-0.9,3.1-0.4,5.1
		c0.3,1,0.5,1.8,1.2,2.4c0.4,0.3,0.8,0.5,0.9,0.8c0.1,0.4-0.3,0.8-0.7,1.1c0,0-0.7,0.7-1.8,2.5c-0.3,0.5-1.1,1.9-0.9,3.6
		c0.1,0.6,0.2,1.6,1,2.4c0.6,0.6,1.3,0.7,1.4,1.1c0,0.4-0.5,0.6-1.1,1.3c-0.5,0.6-0.6,1.1-0.8,2.1c-0.5,1.9-0.9,3.4-0.4,5.2
		c0.3,1.2,0.6,2,1.3,2.7c0.3,0.3,0.8,0.6,0.8,1c0,0.4-0.4,0.7-0.7,1.1c-0.4,0.5-0.7,1.2-1.3,2.5c-1,2.4-0.7,5.1-0.6,5.5
		c0.2,1.1,0.8,2.4,0.1,3.4c-0.2,0.2-0.5,0.4-1.2,0.9c-1.2,0.8-2.3,1.3-2.7,1.5c-2.3,1.1-2,0.9-2.6,1.2c-1,0.6-2.7,1.8-4.2,3.2
		c-0.3,0.3-0.8,0.8-1.7,1.1c-0.1,0-0.6,0.1-1.2,0.1c-0.8-0.1-1.4-0.5-1.7-0.6c-0.8-0.5-2-0.6-4.4-0.8c-1.9-0.2-3-0.3-4.2,0.1
		c-0.9,0.3-1.6,0.5-1.6,0.5c-1,0.3-1,0.4-1.4,0.5c-0.9,0.1-1.6-0.1-2.1-0.2c-0.3-0.1-0.3-0.1-1.3-0.5c-2-0.8-2.3-0.9-2.6-0.9
		c-0.8,0-1.3,0.3-1.6,0.5c-0.7,0.4-1.2,1-2.1,2.3c-0.7,1-1,1.5-1.3,2.1c-0.6,1.4-0.6,2.5-0.7,2.5c-0.2,0-0.4-1.2-0.2-2.4
		c0.3-2,1.4-3.5,1.8-3.9c0.5-0.6,1.7-2.1,3.6-2.4c0.3,0,0.8-0.1,1.4,0c0.7,0.1,0.9,0.3,2.6,1.2c1,0.5,1.3,0.6,1.8,0.7
		c0.7,0.1,1.2,0.1,1.3,0.1c0.8-0.1,1.3-0.4,1.9-0.8c0,0,1-0.5,2.5-0.8c2.1-0.5,4,0.1,4.7,0.3c1.8,0.5,3.3,1.2,3.3,1.2
		c0.5,0.2,1.3,0.5,1.9,0.2c0.3-0.1,0.4-0.3,0.8-0.8c0,0,0.3-0.3,1.3-1.2c1.1-1,2.8-1.8,3.6-2.3c2.5-1.3,3.8-2,4-2
		c0.3-0.1,1-0.3,1.2-0.8C347.7,402.3,347.6,402,347.6,401.4z M345.4,342c-1.4,1.5-1.5,3.1-2.4,3.1c-0.4,0-0.5-0.3-1.3-0.8
		c-1.1-0.7-2.2-0.7-2.9-0.7c-1.9,0-3.3,0.7-4,1.1c-0.6,0.3-2.1,1.2-3.1,2.9c-0.7,1.2-0.7,2-1.4,2.3c-0.6,0.3-1.1-0.1-2.5-0.4
		c-0.1,0-1.5-0.3-3-0.2c-1.2,0.1-2.5,0.2-3.9,1c-1.3,0.8-1.7,1.8-2.7,1.8c-0.5,0-0.8-0.2-1.2-0.5c0,0-1.5-0.9-3.7-1.4
		c-1.9-0.5-4-0.2-5.2-0.1c-1,0.1-1.2,0.2-1.8,0.1c-1.3-0.4-1.4-1.6-2.6-2.8c-1.4-1.4-3.3-1.7-3.9-1.8c-2.3-0.3-3.6,0.7-4.9-0.3
		c-0.3-0.2-0.1-0.2-1-1.2c-1.3-1.5-2.1-2.4-3.3-3c-0.5-0.3-1-0.3-2-0.5c-1.5-0.2-2.9-0.3-5.9-0.2c-3.1,0.1-3.6,0.2-4.4-0.2
		c-1.6-0.8-2.4-2.5-2.3-2.6c0,0,0.7,1.2,2,1.8c0.9,0.4,1.8,0.3,2.2,0.2c1.1-0.1,4.9-0.6,7.9-0.2c1.9,0.3,3.5,0.5,4.7,1.8
		c1,1.1,0.9,2.2,2.1,2.8c0.9,0.5,1.5,0.1,3.2,0.1c1.3,0,2.8,0,4.1,0.8c2.1,1.1,2,3.1,4.3,3.9c0.5,0.2,0.8,0.2,1.5,0.3
		c3,0.4,3.8-0.8,5.6-0.4c2.2,0.5,2.8,2.7,4.3,2.3c0.5-0.1,0.5-0.4,1.4-1c1.2-0.8,2.4-1.2,2.9-1.3c1.6-0.5,3.5-1.1,5.2-0.3
		c0.8,0.4,1.3,1,1.8,0.8c0.4-0.2,0.4-0.7,0.5-1.3c0.3-1.1,0.9-1.8,2-2.9c0.8-0.8,2.6-2.5,5.3-2.8c1.2-0.1,2.9-0.3,4.2,0.7
		c0.3,0.3,0.9,0.8,1.4,0.6c0.4-0.1,0.6-0.7,0.6-0.8c0.5-1.6,2.4-2.8,3.3-3.2c2.2-0.9,6.9,0.3,6.9,0.4c0,0.1-2.2-0.8-4.9,0
		C348,340.3,346.6,340.7,345.4,342z"/>
	<path id="XMLID_54_" class="st10" d="M291.8,410c-0.5,0.1-1.1-0.9-1.4-1.7c-0.3-0.7-0.3-1.2-0.3-1.5c0-4.1-0.1-2.9,0-4.5
		c0.1-1.5,0.2-2.4,0-3.7c-0.1-0.5-0.2-1.3-0.8-1.8c-0.3-0.3-0.6-0.4-0.8-0.6c-1.1-0.6-2-0.4-2.1-0.8c-0.1-0.2,0.3-0.3,0.7-0.9
		c0.5-0.8,0.3-1.4,0.7-1.6c0.2-0.1,0.6-0.1,1.4,0.3c2,1.3,2.9,3.5,2.9,3.5c0.5,1.3,0.6,2.2,0.5,5.9
		C292.4,409.4,292.1,409.9,291.8,410z"/>
</g>
<g id="Small_x5F_intestine" class="st1">
	<path id="XMLID_99_" class="st2" d="M604.7,384.4c0,4.9-0.4,9.7-1.2,14.3c-6.5,39.9-40,70.7-81,73.2c-1.8,0.1-3.6,0.2-5.5,0.2
		c-4.6,0-9.2-0.4-13.6-1.1c-41.9-6.5-74-42.8-74-86.6c0-48.4,39.3-87.7,87.7-87.7c46.1,0,84,35.7,87.4,80.9
		C604.6,379.9,604.7,382.2,604.7,384.4z"/>
	<path id="XMLID_97_" class="st3" d="M604.7,384.4c0,4.9-0.4,9.7-1.2,14.3c-6.5,39.9-40,70.7-81,73.2l-19-19.8l-3.7-4.1l-8.6-11.1
		l-8.7-10.3l-13.6-13.6l1.6-9.1l-1.8-5.8l-1.2-6.7l6.2-6.2l-1.3-3l-3.1-3.4l-3.5-9l-1.8-8.4l13.5-2.5l16.6,3.7l9.9-2.8l-9.2-8
		l-5.1-15.9l4-17.6l2.3-1.2l4.1,1.4l15.8,17l4.8-0.7l14.7-6l26.1,22l8.2-1.3l3.4-0.5l31,28.4C604.6,379.9,604.7,382.2,604.7,384.4z"
		/>
	<path id="XMLID_45_" class="st10" d="M497.9,327c-0.1,0.3-2.4,1.6-3.7,3.2c-1,1.2-1,2.7-1,3.8c0,3.8,2.8,6.5,3.7,7.3
		c0.8,0.8,2.6,2.4,5.5,3c0.6,0.1,3.4,0.6,6.3-0.7c2.1-0.9,2.7-2.1,7.5-8c3.5-4.3,4.3-5.1,5.3-6c2.2-1.8,4.1-3.3,7-3.5
		c0.3,0,4.4-0.2,7.2,2.8c2,2.2,2.2,4.7,2.5,8c0.3,4-0.2,8.5-0.5,10.5c-0.2,1.9-0.5,3.4,0.2,5.3c0.2,0.4,0.9,2.3,2.8,3.7
		c0.7,0.5,1.9,1.3,3.2,1c1-0.3,1.5-1.2,2.2-2.3c0.7-1.2,2.6-4.2,4.8-5.7c1.9-1.2,5.1-1.9,7.3-0.3c0.1,0.1,1.9,1.4,2.2,3.5
		c0.1,1.2-0.3,1.9-1.5,4.5c0,0-0.6,1.3-2.5,5.8c-1.5,3.5-1.7,5.8-2.2,5.8c-0.6-0.1-0.6-3.5-0.6-3.9c0-0.4,0-0.9,0.3-1.5
		c0.3-0.6,0.7-0.8,1.1-1.1c0.7-0.6,0.9-1.7,1.3-4.1c0.4-2.1,0.3-2.7,0-3.3c-0.1-0.1-0.5-0.8-0.9-0.8c-0.6,0.1-0.9,1.2-1,1.7
		c-0.5,1.8,0.1,2.4-0.3,3.8c-0.1,0.2-0.6,2.2-1.8,2.5c-1,0.3-1.7-0.9-3.5-2c-2-1.2-4-1.3-5.3-1.4c-1.2-0.1-4.2-0.3-7,1.3
		c-0.7,0.4-1.8,1.1-3.6,1.8c-1.4,0.6-1.9,0.6-2.2,0.6c-1.6-0.1-2.7-1.4-3.4-2.2c-0.8-1-1.9-2.6-2.5-5.5c-0.8-3.9-0.1-7.2,0.4-9.7
		c0.5-2.4,1.8-3.6,2.4-7c0.2-0.9,0.6-3,0-3.3c-0.5-0.2-1.4,1.1-1.8,1.7c-1.5,2.1-1.9,3.7-2.4,5.1c-0.8,2-1.9,3.1-4.1,5.5
		c-1.6,1.7-3.6,3.9-6.8,5.4c-5.7,2.8-11.4,1.6-12.9,1.3c-1.7-0.4-6.7-1.8-10.8-6.3c-3-3.3-4-6.8-4.6-8.9c-0.7-2.6-1.5-5.3-0.8-8.7
		c0.7-3.2,2.4-5.1,4.3-7.5c0.6-0.7,3.4-4,7.3-5.4c1.1-0.4,2.2-0.6,3.2-0.2c0.8,0.4,1.2,1.1,1.8,2c0.9,1.6,1,2.9,1.1,4.1
		c0.1,1.3,0.1,2-0.3,2.4c-0.6,0.6-1.7,0.3-2.3,0.1c-0.9-0.4-1.3-1.1-1.6-1.6c-0.2-0.3-1-1.7-0.8-3.3c0.1-0.7,0.4-1.2,0.2-2.1
		c-0.1-0.3-0.1-0.9-0.4-1c-0.3-0.1-0.7,0.5-0.8,0.7c-0.6,0.9-0.7,1.8-0.7,2.5c0,1.3-0.1,2.6,0.8,3.6c0.8,1,1.9,1,2.3,2.3
		C497.8,326.5,497.9,326.7,497.9,327z"/>
	<path id="XMLID_57_" class="st10" d="M564.1,349.5c-0.1-0.4,1.7-1.4,3.6-1.8c1.2-0.3,2.3-0.5,3.4-0.2c1.9,0.6,3.3,2.7,3.5,4.7
		c0.2,2.1-1.3,4.1-4.3,8c-1.7,2.2-1.9,2.1-3.8,4.7c-2.3,3-3.5,4.5-4.1,6.3c-0.5,1.5-0.5,3.3-0.6,6.9c-0.1,5.5,0.4,6-0.3,8
		c-0.6,1.7-1.7,2.9-3.8,5.3c-2.1,2.3-3.5,3.9-5.9,5.2c-1.7,0.9-4,2.2-6.8,1.7c-0.6-0.1-3.4-0.6-4.7-2.9c-0.9-1.6-0.6-3.2-0.4-4.7
		c0.3-2.3,1-2.7,2.2-6c0.4-1.1,1-3.1,1.4-5.5c0.5-2.9,0.4-4.9,0.1-6.8c-0.5-2.5-1.3-3-1.6-3.2c-0.7-0.3-1.4-0.1-1.9-0.7
		c-0.3-0.4-0.4-0.8-0.4-1.5c-0.1-1.1,0.2-1.4,0.1-2.2c-0.1-0.7-0.6-1.6-1-1.6c-0.5,0-1.1,1.4-1.1,2.6c0,1.4,0.6,2,0.3,2.7
		c-0.4,0.6-1.5,0.9-2.1,0.5c-0.5-0.4-0.2-1-0.7-2c-0.6-1.4-1.8-1.6-1.8-2.4c0-0.3,0.1-0.9,1.4-1.7c2.4-1.5,5.2-1.6,6.2-1.6
		c3,0,6.2,0.1,8.7,2.4c2.1,2,2.6,4.5,2.8,5.8c0.5,2.8,0,4.9-0.9,8.3c-0.9,3.4-2.1,6-2.8,7.4c-0.2,0.5-1.5,1.6-1.9,3.5
		c-0.1,0.5-0.3,1.5,0.2,1.8c0.6,0.4,1.7-0.2,1.8-0.3c1.5-0.8,2.1-2.5,2.4-3.5c1.7-5.1,2.1-7.5,2.1-7.5c0.8-4.8,0.5-5.5,1.3-8.2
		c0.7-2.7,2.1-5.2,2.3-5.8c2.5-4.6,4-7.6,4.5-9.3c0.2-0.7,0.5-1.3,0.7-2c0.1-0.6,0.2-0.9,0.5-1.2c0.3-0.3,0.7-0.2,1.3-0.2
		c1,0,1.7-0.2,2.6-0.5c0.7-0.2,1.5-0.4,2.3-1c0.1-0.1,1.4-1.1,1.2-1.5c-0.2-0.4-1.2,0-3.5,0C565.1,349.8,564.2,349.8,564.1,349.5z"
		/>
	<path id="XMLID_58_" class="st10" d="M566.2,369.8c-0.7-0.1-1.5,2.4-1.6,2.7c-0.8,2.4-0.4,4-0.3,6.9c0.1,2.8,0.1,4.7-0.5,7.1
		c-0.7,2.8-2.1,4.8-2.8,5.9c-1.3,1.9-1.9,2.9-3.3,3.6c-1.9,1.1-2.8,1.5-2.8,1.5c-1,0.5-1.6,0.7-1.6,1c0,0.3,0.7,0.5,2.1,1
		c1.8,0.6,2.7,0.9,3.2,1.3c1.8,1.1,2.2,2.9,2.7,2.8c0.4-0.1,0-1.3,0.5-2.8c0.4-1,0.9-1.6,1.3-2.1c0.5-0.6,1.6-2.5,3.9-6.4
		c1.8-3.1,2.7-4.6,2.9-5.3c1-3.3,0.1-6.2-0.2-7.3c-0.6-2.2-1.1-2-2-4.9C566.8,371.7,566.8,369.9,566.2,369.8z"/>
	<path id="XMLID_59_" class="st10" d="M522.2,359c-1.1,0-3.3,0.4-5.7,0.5c-2.3,0.1-3.8,0.4-7,0.5c-5.1,0.1-5.7-0.5-9.4,0
		c-1.8,0.2-1.9,0.4-4.3,0.7c-3.6,0.4-5.9,0.3-5.9,0.6c0,0.3,1.8,0.3,4.4,1.4c2.5,1.1,2.8,1.9,4.7,2.2c0.8,0.1,2,0.3,3.4-0.2
		c0.8-0.2,1.5-0.6,2.6-0.6c0.4,0,1.3,0,1.5,0.5c0.2,0.5-0.6,1.2-1.3,1.6c-1.5,0.9-3,0.2-3.3,0.8c-0.4,0.8,1.3,3.2,2.4,3
		c0.6-0.1,0.6-0.9,1.3-2c0.9-1.2,2-1.8,3-2.3c1.7-0.9,3-0.9,6.7-1.2c5.6-0.4,3.9-0.5,8.6-0.8c3.4-0.2,5.2-0.3,5.3-0.8
		c0-0.3-0.7-0.6-2.7-1.7C523.4,359.5,522.7,359,522.2,359z"/>
	<path id="XMLID_61_" class="st10" d="M534.9,371.8c0.2-0.2,0.9-1,2.1-1.4c0.2-0.1,1.9-0.5,3,0.4c0.6,0.5,0.9,1.3,1,2.6
		c0.3,2.7-0.1,5-0.4,6.5c-0.5,2.4-1.1,4-1.8,5.8c-1,2.6-1.5,4-2.5,4.8c-1.2,1-2.6,1.1-4.5,1.3c-2.2,0.2-4.3,0.4-6.4-0.9
		c-2.3-1.4-3.1-3.6-3.5-4.5c-1.1-2.9-0.6-5.6-0.4-6.4c0.4-1.8,1.3-3.5,1.6-4c0.8-1.4,1.5-2.2,1.9-3.9c0.1-0.4,0.4-2-0.1-2.3
		c-0.5-0.3-1.7,0.9-2.1,1.4c-0.7,0.7-0.6,1.1-1.6,2.4c-0.7,1-1,1.2-1.3,1.3c-1,0.4-2-0.2-2.1-0.3c-1-0.6-0.9-1.3-2-2.6
		c-0.8-0.9-2-1.7-2.3-1.5c-0.3,0.3,0.2,1.5,0.5,2.2c1.1,2.4,2.4,3.8,3,4.6c2.8,3.6,2.8,8,2.8,10.2c0,2.1,0,3.6-1.1,4.8
		c-0.7,0.8-1.4,0.9-2.8,2.3c-0.8,0.8-0.8,1.1-1.5,1.8c-0.2,0.2-1.3,1.2-2.6,1.6c-1.7,0.5-3.2,0-5.2-0.8c-2.7-1-2.6-1.6-4.9-2.4
		c-2.2-0.8-4.3-1-5.3-1.1c-1.8-0.2-3.2-0.1-5.4-0.7c-1.2-0.3-1.9-0.7-2.3-1.3c-0.1-0.2-0.4-0.9,0.3-2.4c0.7-1.7,1.9-2.7,2.8-3.5
		c3.7-3.2,4.2-3.4,4.5-4.4c0.5-1.8-0.5-3.5-0.9-4.2c-1.1-1.9-2.8-2.7-5.3-3.9c-2.8-1.3-3.1-0.9-7.3-2.7c-2.2-0.9-2.2-1-4.8-2.1
		c-3.4-1.3-3.5-1.2-4.8-1.9c-2.6-1.5-4.3-2.8-4.3-2.8c-0.6-0.5-1.5-1.2-2.7-1.1c-0.4,0.1-1,0.2-1.1,0.6c-0.1,0.4,0.7,0.9,1.2,1.2
		c2.7,1.7,0.4,0.7,4,2.8c0.7,0.4,0.6,0.3,5,2.7c2.5,1.3,2.8,1.5,3.6,1.7c1.1,0.2,1.7,0.1,2.4,0.7c0.8,0.6,1.1,1.6,1.3,2.3
		c0.6,2.3-0.4,3.2,0.4,4.8c0.3,0.6,0.6,0.8,0.8,1.5c0.3,1,0,1.4,0.2,2.1c0.4,1.5,2.3,1.2,3,2.8c0.5,1.1-0.4,1.3,0,3.3
		c0.2,1,0.6,1.7,0.3,2.7c-0.1,0.3-0.2,0.8-0.5,1c-0.5,0.2-1.2-0.4-1.8-0.8c-2.2-1.7-3.4-0.9-5-2.3c-0.4-0.3-0.6-0.6-2-3.7
		c-0.9-2-1.9-4-2.8-6c-1.5-3.2-1.9-4.1-3-4.7c-0.5-0.3-1.3-0.3-2.8-0.5c-3.2-0.3-3.6,0-4.8-0.3c-2.9-0.7-4.4-4.1-4.8-5.1
		c-0.4-1-2-4.6-0.3-7.9c1.2-2.4,3.5-3.3,5.2-4c1.1-0.5,4.2-1.6,7.8-0.8c2.4,0.5,2.5,1.2,7.5,3.6c2.7,1.3,4.5,2.1,7,2.8
		c3.5,1,4.1,0.6,7.5,1.8c3.6,1.3,4.9,2.5,5.4,3c0.4,0.4,1.7,1.7,2.4,3.8c0.8,2.2,0.2,3.1,1.3,5.5c0.3,0.6,0.5,1,0.7,1.8
		c0,0.2,0.3,1.6-0.3,3c-0.8,2.2-3.3,3.5-6,5c-0.6,0.4-1.6,0.8-1.5,1.2c0.1,0.3,1.1,0.3,1.4,0.3c1.5,0,2.3-0.5,3.3-0.7
		c0.9-0.2,2.3-0.4,3.4,0.3c1.2,0.8,1.2,2,2.4,2.3c0.2,0,0.7,0.2,1.2-0.1c1.1-0.6,0.9-2.8,0.8-3.4c-0.2-2.8-1.5-3.3-2.8-6.9
		c-0.6-1.6-1.1-3-1-4.9c0-1,0.1-3.5,1.8-5.3c1.4-1.6,3.2-2,6.2-2.5c4.7-0.9,5.6,0.4,9.1-0.8c2-0.7,2.4-1.3,4.2-1.4
		c0.6,0,3.5-0.2,5.3,1.8c1.4,1.6,1.3,3.8,1.2,5.3c-0.2,2.3-1,4.5-2,6.9c-0.4,1-1,2.3-0.8,4c0,0.2,0.2,2.1,0.8,2.3
		c0.5,0.1,1-0.8,1.3-1.3c1-1.8,1.2-3.6,1.3-4.4C534.2,374.2,533.8,373.1,534.9,371.8z"/>
	<path id="XMLID_63_" class="st10" d="M472.6,382.3c-0.5,0.5-2.4-0.2-3.3-1.4c-0.4-0.5-0.2-0.7-1-2.3c-0.6-1.2-0.8-1.4-0.7-1.7
		c0.3-0.4,1.7-0.2,2.8,0.5c0.9,0.6,1.4,1.5,1.7,2.1C472.3,380,473.2,381.8,472.6,382.3z"/>
	<path id="XMLID_72_" class="st10" d="M473.9,385.3c0.7,0.3,1.2,0.9,2.2,2.3c0.7,0.9,1,1.4,0.9,1.8c-0.1,0.7-1,0.6-2.3,1.8
		c-1.1,1-1,1.4-1.8,1.7c-0.8,0.3-1.1-0.3-2.4-0.2c-0.1,0-1.9,0.2-2,0.9c-0.1,0.4,0.2,0.8,0.6,1c1,0.7,2.5-0.4,2.8,0.1
		c0.3,0.4-0.9,1.2-0.8,2.6c0.1,0.6,0.4,1.3,0.8,1.3c0.5,0,0.7-1,1.8-2.6c0.8-1.2,1.4-1.9,2.8-3.3c1.7-1.7,2.1-1.7,2.4-1.7
		c0.6,0.2,0.6,0.9,1.3,1.7c0.6,0.6,1.4,0.9,2.6,1.2c3,0.6,5.9,0.3,8.2,0.5c1.3,0.1,0.8,0.2,7.4,2.3c5.6,1.8,6.5,1.9,7.6,3.2
		c1.8,2.2,1.6,5.1,1.5,5.8c-0.1,0.7-0.7,2-1.8,4.8c-1.2,2.7-1.8,3.9-2.8,5.2c-0.6,0.7-0.8,1.1-1.3,1.4l-8.5,0.1
		c-0.5-0.9-0.2-1.9,0.3-2.9c0.8-1.6,1.5-1.6,2.6-3.4c0.6-1,1.3-2.1,1.3-3.7c0-0.4-0.1-2.2-1.4-3.5c-0.4-0.4-1.2-1-5.3-1.6
		c-2.5-0.4-2.9,0.2-4.2-0.4c-1.7-0.8-2.6-2.3-3-2c-0.5,0.3,0.4,1.8-0.3,2.5c-0.4,0.4-1.1,0.2-2,0.3c-1.5,0.1-2.1,0.8-3.8,1.8
		c-2,1.1-3.5,1.9-5.2,1.8c-2.1-0.2-3.6-1.9-4.9-3.4c-0.9-1-2.4-2.8-2.8-5.6c-0.1-0.8-0.5-3.5,1-6.2c1.2-2.1,2.8-3.1,4.3-4
		C471.3,385.7,472.6,384.8,473.9,385.3z"/>
	<path id="XMLID_75_" class="st10" d="M487.8,412.2c0.5,0.1,1.3,0.3,2,1c0.2,0.2,1.3,1.3,1.1,2.9c-0.1,1.2-0.9,2-1.1,2.1
		c-1.3,1.2-3.1,1-4.6,0.8c-1.5-0.2-2.9-0.3-3.6-1.4c-0.7-1.1-0.3-2.3-0.2-2.5c0.4-1.3,1.6-1.9,2.4-2.3
		C484.5,412.5,486,411.8,487.8,412.2z"/>
	<path id="XMLID_76_" class="st10" d="M474.2,409.3c0.3,0.7-0.1,1.6-0.4,2.3c-0.3,0.5-0.6,1.2-1.3,1.6c-1.3,0.8-2.9,0.2-3.4-0.1
		c-0.8-0.3-1.7-0.7-2-1.6c-0.4-1.2,0.6-2.3,0.6-2.4c0.9-1,2.2-1,3.2-1C471.6,408.1,473.7,408.1,474.2,409.3z"/>
	<path id="XMLID_77_" class="st10" d="M483.9,373.2c0.3-0.3,1.1,0.9,3.3,1.8c1.1,0.5,2.1,0.7,3.4,1.7c0.6,0.4,1,0.8,0.9,1.2
		c0,0.2-0.2,0.4-1.3,1.1c-1.2,0.7-1.4,0.7-2.5,1.3c-1,0.6-1.2,0.8-1.4,0.7c-0.7-0.2-0.4-1.7-0.8-3.7
		C484.8,374.7,483.5,373.5,483.9,373.2z"/>
	<path id="XMLID_78_" class="st10" d="M493.7,378.9c0.2,0.1,0,0.9-0.3,1.7c-0.4,0.7-0.8,1.1-1.2,1.3c-1.1,0.9-1.6,0.6-2.4,1.4
		c-0.5,0.5-0.5,0.9-1,1c-0.5,0.1-1.1-0.1-1.4-0.4c-0.6-0.6-0.6-1.8-0.2-2.2c0.5-0.4,1.1,0.4,2.3,0.3c1.2-0.1,2-0.8,2.5-1.3
		C493.2,379.9,493.5,378.8,493.7,378.9z"/>
	<path id="XMLID_79_" class="st10" d="M495,406.2c0.2,1-0.6,2-0.9,2.3c-0.7,0.8-1.2,0.8-1.8,1.7c-0.5,0.7-0.4,1.2-0.8,1.3
		c-0.5,0.1-0.7-1-1.7-1.7c-1.1-0.8-2.4-0.5-3.9-0.3c-1.6,0.3-2.7,0.8-4,1.4c-1.8,0.9-2.2,1.3-3.7,1.8c-1,0.3-2.7,0.6-2.9,0.2
		c-0.2-0.4,0.9-1,1.1-2.3c0.1-1.1-0.7-1.4-0.7-2.2c0.1-1.3,2.8-2.1,5.8-3c2.6-0.8,4.3-1,6.6-1.3c2-0.2,3.3-0.3,4.7,0.3
		C493.5,404.7,494.8,405.1,495,406.2z"/>
	<path id="XMLID_80_" class="st10" d="M557.1,423.8c-0.4,0-0.4,0.6-1.3,1.3c-0.6,0.4-0.9,0.3-1,0.7c-0.2,0.5,0.5,1.3,0.6,1.3
		c0.7,0.7,1.2,0.4,1.8,0.8c0.9,0.7,0.4,1.8,1.4,4.1c0.3,0.7,0.5,1.1,0.8,1.3c1.3,0.7,3.5-1.5,3.8-1.8c0.6-0.5,1.8-1.8,2.3-3.9
		c0.6-2.8-0.7-5-1-5.6c-0.5-0.8-1.1-1.9-2.1-1.9c-1,0-1.8,1.1-1.8,1.2c-0.7,1-0.5,2.3-0.2,3.9c0.2,1.4,0.6,2.7,0.6,2.7
		c0.3,1.1,0.5,1.6,0.2,1.9c-0.3,0.3-1,0.3-1.5-0.1c-0.6-0.5-0.4-1.2-0.7-2.6C558.6,425.5,557.8,423.8,557.1,423.8z"/>
	<path id="XMLID_81_" class="st10" d="M554.8,428.3c0.8,0,1.5,3.4,1.8,5.7c0.1,1.4,0.2,2.2,0,3.3c-0.3,1.5-0.8,1.7-2.5,4.8
		c-1.7,2.9-1.6,3.3-2.5,3.9c-1.4,0.9-3,0.8-4.2,0.8c-1.3-0.1-2.1-0.1-2.9-0.8c-1.2-1-1.3-2.7-1.3-3.9c-0.1-2.1,0.7-3.7,0.9-4.2
		c1-2,1.9-1.9,4.1-4.3c2.4-2.7,3.1-4.9,3.7-4.7c0.6,0.2,0.2,2.5,0.2,3c-0.2,1.7-0.9,3.4-1.3,4.6c-0.3,0.8-0.7,1.6-0.6,2.8
		c0,0.3,0.1,1.4,0.6,1.5c0.5,0.2,1.2-0.8,1.5-1.2c0.6-0.8,1.1-2,1.3-3.9c0.3-2.2-0.2-2.5,0.2-4.4
		C553.7,430.8,554.1,428.4,554.8,428.3z"/>
	<path id="XMLID_82_" class="st10" d="M513.9,415.7c-0.5,0.5-1.4,0.6-3.1,0.9c-1.3,0.2-2.3,0.2-3.4,0.2c-2-0.1-2.9,0-3.1-0.4
		c-0.5-0.9,1.6-3.3,3.5-4.8c0.9-0.7,1.9-1.2,2.7-2.5c0.4-0.7,0.6-1.3,0.8-1.8c0.5-1.5,0.4-2.5,0.5-3.1c0.2-1.7,1.4-2.9,3.2-4.6
		c0.8-0.8,3.2-2.9,7.1-4.3c1.8-0.7,5.5-1.9,9.8-1c1.9,0.4,4.6,1,5.6,3.1c0.8,1.7,0.1,3.6-0.2,4.6c-0.9,2.5-2.1,2.4-3.8,5.4
		c-1.5,2.6-1.3,3.9-2.6,4.6c-0.8,0.4-1.4,0.1-3.7-0.1c-3.7-0.3-4-0.2-4.4-0.1c-0.4,0.1-1.4,0.5-3.3,1.1c-1,0.3-1.5,0.6-1.8,0.3
		c-0.4-0.4,0.4-1.7,0.4-1.9c1-1.8,2.4-1.8,4.3-3.4c1.5-1.2,0.9-1.4,3.5-4.2c1.9-2,2.7-2.4,3.1-2.6c0.6-0.3,0.8-0.3,2.9-1.2
		c1.4-0.6,2.1-0.9,2.4-1.6c0.2-0.5,0.2-1.3-0.1-1.4c-0.2-0.1-0.4,0-1.6,0.8c-1,0.7-1.4,1-2.2,1.4c-0.8,0.4-1.3,0.7-1.6,0.5
		c-0.4-0.2,0-0.9-0.3-2c-0.3-1-1.1-2-1.6-1.9c-0.4,0.1-0.6,0.7-0.6,1.2c-0.1,0.8,0.4,1,0.6,2c0.1,0.5,0.2,1.1-0.1,1.8
		c-0.3,0.6-0.7,0.5-1.3,1.2c-0.5,0.6-0.7,1.1-0.9,1.4c-0.9,1.7-3.5,3.5-5.7,4.5c-2,0.9-2.9,0.7-3.5,1.8c-0.4,0.6-0.1,0.9-0.4,2.8
		C514.6,414.2,514.5,415.1,513.9,415.7z"/>
	<path id="XMLID_83_" class="st10" d="M517.9,435.4c0.3,1.2,0,3.3-0.1,4.7c-0.1,1.7-0.8,2.7-1.5,3.4c-0.6,0.6-1.3,1.3-2.4,1.8
		c-0.5,0.2-2.7,1.2-4.9,0.2c-1.4-0.7-2.1-1.9-2.3-2.3c-0.9-1.7-0.7-3.4-0.5-5.2c0.2-1.4,0.4-3.1,1.5-4.9c1.1-1.8,2.7-2.8,6-4.8
		c0.7-0.4,2.9-1.8,5.3-2.9c1.4-0.6,2.6-1.6,4.1-1.9c0.2,0,0.6-0.1,1-0.5c0.7-0.7,0.7-2.1,0.1-2.4c-0.2-0.1-0.5-0.1-1.5,0.5
		c-1,0.6-1.6,0.9-2.3,1.6c-1.8,1.8-4.5,2.9-5.6,3.4c-2,0.9-3.6,1-6,1.2c-5.4,0.5-10.3-0.5-10.9-0.6c-1.7-0.3-3.5-0.3-5.3-0.7
		c-0.5-0.1-1.6-0.4-2.9,0.1c-0.5,0.2-0.9,0.3-1,0.5c-0.1,0.3,0.4,0.7,0.5,0.8c1.1,0.9,2.7-0.2,4.8-0.2c2-0.1,3.5,0.8,5.2,1.8
		c1.8,1.1,3.5,2.1,4.3,4c0.4,1.1,0.4,2.4,0.2,4.9c-0.1,2.4-0.4,2.7-0.2,4c0.1,0.6,0.5,2.4,2,3.6c0.2,0.1,0.8,0.6,1.8,1
		c2.6,0.9,4.7-0.4,5.3,0.5c0.2,0.3,0.1,0.6-0.1,1.2c-0.6,2-2.2,3.1-2.5,3.2c-1.4,0.9-2.8,0.9-3.7,1c-0.9,0-3.1,0.1-4.8-1.3
		c-1.6-1.3-1.1-2.6-3.1-7.3c-1-2.2-1.5-3.3-2.5-4.3c-0.9-0.8-2.1-1.4-4.5-2.5c-2.8-1.3-2.9-1-4-1.8c-1-0.6-2.9-1.8-4-4.3
		c-0.3-0.6-1.2-2.7-0.4-5c0.7-2,2.2-3.1,4.2-4.5c0.9-0.6,2.7-1.8,5.3-2.5c3.4-0.9,5.6-0.2,9.3,0.2c5.3,0.6,8,0.6,10.8-0.1
		c2.2-0.5,4.1-1,6.3-2.3c1.5-0.9,2.2-1.6,4-2.2c0.7-0.2,2.3-0.7,4.3-0.3c0.7,0.1,3.7,0.7,5.1,3.2c0.2,0.4,0.9,1.7,0.7,3.3
		c-0.2,1.2-0.9,2-2,3c-2.4,2.2-3.5,2.3-6.1,4.2c-3.5,2.6-3.3,3.8-5.6,4.4c-1.4,0.3-2.5,0.1-3.8,1c-0.5,0.3-0.4,0.4-2,2.1
		c-1.6,1.7-2.1,2-2.4,2.9c-0.1,0.4-0.5,1.5,0.1,2.3c0.6,0.7,1.7,0.9,2.2,0.5c0.5-0.5-0.3-1.5,0-2.7
		C513.4,436.4,517.5,433.8,517.9,435.4z"/>
	<path id="XMLID_84_" class="st10" d="M529.3,436.3c-0.8,0.9-1.8,2.2-3.7,2.9c-0.7,0.3-2.9,1.1-4.4,0c-0.9-0.7-1.2-1.7-1.3-2.1
		c-0.4-2.1,1.2-3.9,2.2-5.1c0.4-0.5,2.3-2.6,5.8-4.2c2.3-1,3.3-0.9,4.8-2.3c0.5-0.5,1.6-1.5,1.9-3c0.5-2.4-1.3-3.5-1.4-6.6
		c-0.1-1.5,0.3-2.6,0.8-4.1c1.7-4.7,5.2-7.4,6.8-8.6c2.4-1.8,4.4-3.2,7.3-3.5c4.2-0.4,7.3,1.9,9.8,3.8c2.1,1.5,5.4,3.9,6.2,7.9
		c0.2,0.9,0.6,3.2-0.7,4.9c-0.8,1-1.7,1.1-3.8,2.2c-1.5,0.8-2.4,1.5-4.3,2.9c-3.7,2.8-6,5.7-6.6,6.4c-2.7,3.4-2.2,4-5.1,7.3
		c-2.4,2.8-4,3.8-5.2,4.4c-1,0.5-2.9,1.3-5.3,1.2c-0.9-0.1-3-0.2-3.4-1.3c-0.3-0.7,0.2-1.5,0.3-1.7c0.5-0.9,1.6-1.2,2.2-1.4
		c1.9-0.8,2.1-2.6,3.9-5.4c1.9-3,2.2-2,5.1-5.8c2.7-3.6,2.4-4.5,4.3-5.8c1.8-1.2,2.6-0.9,4.4-2.4c1.5-1.3,1.6-2.2,2.9-2.9
		c1.4-0.8,2.2,0.2,4.6-0.4c1.2-0.3,2.7-1,2.7-1.5c-0.1-0.4-1.3-0.6-2.1-0.7c-1.3,0-1.9,0.4-3.1,0.6c0,0-1.7,0.2-3.4-0.5
		c-2.7-1.1-3.4-4-4.2-3.8c-0.4,0.1-0.3,1.2-0.4,2.8c0,0-0.2,2.9-1.3,5.4c-0.9,2.1-2.1,2.4-5.1,5.3c-0.2,0.2-2.6,2.5-4.8,5.4
		C532.9,430.4,532.6,432.2,529.3,436.3z"/>
</g>
<g id="Gallbladder" class="st1">
	<path id="XMLID_105_" class="st15" d="M803.6,381.2c0,4.9-0.4,9.7-1.2,14.3c-6.5,39.9-40,70.7-81,73.2c-1.8,0.1-3.6,0.2-5.5,0.2
		c-2.2,0-4.3-0.1-6.4-0.2c-2.4-0.2-4.8-0.5-7.2-0.8c-42-6.5-74-42.8-74-86.6c0-48.4,39.3-87.7,87.7-87.7c33.6,0,62.8,18.9,77.5,46.6
		c5.5,10.4,9,22,9.9,34.3C803.5,376.7,803.6,378.9,803.6,381.2z"/>
	<path id="XMLID_103_" class="st16" d="M803.6,381.2c0,4.9-0.4,9.7-1.2,14.3c-6.5,39.9-40,70.7-81,73.2c-1.8,0.1-3.6,0.2-5.5,0.2
		c-2.2,0-4.3-0.1-6.4-0.2l-22.7-24.4l7.5-6.2l-29-28.7l6.5-48l4.2-6.6l36.3-25.2l6.2,1.8l10.2,2.4l22.8,20.5l8.5-27.5l10.3-6.7
		l23,20.1c5.5,10.4,9,22,9.9,34.3C803.5,376.7,803.6,378.9,803.6,381.2z"/>
	<path id="XMLID_91_" class="st10" d="M717.7,339.3c0.9-1,0.8-2.3,0.8-2.7c-0.1-2.1-1.7-3.7-3-4.8c-1-0.9-1.9-1.7-3.2-2.2
		c-1.3-0.4-3.5-0.7-9.5,2.5c-2.6,1.4-4.8,2.8-7.5,4.8c-2.6,1.9-5.9,4.3-10.2,8.2c-0.8,0.8-9.5,9.2-9.2,9.7
		c0.3,0.4,10.1-5.9,10.5-5.3c0.3,0.4-3.5,3.7-7,6.3c-3.1,2.3-4.3,2.9-5.8,4c-5.1,3.7-7.2,9-9.5,14.7c-2.9,7.3-3.3,13.3-3.5,17.3
		c-0.3,6.1-0.5,10.6,2.3,14.8c0.7,1.1,2.4,3.5,5.5,4.8c4.8,2,9.6-0.2,11.7-1.2c12.7-5.8,16.6-22.1,17.3-25.2
		c1.5-6.3,1.6-13,1.7-15.5c0-2.1,0.1-5-0.3-8.7c-0.5-4.5-1.4-8.4-1.3-8.3c2.2,1.9,3.3,9.8,3.3,9.8c0.4,0,0.9-2.5,1.4-4.4
		c0.6-2,2.3-4.5,4.5-8.1c1.9-3,2.4-3.3,4.1-5.4c1.3-1.6,2.4-2.9,3.8-3.5C716,340.3,716.8,340.3,717.7,339.3z"/>
	<path id="XMLID_92_" class="st10" d="M715.9,328.7c0-0.3,1-0.1,5.3,0.7c3.5,0.7,4.1,0.8,5,1.4c0.5,0.3,1.8,1.2,2.5,2.9
		c0.6,1.6,0,2.1,0.3,4.8c0.2,1.6,0.4,2.7,1.3,3.8c1,1.3,2.4,1.8,2.9,2c1.2,0.4,1.7-0.1,2.8,0.4c0.3,0.1,1.1,0.5,1.8,1.3
		c0.7,1,0.7,2.2,0.8,2.6c0,3.2,0.7,6.4,0.7,9.6c-0.1,9.1,1.2,14.8,0.6,16.6c-0.2,0.6-1.1,1.3-1.7,2.7c-0.5,1.4-0.4,2.1-1,4
		c-0.3,1-0.7,2.2-1.1,2.2c-0.3,0-0.6-0.8-0.7-7.2c0-3.3,0.1-6.5,0.3-11.6c0.1-2.6,0.3-5.8-0.5-9.7c-0.3-1.2-0.6-2.7-1.8-4
		c-0.4-0.4-1.6-1.8-3.6-2.2c-1.5-0.3-1.9,0.3-3.2-0.1c-1.4-0.5-2.3-1.6-2.5-1.9c-0.6-0.9-0.4-1.3-1.2-4.3c-0.6-2.6-1-3.1-1.6-3.4
		c-0.8-0.4-1.4,0-1.8-0.4c-0.6-0.7,0.3-2,0.3-3.6C720.1,331.5,716,329.1,715.9,328.7z"/>
	<path id="XMLID_93_" class="st10" d="M768,322.4c0.6,0,1.2,0.1,1.8-0.3c0.7-0.5,1-1.5,0.7-1.9c-0.2-0.3-0.6,0-1.4-0.3
		c-0.7-0.3-0.8-0.6-1.2-0.7c-0.7-0.1-1.2,0.9-1.8,1.5c-0.3,0.3-0.9,0.8-4.2,1.3c-2.5,0.3-4.7,0.6-7.7,0.2c-2.6-0.4-3.8-0.6-5-1.5
		c-1.4-1.1-2-2.4-3.2-2.3c-0.8,0.1-1.3,0.7-1.6,1c-0.4,0.5-1.1,1.5-0.8,2.1c0.3,0.5,1.2,0.1,2.4,0.3c1.4,0.2,1.9,1,3.7,2.3
		c2.8,2,3.4,1.4,4.4,2.6c0.4,0.4,1.4,1.8,1.1,6.3c-0.4,4.6-1.9,8-2,8.3c-3.7,8.3-1.7,8.8-8.5,27.5c-1.6,4.3-2.9,7.5-4.5,11.6
		c-3,7.4-4.4,11-6.3,14.7c-3.4,6.9-6.8,11.9-9.3,15.5c-3.3,4.9-5.4,7.9-8.9,11.6c-4.6,4.8-8.7,7.6-9.6,8.2
		c-4.2,2.8-7.8,4.4-10.3,5.4c-4.2,1.8-6.3,2.6-8.4,3c-2.5,0.5-4.3,0.4-4.7,1.4c-0.4,1.1,1,3.1,2.7,3.8c1.8,0.8,3.7,0.2,4.8-0.2
		c7.5-2.5,11.3-3.8,13.3-4.6c5.1-2.2,7.9-3.1,10-3.8c4.3-1.4,6.5-2.1,7.6-2c0.3,0,1.6,0.2,2.9-0.5c0.3-0.2,0.9-0.5,1.2-1.1
		c0.6-1.3-0.2-3.2-1.3-3.5c-0.6-0.2-1.1,0.2-2,0.8c0,0-1.3,0.8-4.3,2.2c-2.3,1.1-5.3,1.7-5.6,1.1c-0.3-0.6,2-2.3,2.8-2.9
		c2.9-2.2,6.2-6.2,12.8-14.3c6.1-7.4,10.2-16.4,14.7-26c5.6-12.1,11.6-28.4,13.3-38.9c0.7-4.6,2.4-9,2.7-13.6
		c0.1-1.5,0.2-4.1,1.8-6.9c0.9-1.7,2.1-2.8,3.5-4.3C765.6,323.4,766.6,322.4,768,322.4z"/>
</g>
<g id="Pancreas" class="st1">
	<path id="XMLID_117_" class="st15" d="M200.5,640c0,4.9-0.4,9.7-1.2,14.3c-6.5,39.9-40.1,70.8-81.2,73.2c-1.7,0.1-3.5,0.2-5.3,0.2
		c-4.6,0-9.2-0.4-13.6-1.1c-42-6.5-74-42.8-74-86.6c0-48.4,39.3-87.7,87.7-87.7c45.7,0,83.2,35,87.3,79.6
		C200.4,634.6,200.5,637.3,200.5,640z"/>
	<path id="XMLID_115_" class="st16" d="M200.5,640c0,4.9-0.4,9.7-1.2,14.3c-6.5,39.9-40.1,70.8-81.2,73.2L67,676.4l-5.9-28.5
		l14.1-26l15.1-5.3l0.9-3l3.1-9.2l8.3,5.9l3.7-0.6l10.4,9.8l11.6,6.4l42.8-19.9l29.2,26C200.4,634.6,200.5,637.3,200.5,640z"/>
	<path id="XMLID_44_" class="st10" d="M170.9,606c0.6,2.1-0.8,5.1-2.5,6.9c-2.3,2.4-3.8,1.5-5.8,3.9c-2.2,2.6-1.1,4.6-3.3,5.9
		c-1.7,1-3,0.2-4.8,1.6c-1.1,0.9-0.7,1.4-1.8,2.3c-1.7,1.5-3.3,0.7-5.8,1.9c-1.2,0.6-1.4,1.1-2.9,2.4c-0.3,0.3-3.5,2.9-7.3,4.1
		c-4.2,1.4-4.8-0.5-9,1c-3.1,1.1-3.2,2.3-5.9,2.6c-3,0.3-4-1.1-6-0.1c-1.4,0.7-1.2,1.6-3.5,3.8c-1.4,1.3-2.2,2.1-3.5,2.5
		c-2.6,0.9-3.8-0.8-8.1-0.8c-2.1,0-3.8,0-4.8,1.1c-0.3,0.4-1.1,1.5,0.6,7.3c1.7,5.7,3.4,7.7,2.4,9.8c-0.5,1-1.6,1.9-2.9,2.3
		c-1.9,0.5-3.4-0.8-4.6,0.1c-0.8,0.6-0.5,1.3-1.3,1.8c-1,0.6-2-0.1-3.9-0.5c-3.6-0.7-5.2,0.7-6.3-0.5c-0.7-0.9,0.1-1.7-0.6-3.1
		c-0.8-1.5-2-1.2-3.8-3c-0.4-0.4-2.7-2.7-2.1-4.6c0.4-1.5,2.2-1.8,2-2.6c-0.2-0.8-1.9-0.4-2.8-1.6c-1-1.3-0.3-3.5,0-4.3
		c0.4-1.3,0.9-1.5,1.4-2.6c0.9-2.1,0-3.2,0.4-4.8c1-3.6,7.3-4.7,7.8-4.8c1.3-0.2,5.5-0.9,7.6,1.4c0.6,0.6,1,1.4,2,1.8
		c1.3,0.4,2.7-0.2,3.3-0.5c2.9-1.4,4.2-4.6,4.8-5.9c2.4-6.3,0.4-12.1,2-12.6c0.6-0.2,0.9,0.8,2.4,0.9c1.4,0.1,1.9-0.8,4-1.4
		c1-0.3,2.1-0.6,3.3-0.4c2.5,0.5,3,2.7,4.6,2.5c1.1-0.2,1-1.3,2.4-1.9c1.8-0.7,2.8,1,5.8,0.9c1.7-0.1,1.5-0.7,3.4-0.8
		c2.3-0.1,3,0.8,4.3,0.3c1.4-0.6,0.9-2.1,2.3-2.9c1.9-1.1,3.8,1.4,6.5,0.5c1.6-0.5,1.3-1.5,3.1-2.1c2.2-0.8,3.2,0.5,4.9-0.3
		c2-0.9,1.5-3,3.4-3.9c1.9-0.8,3.2,1,5.3,0.1c1.5-0.6,1.3-2,2.8-3.1C162.8,604.5,170.4,604.2,170.9,606z"/>
	<path id="XMLID_96_" class="st10" d="M94.9,616.3c-0.2-0.8-1.9-1-6.4-1.1c-5.3-0.1-7.9-0.2-9.8,0.1c-2.1,0.3-6.8,1.1-11.5,4.4
		c-5.8,3.9-8.3,9.2-9.9,12.6c-0.6,1.3-3.1,6.7-3.6,14.4c-0.3,4.4-0.8,11,2.8,18.1c2.9,5.8,7,9,9.6,11c2.6,2,9.2,7.1,18.1,7.4
		c3.9,0.1,3.1-0.8,13.3-1.8c1.4-0.1,2.3-0.2,3.3-0.9c4.3-3.2,1.6-14.8-0.6-15c-0.9-0.1-1.3,1.8-3,2c-1.9,0.2-3.2-1.8-4.3-1.3
		c-0.7,0.4-0.2,1.4-1,2.1c-1.1,1.1-3-0.2-4.3,0.8c-1.5,1.1-0.8,4.7-0.9,4.7c-0.1,0,0.4-5.1-1.8-6.3c-1-0.5-1.7,0.3-3.9-0.2
		c-0.9-0.2-2.5-0.6-3.1-1.8c-0.5-1,0.4-1.6,0-2.7c-0.5-1.4-2-1.2-4.2-3.1c-1.2-1-2.1-1.8-2.4-3.1c-0.4-1.8,0.7-3.2,0-3.9
		c-0.1-0.1-0.2-0.1-1.5-0.2c-1.9-0.1-2.4,0-2.5-0.2c-0.1-0.3,0.6-1,1.4-1.3c1-0.3,1.5,0.3,1.9,0.1c0.9-0.6-1.4-3.8-0.1-6.1
		c0.5-0.9,1-0.7,1.6-1.8c0.9-1.7-0.2-2.6,0.2-4.8c0.4-2.4,2.4-4.4,4.2-5.3c0.5-0.2,1.3-0.1,1.6-0.6c0.2-0.3,0-0.8-0.3-1.4
		c-0.7-1.4-1.2-2-1.6-2.6c-1-1.8-0.6-3.9-0.4-3.9c0.2,0,0.2,1.6,1.3,3.6c0.5,0.9,1.3,2.5,3,3.2c1.5,0.7,2-0.1,4.3,0.1
		c3.2,0.3,4.9,2.1,5.5,1.5c0.4-0.4-0.2-1.2-0.4-3c-0.3-2,0-3.5,0.3-4.8c0.2-1.1,0.8-3.5,2.4-5.8C93.8,617.5,95.1,617,94.9,616.3z"/>
	<path id="XMLID_98_" class="st10" d="M97.9,617.4c-0.8-0.2-1.6,1.1-2.4,2.2c-0.9,1.4-1.6,2.8-2.3,4.7c-1.1,3.3-1.2,5.6-1.2,6.4
		c0,1.7,0,3.2,0.9,3.7c0.9,0.5,2.1-0.4,2.6-0.7c2.2-1.5,2.7-4.2,3.4-7.8c0.3-1.6,0.5-3.4,0.2-5.6C99,619.2,98.7,617.5,97.9,617.4z"
		/>
	<path id="XMLID_100_" class="st10" d="M132.6,638.5c-1,0.3-2,1.8-2.4,3.4c-0.5,2.3-0.2,5.2-0.1,5.7c0.1,0.4,0.9,3.1,2.3,3.2
		c1,0,1.9-1.1,2.3-2.3c0.6-1.5,0.6-5.1,0.4-7.5C135,639.6,133.7,638.2,132.6,638.5z"/>
	<path id="XMLID_101_" class="st10" d="M129,639.2c0.3,0.6-0.8,1.1-1.6,2.9c-0.2,0.5-0.8,1.9-0.6,3.7c0.2,1.7,1,3,1.2,3.3
		c0.9,1.3,1.7,1.6,1.6,2c-0.2,0.5-1.4,0.1-3.5,0.7c-1.8,0.5-2.4,1.3-3.4,0.9c-0.4-0.1-0.5-0.3-1.4-1.1c-1.1-0.9-2.7-2.2-2.9-2.1
		c-0.2,0.2,1.2,2,1.9,2.9c0.8,1,1.2,1.4,1.1,1.9c-0.1,0.5-0.7,0.5-1.5,1.2c-0.8,0.7-0.9,1.4-1.5,2.6c-0.7,1.4-1.5,2.8-2.1,2.7
		c-0.4-0.1-0.6-0.9-0.9-2.3c-0.4-1.5-0.5-1-1.7-4.3c-1.4-3.6-2-5.5-1.7-6.8c0.2-0.7,0.3-0.3,1.4-2.6c1.3-2.5,1.7-3.9,2.8-4.1
		c0.3-0.1,0.5,0,1,0.1c0.2,0,3.5,0.7,6.1-0.4c1.5-0.7,1.4-1.3,2.8-1.7C127.2,638.5,128.7,638.5,129,639.2z"/>
	<path id="XMLID_102_" class="st10" d="M95.8,615.1c-0.4,0.2-1.2-0.1-2.9-0.6c-1.5-0.5-1.7-0.7-1.8-0.8c-0.6-0.7-0.1-1.5-0.4-2.9
		c-0.3-1.2-0.8-1.1-1.3-2.3c-0.5-1.4,0-1.6-0.2-4.3c-0.1-1.8-0.5-2.8,0.1-3.3c0.2-0.1,0.3-0.1,0.9-0.1c2.3-0.1,2.9-0.5,3.9,0
		c0.3,0.1,0.5,0.3,0.7,0.5c0.6,0.8-0.1,1.8-0.1,3.4c0,0.3,0.2,1.3,0.8,3.2c0.7,2.6,0.7,2.7,0.8,3.3
		C96.4,612.4,96.7,614.5,95.8,615.1z"/>
	<path id="XMLID_104_" class="st10" d="M102,614.6c-0.6-0.5,0-1.2-0.2-4c-0.1-0.8-0.2-1.3,0.1-1.9c0.4-1.1,1.3-1.6,1.4-1.7
		c0.1,0,1.5-0.8,2.3-0.3c0.1,0.1,0.3,0.3,0.4,1.4c0.2,1.5,0,1.7,0.1,2.7c0.1,0.8,0.3,0.7,0.6,1.9c0.3,1.1,0.4,1.8,0.1,2.1
		c-0.3,0.3-0.7,0.1-1.8,0C102.8,614.6,102.5,615,102,614.6z"/>
	<path id="XMLID_106_" class="st10" d="M104.2,646.9c-0.4-0.4-1.3-0.4-3.1-0.3c-1.9,0.1-2.1,0.3-2.3,0.4c-0.6,0.6-0.3,1.7,0.1,2.8
		c0.9,3.1,1.3,4.6,1.8,5.7c1.1,2.4,1.4,4.6,2.1,8.9c0.6,3.8,0.9,5.7,0.6,8.3c-0.3,3.2-1.2,5.6-0.6,5.8c0.5,0.2,1.9-1.5,2.4-2.1
		c0.9-1.1,1.1-1.7,1.5-1.7c0.4,0.1,0.4,1.1,0.9,2.7c0.5,1.7,0.9,3.2,2.1,3.9c1.2,0.7,3.1,0.6,3.8-0.4c0.3-0.4,0.4-0.8,0-3.1
		c-0.4-2.7-0.8-3.8-0.8-3.8c-1.1-3.5-2.5-7-2.9-7.9c-2.8-7.2-1.9-7-3.8-10.9c-0.8-1.6-1.5-2.8-1.6-4.6
		C104.3,648.8,105,647.6,104.2,646.9z"/>
	<path id="XMLID_107_" class="st10" d="M106.5,647.4c-0.2,0.7,0.5,2.1,1.6,4.4c0.9,2,0.5,1.9,1.9,6.6c1.7,5.6,2.2,5.3,2.9,8.8
		c0.6,2.6,0.4,3.3,1.2,5.6c0.7,2.3,1.1,2.6,1.4,4.4c0.2,1.3,0.1,2.4,0.6,2.6c0.3,0.1,0.6-0.2,1.3-0.9c0.9-0.9,1.5-1.4,1.7-2.4
		c0.1-0.6,0-1.1-0.1-1.5c-0.4-1.5-1.2-2-2.1-3.4c-0.6-0.9-1.2-1.9-1.3-3.1c-0.2-1.9,0.8-2.6,0.3-4.1c-0.1-0.3-0.1-0.1-1.4-1.9
		c-1.1-1.5-1.2-1.8-1.3-2c-0.4-1.1-0.1-1.5-0.3-2.8c-0.3-2.3-1.7-2.4-2.2-5.1c-0.2-0.8,0-0.9-0.3-2.6c-0.3-2.2-0.6-2.6-0.9-2.8
		C109.2,647,106.6,647,106.5,647.4z"/>
</g>
<g id="Stomach" class="st1">
	<path id="XMLID_121_" class="st2" d="M399.9,640c0,3.3-0.2,6.5-0.5,9.6c-0.2,1.6-0.4,3.1-0.6,4.7c-6.8,41.6-43,73.4-86.5,73.4
		c-4.5,0-9-0.3-13.3-1c-0.1,0-0.2,0-0.3,0c-42-6.5-74-42.8-74-86.6c0-48.4,39.3-87.7,87.7-87.7C360.7,552.3,399.9,591.6,399.9,640z"
		/>
	<path id="XMLID_119_" class="st3" d="M399.4,649.6c-0.2,1.6-0.4,3.1-0.6,4.7c-6.8,41.6-43,73.4-86.5,73.4c-4.5,0-9-0.3-13.3-1
		l-32.8-34.4v-14.9l12.8-14.5l23-1.5l4.5-0.5l6.3-3.1l2.5-2l4-5.3l2.6-4.3l2.4-7l-0.2-8.5l-15.5-14.9l5.7-23.2l3.7-12.8l26.8,25.5
		l18.6,10.4L399.4,649.6z"/>
	<path id="XMLID_108_" class="st10" d="M303.1,579.7c-2,1.7-1.5,4.2-1.3,13.3c0.1,7.2-0.2,8.1,0.5,11c0.9,3.9,2.5,6.6,3.2,7.7
		c1.3,2.1,2.7,4.4,5.5,6.2c1,0.6,1.3,0.6,4.7,2.3c1.1,0.5,3,1.2,4.5,2.3c0.5,0.4,1.2,0.9,1.8,1.8c0.4,0.6,0.3,0.8,0.5,1
		c1.2,1,5.1-1.9,5.4-2.2c2.3-1.8,3.4-3.5,3.6-3.4c0.2,0.1-0.7,2-2.1,3.7c-1.1,1.4-3,3.7-5.1,3.9c-0.2,0-0.5,0-0.8,0.3
		c-0.5,0.6,0.1,1.6,0.5,3c0.6,2.8-0.5,4.5,0.5,5.2c0.4,0.3,0.8,0.1,1.2,0.1c3.8-0.1,7.8,0.9,7.8,1.2c0,0.1-0.9,0.5-3.7,0.9
		c-1.3,0.2-2.4,0.3-4.3,0.4c-0.7,0-1,0.4-1.3,0.7c-1,1-0.2,2-0.9,4c-0.3,0.9-0.6,1-1.5,3.1c-0.3,0.6-0.4,1.1-0.3,1.5
		c0.2,0.7,1,1,1.9,1.3c2.8,1,4.7,1.7,4.6,1.8c0,0.2-2,0.3-4.1,0c-2.8-0.3-4-1.1-4.8-0.4c-0.5,0.5-0.2,0.9-0.7,1.9
		c-1,2.2-3.3,2.3-3.4,3.4c-0.1,0.9,2.7,3.2,4.4,4.3c4.2,2.8,6.2,3.9,6.1,4.2c-0.1,0.2-3.9-0.9-7.9-3.3c-2-1.2-5.1-3.2-5.1-3.2
		c-0.6,0.1-0.5,0.2-2.8,1.3c-2.5,1.1-3.3,1.2-3.5,1.9c-0.2,0.8,0.8,1.4,1.8,2.5c2.7,3.1,3.1,7.1,2.8,7.2c-0.2,0.1-0.7-1.3-2.5-3.4
		c-0.9-1.1-1.7-1.8-2.3-2.4c-2-1.9-3-2.8-4.3-3.5c-2.8-1.5-4.2-0.2-7.4-1.6c-1.4-0.6-1.7-1.1-3.4-2.3c-1.2-0.9-5.2-3.7-9.3-4.3
		c-4.4-0.7-7.9,1.1-11.4,2.9c-2.1,1.1-5.7,3-8.7,7.1c-1,1.3-3,4.1-3.8,8.5c-0.8,4.5,0.3,8,0.8,9.8c0.4,1.3,1.8,5.4,5.7,9.3
		c0.9,1,3.3,3.2,8.9,5.8c7.8,3.6,14.6,4.4,18.1,4.7c0,0,0.6,0.1,5.9,0.3c0.5,0,1.4,0,2.2-0.5c0.6-0.5,0.9-1.2,1.2-2.1
		c0.8-2.8,0.8-5.2,0.8-5.7c-0.1-3.2-0.1-3.7-0.4-4.2c-0.4-0.5-1.1-1-2.9-1.3c-2.8-0.5-5-0.1-6.4,0.1c-0.2,0-4.6,0.6-8.9-0.6
		c-1.3-0.4-6-1.8-8.8-6.1c-0.7-1.2-2-3.1-1.7-5.6c0.3-2.3,1.7-3.8,2.1-4.2c1.5-1.6,3.3-2.1,4-2.3c1.7-0.4,4.2-0.5,8,1.1
		c4.7,2.1,6.1,4.6,9.8,7.5c5.6,4.4,11.4,5.9,14.2,6.6c2,0.5,8.9,2,17.6,0.3c10.2-2.1,16.8-7.5,19.5-9.8c5.4-4.6,8.4-9.3,11.3-13.8
		c2.6-4.1,5.1-8.1,6.8-14.2c1.7-6.1,1.5-11.1,1.4-14.8c-0.2-6.1-0.4-10-2.7-14.5c-3-6-7.8-9.2-9.9-10.4c-3.9-2.3-7.4-2.9-10.5-3.4
		c-2.6-0.4-6.6-1.1-11.8,0c-1.5,0.3-1,0.4-5.6,1.8c-0.7,0.2-1.8,0.6-2.8,1.5c-0.5,0.5-0.5,0.8-0.8,0.9c-1,0.4-2.8-1.3-3.7-2.5
		c-1.5-2.1-1.8-4.2-2.1-7.2c-0.4-3.7,0-6.6,0.3-8.9c0.2-1.7,0.5-3.4,0.9-5.1c0.1-0.3,0.2-1.2,0.1-2.4c-0.1-0.6-0.1-1.3-0.4-1.8
		c-0.3-0.6-1.1-1.1-3.5-1.5c-1.9-0.3-3.8-0.6-6.5-0.2C305.5,578.5,304.2,578.8,303.1,579.7z"/>
</g>
<g id="XMLID_1_" class="st1">
	<path id="XMLID_132_" class="st13" d="M604.7,638.6c0,3.2-0.2,6.4-0.5,9.5c-0.2,1.6-0.4,3.3-0.7,4.9c-6.4,39.2-38.9,69.7-79,73
		c-2.5,0.2-5,0.3-7.5,0.3c-4.6,0-9.2-0.4-13.6-1.1c-41.9-6.5-74-42.8-74-86.6c0-48.4,39.3-87.7,87.7-87.7
		C565.4,550.9,604.7,590.2,604.7,638.6z"/>
	<path id="XMLID_130_" class="st14" d="M604.2,648c-0.2,1.6-0.4,3.3-0.7,4.9c-6.4,39.2-38.9,69.7-79,73L465.8,667l-6-20.5l-0.8-3.2
		l2.7-32.7l1.3-2.9l4.2-1l27.6-4.7l35.2,34.7l7-2.9l4.4-6.2l2.2-2.4l25.3-12.1L604.2,648z"/>
	<path id="XMLID_110_" class="st10" d="M495.4,608.1c-0.1,1.1-0.7,3.8-2.8,6.3c-0.7,0.8-2.3,2.7-5,3.5c-4,1.2-7.5-0.7-7.7-0.2
		c-0.1,0.4,1.4,1.6,3.3,1.9c1.4,0.2,2-0.3,3,0.1c1.2,0.5,1.7,1.9,2,2.9c0.6,2,0.4,3.2-0.2,7.8c-0.5,4.6-0.6,5.9-1.7,6.6
		c-0.8,0.5-1.3,0.2-3.1,0.9c-1.1,0.4-2.5,1.2-2.4,1.6c0.1,0.4,2-0.3,4.1,0.2c2.2,0.5,3.6,2.1,4.3,3c3.1,3.6,3,8.3,3,10.8
		c-0.1,5.1-1.9,8.5-2.3,9.3c-0.8,1.5-1.8,3.3-3.9,4.8c-2.3,1.6-4.5,1.9-6.6,2.1c-1,0.1-4.6,0.5-9.2-0.9c-2.3-0.7-6.2-1.9-9.4-5.5
		c-0.8-0.9-2.6-3-3.4-6.3c-0.3-1.2-0.8-3.4,0-6.2c0.4-1.3,0.8-3,2.3-4.3c2.3-1.8,5.6-1.3,5.6-1.5c0-0.2-2.6,0.2-5.1-0.9
		c-0.5-0.2-1.7-0.9-3.4-3c-1.2-1.5-3.6-4.6-4.4-9.4c-0.8-4.7,0.4-8.3,1.2-10.5c1-2.9,2.5-4.9,5.4-8.8c0.5-0.7,1.5-1.9,2.7-1.8
		c0.6,0.1,0.8,0.4,1.4,0.8c1.9,1.3,4.2,1.2,4.3,1.1c0-0.2-1.9-0.3-3.2-1.8c-1.1-1.2-1.2-2.8-1.3-3.1c-0.3-3.6,3.4-6.5,5.2-8
		c3.7-3,7.5-3.9,9-4.2c5.3-1,9.4,0.4,10.3,0.8c2.3,0.8,4.9,1.8,6.6,4.4C496,603.7,495.5,607,495.4,608.1z"/>
	<path id="XMLID_112_" class="st10" d="M495.9,632.4c-0.6,0.1-0.5,0.7-2.1,2.7c-0.8,1-1.2,1.4-1.3,2.2c0,0.6,0.3,1.1,0.5,1.3
		c1.5,2.2,2.7,2.9,3.6,4.3c0.8,1.3,0.3,1.5,1.3,4.3c0.8,2.2,1.7,3.6,2,4.3c1.5,2.8,1.7,6.4,2.1,13.1c0.4,7.5,0.2,17.6-0.5,19.1
		c0,0.1-0.3,0.7-0.1,1.1c0.2,0.4,0.6,0.5,0.8,0.6c0.9,0.3,2.2,0.2,2.8-0.6c0.5-0.7,0.2-1.6,0.2-1.8c-0.9-4.1,0.5-8.3,0.4-12.5
		c-0.1-11.2,0.2-9.4,0-13.1c-0.3-6.7-0.5-10-1.9-13.1c-1.7-3.7-2.8-3.2-5.4-8.6C497.7,634.2,496.8,632.3,495.9,632.4z"/>
	<path id="XMLID_113_" class="st10" d="M496.9,629.5c-0.1,0.4-1,0.3-1.9,0.8c-0.2,0.1-0.6,0.3-1.9,2.1c-1.4,1.9-2.1,2.8-2.4,3.8
		c-0.1,0.4-0.3,1.2-0.9,2.1c-0.4,0.6-0.7,0.9-1.1,0.9c-0.3,0.1-0.8,0-1.1-0.3c-0.3-0.4,0.1-1,0.5-2c0.2-0.5,0.6-1.4,1.3-3.2
		c0.6-1.7,1-2.5,0.9-3.3c0-0.9-0.3-1.3,0-1.6c0.4-0.5,1.2,0,3.1-0.1c1.3-0.1,1.9-0.4,2.8,0.1C496.4,628.9,496.9,629.2,496.9,629.5z"
		/>
	<path id="XMLID_114_" class="st10" d="M507.2,629c-1.2,0.2-2.1-0.7-3.4-1.4c-1.1-0.5-2.2-0.6-4.5-0.9c-0.6-0.1-1.9-0.1-4.5-0.2
		c-0.9,0-1.7-0.2-2.6-0.1c-0.8,0-1.3,0.2-1.6-0.1c-0.2-0.3,0.2-0.7,0.3-1.5c0.1-1.1-0.4-2-1.1-3.3c-0.7-1.2-1.3-1.8-1.1-2.1
		c0.1-0.2,0.4-0.1,1.1-0.2c0.1,0,1.3-0.2,2.1-1c0.8-0.8,0.7-1.6,1.1-1.6c0.5-0.1,0.9,1.3,1.9,2.6c0.7,0.8,1.9,1.5,4.3,2.7
		c1.2,0.6,0.5,0.2,4.9,2.2c1.9,0.8,2.4,1.1,3.3,1.1c0.8,0,1.5-0.3,1.8,0.1c0.3,0.3,0.2,0.8,0,1.5c-0.1,0.6-0.3,1.2-0.8,1.7
		C507.8,628.9,507.3,629,507.2,629z"/>
	<path id="XMLID_123_" class="st10" d="M539,619.1c0.1,1.1,0.7,3.8,2.8,6.3c0.7,0.8,2.3,2.7,5,3.5c4,1.2,7.5-0.7,7.7-0.2
		c0.1,0.4-1.4,1.6-3.3,1.9c-1.4,0.2-2-0.3-3,0.1c-1.2,0.5-1.7,1.9-2,2.9c-0.6,2-0.4,3.2,0.2,7.8c0.5,4.6,0.6,5.9,1.7,6.6
		c0.8,0.5,1.3,0.2,3.1,0.9c1.1,0.4,2.5,1.2,2.4,1.6c-0.1,0.4-2-0.3-4.1,0.2c-2.2,0.5-3.6,2.1-4.3,3c-3.1,3.6-3,8.3-3,10.8
		c0.1,5.1,1.9,8.5,2.3,9.3c0.8,1.5,1.8,3.3,3.9,4.8c2.3,1.6,4.5,1.9,6.6,2.1c1,0.1,4.6,0.5,9.2-0.9c2.3-0.7,6.2-1.9,9.4-5.5
		c0.8-0.9,2.6-3,3.4-6.3c0.3-1.2,0.8-3.4,0-6.2c-0.4-1.3-0.8-3-2.3-4.3c-2.3-1.8-5.6-1.3-5.6-1.5c0-0.2,2.6,0.2,5.1-0.9
		c0.5-0.2,1.7-0.9,3.4-3c1.2-1.5,3.6-4.6,4.4-9.4c0.8-4.7-0.4-8.3-1.2-10.5c-1-2.9-2.5-4.9-5.4-8.8c-0.5-0.7-1.5-1.9-2.7-1.8
		c-0.6,0.1-0.8,0.4-1.4,0.8c-1.9,1.3-4.2,1.2-4.3,1.1c0-0.2,1.9-0.3,3.2-1.8c1.1-1.2,1.2-2.8,1.3-3.1c0.3-3.6-3.4-6.5-5.2-8
		c-3.7-3-7.5-3.9-9-4.2c-5.3-1-9.4,0.4-10.3,0.8c-2.3,0.8-4.9,1.8-6.6,4.4C538.4,614.7,538.8,617.9,539,619.1z"/>
	<path id="XMLID_122_" class="st10" d="M538.5,643.3c0.6,0.1,0.5,0.7,2.1,2.7c0.8,1,1.2,1.4,1.3,2.2c0,0.6-0.3,1.1-0.5,1.3
		c-1.5,2.2-2.7,2.9-3.6,4.3c-0.8,1.3-0.3,1.5-1.3,4.3c-0.8,2.2-1.7,3.6-2,4.3c-1.5,2.8-1.7,6.4-2.1,13.1c-0.4,7.5-0.2,17.6,0.5,19.1
		c0,0.1,0.3,0.7,0.1,1.1c-0.2,0.4-0.6,0.5-0.8,0.6c-0.9,0.3-2.2,0.2-2.8-0.6c-0.5-0.7-0.2-1.6-0.2-1.8c0.9-4.1-0.5-8.3-0.4-12.5
		c0.1-11.2-0.2-9.4,0-13.1c0.3-6.7,0.5-10,1.9-13.1c1.7-3.7,2.8-3.2,5.4-8.6C536.6,645.2,537.5,643.2,538.5,643.3z"/>
	<path id="XMLID_120_" class="st10" d="M537.5,640.5c0.1,0.4,1,0.3,1.9,0.8c0.2,0.1,0.6,0.3,1.9,2.1c1.4,1.9,2.1,2.8,2.4,3.8
		c0.1,0.4,0.3,1.2,0.9,2.1c0.4,0.6,0.7,0.9,1.1,0.9c0.3,0.1,0.8,0,1.1-0.3c0.3-0.4-0.1-1-0.5-2c-0.2-0.5-0.6-1.4-1.3-3.2
		c-0.6-1.7-1-2.5-0.9-3.3c0-0.9,0.3-1.3,0-1.6c-0.4-0.5-1.2,0-3.1-0.1c-1.3-0.1-1.9-0.4-2.8,0.1
		C537.9,639.8,537.4,640.2,537.5,640.5z"/>
	<path id="XMLID_118_" class="st10" d="M527.2,640c1.2,0.2,2.1-0.7,3.4-1.4c1.1-0.5,2.2-0.6,4.5-0.9c0.6-0.1,1.9-0.1,4.5-0.2
		c0.9,0,1.7-0.2,2.6-0.1c0.8,0,1.3,0.2,1.6-0.1c0.2-0.3-0.2-0.7-0.3-1.5c-0.1-1.1,0.4-2,1.1-3.3c0.7-1.2,1.3-1.8,1.1-2.1
		c-0.1-0.2-0.4-0.1-1.1-0.2c-0.1,0-1.3-0.2-2.1-1c-0.8-0.8-0.7-1.6-1.1-1.6c-0.5-0.1-0.9,1.3-1.9,2.6c-0.7,0.8-1.9,1.5-4.3,2.7
		c-1.2,0.6-0.5,0.2-4.9,2.2c-1.9,0.8-2.4,1.1-3.3,1.1c-0.8,0-1.5-0.3-1.8,0.1c-0.3,0.3-0.2,0.8,0,1.5c0.1,0.6,0.3,1.2,0.8,1.7
		C526.5,639.8,527,639.9,527.2,640z"/>
</g>
<g id="Uterus" class="st1">
	<path id="XMLID_139_" class="st8" d="M803.6,638.6c0,4.9-0.4,9.7-1.2,14.3c-5.9,35.9-33.5,64.4-69,71.6c-5.7,1.1-11.5,1.8-17.5,1.8
		c-4.6,0-9.2-0.4-13.6-1.1c-42-6.5-74-42.8-74-86.6c0-48.4,39.3-87.7,87.7-87.7c42.5,0,77.9,30.2,85.9,70.3
		C803,626.8,803.6,632.6,803.6,638.6z"/>
	<path id="XMLID_137_" class="st9" d="M803.6,638.6c0,4.9-0.4,9.7-1.2,14.3c-5.9,35.9-33.5,64.4-69,71.6L706,697.3l0.7-21.8
		l-53.8-52.8l-2.1-5.8l-1-10.9l8.5-3.4l9.4,3.9l6.5,2.1l4.5,3.9l7.2-0.3l6.8-2.6l20.4-3.9l27.9,4.9l7.3,2.4l4.8-0.5l7.1-4.8
		l11.2-4.5h12.5l18.2,17.9C803,626.8,803.6,632.6,803.6,638.6z"/>
	<path id="XMLID_143_" class="st10" d="M785.2,612.1c-0.3,1.2-1.1,2.7-2.6,5.8c-0.6,1.3-1.2,2.5-2.4,3.7c-0.6,0.6-0.9,1.2-1.3,1.1
		c-0.8-0.2-0.4-3.1-1.1-3.2c-0.2,0-0.4,0.2-1.2,1c-1.5,1.5-1.7,1.5-1.7,1.5c-0.5-0.2,0.7-3,0.1-3.4c-0.6-0.4-2.8,2.8-3.3,2.3
		c-0.6-0.6,1.9-2.1,1.4-3.4c-0.3-0.7-1.3-1-1.4-1c-1.6-0.4-3,0.9-3.3,0.6c-0.2-0.2,1.2-1.1,1-1.9c-0.1-0.5-0.9-0.8-1.5-0.9
		c-0.7-0.1-1,0.2-1.5-0.1c-0.3-0.1-0.6-0.5-0.5-0.7c0.1-0.3,1.5-0.2,4.3,0c3,0.3,3.6,0.3,4.6,0.2c1.4-0.2,2.4-0.3,3.2-1.1
		c1.4-1.3,1.4-3.5,0.9-4.9c-0.5-1.4-1.4-2.3-1.8-2.6c-0.4-0.4-1.2-1-2.2-1.2c-1-0.2-2,0-4.7,1.6c-3.3,1.9-2.8,2.1-4.3,2.7
		c-2.8,1.1-3.8,0-6.1,1.4c-0.7,0.4-0.5,0.5-2.6,2.1c-1.7,1.3-2.5,2-3.3,2.3c-2.4,1.1-4.7,0.5-5.3,0.4c-1.5-0.3-3.1-1.1-4.9-1.9
		c-1.1-0.5-1.9-1-2.8-0.7c-0.9,0.3-1.4,1-1.7,1.4c-1.7,2.6-2.6,5.8-2.8,6.8c-1.3,4.5-2.8,3.8-5.3,10.2c-1.5,3.8-0.8,3.6-1.9,5.4
		c-1.6,2.7-3.7,3.9-5.7,7.8c0,0,0,0.1-0.1,0.1c-0.3,0.5-0.9,1.8-0.7,2c0.1,0.1,0.3-0.1,0.6-0.4c0.4-0.4,1-1,1.6-1.7
		c3.1-3.3,4-4.5,4.5-4.3c0.4,0.2,0.4,1.2,0.4,1.8c0,4.7,0.7-0.4,0.7,9.5c0,4.3,0,6.4-0.3,7.3c-0.8,2.2-2.1,4-3.3,5.6
		c-0.8,1.1-0.9,1.1-2.8,3.5c-1.6,2.1-1.4,2-2.6,3.5c-0.1,0.2-0.3,0.3-0.4,0.5c-1.2,1.5-1.8,2.2-1.6,2.3c0,0,0.1,0.1,1.5-0.7
		c0.3-0.2,0.6-0.4,1-0.6c2.5-1.5,3.7-2.3,4.7-3.4c1-1.1,1.2-1.6,1.5-1.5c0.9,0.2,0.6,4.5,0.4,6.5c-0.1,1.6-0.4,4.8-1.5,10.3
		c-0.8,4.1-1.1,4.4-1.2,6.3c-0.2,3.5-0.3,5.3-0.1,5.9c0.1,0.3,0.3,1,0,1.1c-0.3,0.2-1-0.8-2.3-1.8c-0.6-0.4-2.2-1.7-4.2-2
		c-1.4-0.2-3.1,0.1-3.5,0.1c0,0,0,0,0,0c0,0,0,0,0,0c-0.3,0-2.1-0.3-3.5-0.1c-2,0.3-3.6,1.6-4.2,2c-1.3,1-1.9,1.9-2.3,1.8
		c-0.3-0.1-0.1-0.9,0-1.1c0.2-0.7,0.1-2.4-0.1-5.9c-0.1-1.9-0.4-2.2-1.2-6.3c-1.1-5.4-1.4-8.7-1.5-10.3c-0.2-2-0.5-6.3,0.4-6.5
		c0.3-0.1,0.5,0.5,1.5,1.5c1,1.1,2.3,1.8,4.7,3.4c0.4,0.2,0.7,0.4,1,0.6c1.3,0.8,1.4,0.7,1.5,0.7c0.1-0.1-0.5-0.8-1.7-2.3
		c-0.1-0.2-0.3-0.3-0.4-0.5c-1.2-1.5-1-1.4-2.6-3.5c-1.9-2.4-1.9-2.4-2.8-3.5c-1.2-1.6-2.5-3.4-3.3-5.6c-0.3-1-0.3-3.1-0.3-7.3
		c0-9.9,0.7-4.8,0.7-9.5c0-0.7,0-1.6,0.4-1.8c0.5-0.2,1.4,1,4.5,4.3c0.6,0.7,1.2,1.3,1.6,1.7c0.3,0.3,0.5,0.4,0.6,0.4
		c0.2-0.1-0.4-1.4-0.7-1.9c0-0.1,0-0.1-0.1-0.1c-2-3.9-4-5.1-5.7-7.8c-1.1-1.8-0.4-1.7-1.9-5.4c-2.5-6.4-4.1-5.7-5.3-10.2
		c-0.3-1-1.1-4.3-2.8-6.8c-0.3-0.4-0.8-1.2-1.7-1.4c-0.9-0.3-1.8,0.2-2.8,0.7c-1.8,0.9-3.4,1.6-4.9,1.9c-0.6,0.1-3,0.7-5.3-0.4
		c-0.7-0.3-1.5-1-3.3-2.3c-2.1-1.6-1.8-1.7-2.6-2.1c-2.3-1.4-3.3-0.3-6.1-1.4c-1.5-0.6-1-0.8-4.3-2.7c-2.7-1.5-3.7-1.8-4.7-1.6
		c-1,0.2-1.8,0.9-2.2,1.2c-0.4,0.3-1.4,1.2-1.8,2.6c-0.5,1.4-0.5,3.6,0.9,4.9c0.8,0.8,1.8,0.9,3.2,1.1c1,0.1,1.6,0.1,4.6-0.2
		c2.8-0.2,4.1-0.3,4.3,0c0.1,0.2-0.3,0.5-0.5,0.7c-0.5,0.3-0.9,0-1.5,0.1c-0.5,0.1-1.3,0.4-1.5,0.9c-0.2,0.8,1.2,1.6,1,1.8
		c-0.3,0.3-1.7-1-3.3-0.6c-0.2,0-1.1,0.3-1.4,1c-0.5,1.3,2,2.8,1.4,3.4c-0.6,0.4-2.6-2.7-3.3-2.3c-0.6,0.4,0.6,3.2,0.1,3.4
		c0,0-0.2,0.1-1.7-1.5c-0.9-0.9-1-1.1-1.2-1c-0.7,0.2-0.3,3-1.1,3.2c-0.3,0.1-0.6-0.5-1.3-1.1c-1.2-1.2-1.8-2.4-2.4-3.7
		c-1.5-3.1-2.3-4.7-2.6-5.8c-0.5-2-0.9-3.4-0.5-5.2c0.1-0.6,0.6-2.3,2-3.7c2.2-2.3,5.4-2.3,8.5-2.3c2.8,0,4.6-0.1,6.6,1
		c2.3,1.2,2.7,2.7,5.2,3.3c1.1,0.2,1.8,0.1,3.1,0.6c1.1,0.4,1.7,1,2.8,1.8c2.7,2.1,4,3.1,5.2,3.6c0.7,0.3,2.7,1,5,0.5
		c1.7-0.4,2.9-1.3,4-2.3c1.8-1.6,2.7-2.9,3.9-4.7c1.7-2.3,3.6-5,6.3-7.2c2.8-2.3,5.5-3.3,7.2-3.8c4.5-1.5,8.5-1.6,10.2-1.6
		c2.1,0.1,5.8,0.1,10.2,1.6c1.6,0.6,4.4,1.6,7.2,3.8c2.6,2.1,4.6,4.8,6.3,7.2c1.3,1.7,2.1,3.1,3.9,4.7c1.1,1,2.3,1.9,4,2.3
		c2.3,0.5,4.3-0.2,5-0.5c1.2-0.5,2.5-1.5,5.2-3.6c1-0.8,1.6-1.3,2.8-1.8c1.3-0.5,2-0.4,3.1-0.6c2.5-0.5,2.9-2,5.2-3.3
		c2-1.1,3.8-1,6.6-1c3.1,0,6.3,0.1,8.5,2.3c1.4,1.4,1.9,3.1,2,3.7C786.1,608.7,785.7,610.1,785.2,612.1z"/>
	<path id="XMLID_116_" class="st10" d="M666.9,614.7c-0.3,0.4,0.1,1-0.3,1.3c-0.5,0.5-1.8-0.6-2.3-0.3c-0.4,0.4,0.6,1.5,0.1,2.2
		c-0.3,0.5-1.3,0.5-1.8,0.4c-1.3-0.1-2-0.7-2.3-0.4c-0.2,0.2,0.2,1,0.6,1.6c0.7,0.7,1.3,0.7,1.3,1.1c0.1,0.6-1.4,0.9-1.6,1.8
		c-0.1,0.5,0.2,1,1.3,2.1c1.5,1.5,2.4,2.3,4.1,2.9c2.7,1.1,5.1,0.6,6.6,0.3c1.5-0.3,3-0.6,4.3-1.9c0.4-0.4,1.4-1.4,1.5-2.9
		c0.1-1.3-0.6-2.2-1.4-3.4c-0.8-1.1-2.3-3.1-5.1-4.3C670.1,614.2,667.5,613.8,666.9,614.7z"/>
	<path id="XMLID_124_" class="st10" d="M693.4,622.1c0.6,0.5,0.6,1.4,0.5,1.6c-0.1,0.2-0.8,0-1.3-0.2c-1.2-0.4-2.3-0.3-4.6,0
		c-2,0.2-3,0.3-4,0.9c-0.5,0.3-0.9,0.6-1.8,0.8c-0.9,0.2-2.1,0.2-2.3-0.3c-0.2-0.5,0.8-1.4,0.9-1.5c0.9-0.8,1.9-0.9,3.5-1
		c3.3-0.3,3.3-0.2,4.8-0.3C691.7,621.7,692.9,621.7,693.4,622.1z"/>
	<path id="XMLID_127_" class="st10" d="M764.7,614.7c0.3,0.4-0.1,1,0.3,1.3c0.5,0.5,1.8-0.6,2.3-0.3c0.4,0.4-0.6,1.5-0.1,2.2
		c0.3,0.5,1.3,0.5,1.8,0.4c1.3-0.1,2-0.7,2.3-0.4c0.2,0.2-0.2,1-0.6,1.6c-0.7,0.7-1.3,0.7-1.3,1.1c-0.1,0.6,1.4,0.9,1.6,1.8
		c0.1,0.5-0.2,1-1.3,2.1c-1.5,1.5-2.4,2.3-4.1,2.9c-2.7,1.1-5.1,0.6-6.6,0.3c-1.5-0.3-3-0.6-4.3-1.9c-0.4-0.4-1.4-1.4-1.5-2.9
		c-0.1-1.3,0.6-2.2,1.4-3.4c0.8-1.1,2.3-3.1,5.1-4.3C761.5,614.2,764.2,613.8,764.7,614.7z"/>
	<path id="XMLID_126_" class="st10" d="M738.2,622.1c-0.6,0.5-0.6,1.4-0.5,1.6c0.1,0.2,0.8,0,1.3-0.2c1.2-0.4,2.3-0.3,4.6,0
		c2,0.2,3,0.3,4,0.9c0.5,0.3,0.9,0.6,1.8,0.8c0.9,0.2,2.1,0.2,2.3-0.3c0.2-0.5-0.8-1.4-0.9-1.5c-0.9-0.8-1.9-0.9-3.5-1
		c-3.3-0.3-3.3-0.2-4.8-0.3C739.9,621.7,738.7,621.7,738.2,622.1z"/>
</g>
<g id="Tooth" class="st1">
	<path id="XMLID_62_" class="st17" d="M198.9,894.2c0,4.9-0.4,9.7-1.2,14.3c-0.5,2.8-1.1,5.6-1.8,8.3c-8.2,30.9-32.9,55.1-64.1,62.6
		c-6.6,1.6-13.5,2.4-20.6,2.4c-4.6,0-9.2-0.4-13.6-1.1c-41.9-6.5-74-42.8-74-86.6c0-48.4,39.3-87.7,87.7-87.7
		C159.7,806.5,198.9,845.7,198.9,894.2z"/>
	<path id="XMLID_60_" class="st18" d="M195.9,916.8c-8.2,30.9-32.9,55.1-64.1,62.6l-39.2-39.9l-0.5-52.3l3.5-26.7l23,0.8l15.3-6.6
		L195.9,916.8z"/>
	<path id="XMLID_74_" class="st10" d="M135.5,899.2c-1.1-1.7-2.7-3.3-2.5-5.7c0.1-1.5,0.9-2.5,1.5-3.5c1.5-2.2,2.2-4.6,3.7-9.3
		c2-6.5,1-12.5,0.5-15c-0.8-4.3-1.5-7.9-4.7-11c-0.7-0.7-5-4.8-9.3-3.8c-3.8,0.9-5.2,4.2-9.7,7.2c-2.8,1.9-5.2,1.1-5.7,1
		c-2.7-0.4-4.6-2.1-5.5-2.8c-2.7-2.3-2.6-4-4.8-4.8c-1.6-0.6-3.1-0.2-4,0c-3.2,0.8-5.1,3.1-6.5,4.8c-0.6,0.7-3.6,4.5-4.7,10.7
		c-0.4,2-1.1,5.8,0.2,10.2c1.4,5,3.8,5.8,4.3,10.7c0.2,2.3-0.1,4.1-0.5,6.5c-0.8,4.2-1.9,6.4-2.7,8.7c-1.3,3.9-1,7.5-0.3,14.8
		c0.1,1.4,0.8,8.9,4.2,17c1,2.3,2.2,4.9,3.7,4.8c0.8,0,1.5-0.8,2.2-2c2.1-3.6,2.4-7,2.7-9.8c0.6-6.2,0.9-9.3,1.5-11.2
		c1.2-3.6,2.8-6,4-7.8c2-2.9,3.1-4.5,5.2-5.2c2.6-0.9,5.1,0.1,6,0.5c0.9,0.3,3.7,1.7,7.3,8c1.2,2,2.7,5,4.3,10.3
		c1.9,6.2,1.1,7.8,3.2,13.8c1.1,3,2.7,7.5,4.7,7.5c1,0,1.7-1.2,2.5-2.5c1.5-2.5,1.8-5,1.8-5.7c0.7-7.7,1-11.5,1-13.7
		c0-6.9,0.1-10.4-0.2-11.8C137.9,904.7,137.4,902.1,135.5,899.2z M124.5,866.9c-1.2,1.3-2.5,2.3-4,3.1c-2.7,1.5-5,1.7-6.3,1.9
		c-0.5,0-1.3,0.2-2.4,0.2c-1.6,0-3.7-0.2-6.1-1c-3.6-1.3-6.1-3.5-7.7-5.4c-0.3-0.4-0.3-1,0.1-1.3l0.2-0.2c0.4-0.3,0.9-0.2,1.2,0.1
		c1.4,1.7,3.6,3.6,6.9,4.8c3.5,1.3,6.4,0.9,7.5,0.8c1.1-0.1,3.2-0.4,5.6-1.6c1.3-0.7,2.5-1.6,3.5-2.7c0.3-0.3,0.9-0.4,1.2-0.1
		l0.2,0.2C124.7,866,124.8,866.6,124.5,866.9z"/>
</g>
<g id="Bone" class="st1">
	<path id="XMLID_154_" class="st2" d="M804,893.5c0,2.9-0.1,5.7-0.4,8.5c0,0.3,0,0.6-0.1,0.9c-0.2,1.6-0.4,3.3-0.7,4.9
		c-5.9,35.8-33.4,64.3-68.7,71.6c-3.4,0.7-6.8,1.2-10.3,1.5c-2.5,0.2-5,0.3-7.5,0.3c-4.6,0-9.2-0.4-13.6-1.1
		c-42-6.5-74-42.8-74-86.6c0-48.4,39.3-87.7,87.7-87.7C764.7,805.8,804,845.1,804,893.5z"/>
	<path id="XMLID_152_" class="st3" d="M803.6,902c0,0.3,0,0.6-0.1,0.9c-0.2,1.6-0.4,3.3-0.7,4.9c-5.9,35.8-33.4,64.3-68.7,71.6
		l-6.9-5.7l3.3-7.6l-2.6-5.9l-7.4-4.1l-3.2-10l-1.3-14.1l1.3-11.4l2.7-5.8l2.7-10.1l-0.6-20.9l-4.4-7.7l-20.9-20.4l9.2-4.7l-9.8-9.9
		l0.5-5.8l3.8-5.2l22.3-6.6L803.6,902z"/>
	<g id="XMLID_145_" class="st19">
		<path id="XMLID_157_" class="st7" d="M727.4,829.9c-0.5-1.3-2.2-5.5-6.7-7.9c-3.7-2-7.3-1.6-10-1.3c-1.7,0.2-6.1,0.8-9.8,3.9
			c-1.1,1-3.9,3.3-3.8,5.3c0,0.3,0.2,1.2-0.3,2c-0.3,0.5-0.8,0.5-0.9,0.9c-0.3,1,0.5,3.8-0.5,7c-0.3,0.9-0.7,1.2-0.6,1.9
			c0.2,1,1.4,1,2,2.3c0.4,0.8,0.4,2-0.1,2.5c-0.3,0.3-0.6,0.1-0.8,0.4c-0.1,0.2-0.1,2.7,0.2,2.8c1.4,0.1,7.7,0.2,7.7-0.2
			c0-0.4-0.1-0.8,0.1-1.6c0.2-0.5,0.4-0.7,0.6-1.1c0.8-1.6-0.2-3.1,0.6-3.8c0,0,0.4-0.3,0.7-0.2c0.5,0.2,0.3,1.5,0.3,4.7
			c0,1.4,0.1,1.9-0.3,2.4c-0.5,0.7-0.9,0.8-2,0.8c-4,0-7.8,0.1-7.8,0.1c0.1,0.4,0.4,0.6,0.6,1.8c0.3,1.4-0.3,2.2,0.3,3.2
			c0.2,0.4,0.5,0.6,0.6,0.7c1.2,0.9,2.9,0.3,5.5-0.5c1.8-0.6,2.9-1.1,3.3-1.4c1.2-0.7,2.1-1.2,2.8-2.3c0.3-0.4,0.4-0.8,0.6-1.5
			c0.7-2.1,0.3-2.8,1.1-3.8c0.4-0.5,0.7-0.5,1-1c0.4-0.8,0.1-1.5,0.3-1.6c0.3-0.1,0.7,0.4,1.1,0.9c0.5,0.5,0.6,0.9,0.8,1
			c0.2,0.3,0.9,0.6,4.1,0.3c1-0.1,3.7-0.4,6.2-2.5c0.4-0.3,2.5-2.1,3.5-5.2C729.2,834.9,727.9,831.3,727.4,829.9z M701.3,840.2
			c-0.1,0.5-0.2,1.3-0.8,1.7c-0.8,0.5-1.8-0.1-2-0.2c-0.9-0.5-1.2-1.4-1.3-1.7c-0.1-0.5-0.3-1.3-0.3-1.7c0-0.9,0.2-1.3,0.7-1.7
			c0.7-0.5,2.3,0.2,3.1,1.3C700.7,838,701.4,838.9,701.3,840.2z M705.1,841.8c-0.2-0.1-0.4-0.1-0.5-0.3c-0.1-0.1-0.2-0.3-0.2-1.2
			c0-0.6,0.1-0.8,0-1.1c-0.1-0.3-0.4-0.4-0.5-0.5c-0.6-0.4-0.7-0.8-1.5-2.1c-1.1-1.7-1.4-1.5-1.6-2.2c-0.3-1,0-1.8,0.1-2.1
			c0.2-0.5,0.5-1,0.6-0.9c0.2,0.1-0.2,1.1,0.3,2.1c0.1,0.3,0.2,0.4,0.8,0.9c1.1,1.2,1.7,1.8,1.9,2.3c0.4,0.8,0.7,1.7,0.8,2
			c0.2,0.8,0.2,1.2,0.5,1.5c0.5,0.6,1.4,0.4,1.5,0.7c0.1,0.4-0.6,0.8-0.7,0.8C705.9,842.1,705.2,841.9,705.1,841.8z M710.1,844.4
			c-0.2,0.2-0.3,0.4-0.4,0.5c-0.3,0.5-0.2,0.8-0.3,0.8c-0.1,0-0.1-0.4-0.4-0.7c-0.3-0.2-0.5,0-1.1-0.1c-0.3,0-0.7-0.1-0.9-0.3
			c-0.2-0.2-0.5-0.6-0.3-0.9c0.1-0.2,0.3-0.3,0.7-0.4c0.7-0.2,1.8-0.2,2.9-0.1c0.6,0,1,0.5,1,0.7C711.2,844.2,710.6,844,710.1,844.4
			z M713.1,843.3c-0.1,0.3-0.7,0.4-0.9,0.4c-0.5,0-0.9-0.2-1.2-0.3c-0.2-0.1-0.4-0.2-0.5-0.4c0-0.2,0.2-0.4,0.2-0.4
			c0.5-0.4,1.4-0.5,2,0.1C712.9,842.6,713.3,843,713.1,843.3z"/>
		<path id="XMLID_31_" class="st7" d="M718.2,847.7c-2.5,0.5-3.7,0.3-4.4,0c-0.1-0.1-0.5-0.3-0.8-0.1c-0.3,0.2,0.2,0.8,0,1.6
			c-0.2,0.8-0.9,0.8-1.2,1.8c-0.1,0.2-0.3,0.9,0,1.3c0.5,0.7,2,0.7,2.6,0c0.4-0.4,0.2-0.8,0.6-0.9c0.3-0.1,0.6,0.3,1.4,0.7
			c0.1,0,0.7,0.4,1.5,0.6c0.5,0.1,1.5,0.2,2.6-0.2c0.5-0.2,1.3-0.5,1.4-1.1c0.1-0.6-0.8-1.1-0.8-1.1c-0.1-0.1-0.6-0.3-2.2-0.2
			c-1.2,0.1-1.6,0.3-2,0c-0.3-0.2-0.5-0.7-0.4-1c0.1-0.2,0.4-0.2,0.8-0.4C717.7,848.3,718,848,718.2,847.7z"/>
		<path id="XMLID_35_" class="st7" d="M719.6,851.3c-0.1,0.3-0.6,0.4-0.7,0.5c-0.7,0.1-1.5-0.4-1.5-0.9c0-0.4,0.9-0.8,1.5-0.6
			C719.3,850.5,719.7,851,719.6,851.3z"/>
		<path id="XMLID_47_" class="st7" d="M727.2,973.6c0.7,0.3,2.3-1.8,3.2-3.3c1.5-2.7,1.7-5.3,1.8-6.7c0-1.1,0.1-4.8-2.2-8
			c-1.3-1.8-2.1-1.8-4.2-4.6c-0.4-0.5-0.7-0.9-1.3-1.3c-1.1-0.6-1.9-0.1-4.7,0.3c-1.7,0.2-1.7,0-3.3,0.3c-2,0.3-3.4,0.8-3.4,0.9
			c0,0.2,1.8-0.4,2.8,0.5c0.8,0.8,0.7,2.3,0.7,2.7c-0.1,1.5-0.9,1.8-0.8,3c0,0.3,0.1,1.3,0.8,1.8c1.2,0.9,2.7-0.6,4.2,0.3
			c1.2,0.7,0.7,2,1.9,2.7c1,0.5,1.5-0.2,3.2,0.2c0.4,0.1,1.6,0.4,2.4,1.4c1.3,1.7,0.5,4.2,0.4,4.3c-0.6,1.7-1.8,2-2,3.7
			C726.7,972.4,726.7,973.5,727.2,973.6z"/>
		<polygon id="XMLID_50_" class="st7" points="713.1,948.6 720.4,948.6 720.4,946.6 722.2,946.6 723,947.6 727.9,947.6 727.9,945 
			726.6,943.7 722.3,943.7 722.3,944.6 720.5,944.6 720.5,943.7 713.1,943.7 		"/>
		<polygon id="XMLID_51_" class="st7" points="713.1,942.2 720,942.2 720,940.4 721.6,940.4 722.4,942.3 728,942.3 728,938.8 
			726.8,937.6 721.7,937.6 721.7,938.5 720.1,938.5 720.1,937.6 713.1,937.6 		"/>
		<polygon id="XMLID_52_" class="st7" points="713.4,935.6 719.5,935.6 719.5,934.1 721.2,934.1 722.4,935.3 726.7,935.3 
			726.7,933.3 725.5,932.1 721.2,932.1 721.2,932.7 720,932.7 720,931.1 713.4,931.1 		"/>
		<polygon id="XMLID_56_" class="st7" points="713.1,928.9 713.1,925.1 719.5,925.1 719.5,926.3 721,926.3 721,925.4 724.6,925.4 
			726.3,927.1 726.3,929.6 722.1,929.6 722.1,927.7 719.7,927.7 719.7,928.9 		"/>
		<polygon id="XMLID_90_" class="st7" points="713.4,921.6 714.6,919.4 714.6,917.6 721.5,918.6 721.5,920 722.5,920 723.4,919.2 
			728,921.1 727.9,923.7 723,923.4 722.8,921.6 721,921.6 720.5,923.7 717.4,922.6 713.4,922.6 		"/>
		<polygon id="XMLID_94_" class="st7" points="722.5,916.3 716.1,916.3 716.1,915 717.5,912.8 722,912.8 722.5,913.5 724.9,913.5 
			726.7,913.6 729.5,915.8 728.9,917.6 725.2,917.6 724.4,915.2 722.8,915.2 		"/>
		<polygon id="XMLID_6_" class="st7" points="717.8,910.1 718.8,908.9 718.8,906.9 724.4,907.3 725,908.1 725.7,908.1 727.2,907.8 
			728.9,908.5 730.4,909.7 730.4,911.3 726.3,911.3 726.3,909.7 724.1,909.5 723.7,911.3 717.8,911.3 		"/>
		<polygon id="XMLID_20_" class="st7" points="719.7,905.3 719.7,902.1 725.2,902.1 725.2,903 727.4,903 728.1,902.4 730.9,903.7 
			730.9,906.9 728,906.5 727,904.5 725.3,904.5 724.9,906.3 		"/>
		<polygon id="XMLID_24_" class="st7" points="725.3,900.6 720,900.6 720,897.1 725.3,897.1 725.3,897.7 727.5,897.7 727.5,896.8 
			729.5,896.8 731.6,898.9 731.6,900.6 728,900.6 727.4,899.1 725.3,899.1 		"/>
		<polygon id="XMLID_49_" class="st7" points="725.3,895.4 720,895.4 720,892 725.8,892 728.5,892 732.5,893.7 731.9,894.3 
			727.1,894.8 726.5,893.4 725.3,893.3 		"/>
		<polygon id="XMLID_95_" class="st7" points="724.7,890.1 719.7,890.1 719.7,887 726.2,887 730.9,889 730.1,889.6 726.2,889.6 
			725.8,888.5 724.5,888.5 		"/>
		<polygon id="XMLID_109_" class="st7" points="724.1,885.2 719.3,885.2 719.3,883.1 720.9,883.1 722.1,881.8 724.1,881.8 
			724.1,882.6 725.3,882.6 725.3,881.8 729.9,883.5 730.4,884.9 728.5,884.9 726.2,884.3 725.3,883.5 724.1,883.5 		"/>
		<polygon id="XMLID_111_" class="st7" points="724.1,879.3 723.7,880.5 721.2,880.5 720.4,881.8 719.3,881.8 719.3,879.6 
			717.8,879.3 717.8,878.3 720,877.7 726.9,877.7 728.5,877.7 729.2,878.8 728.5,879.8 725.3,879.8 725.3,879.1 		"/>
		<polygon id="XMLID_125_" class="st7" points="727.3,874.8 721.8,874.8 721.8,876.2 718.5,876.2 717.6,875.3 717.6,874.2 
			720,874.2 721.4,872.8 724.8,872.8 727.6,873.8 		"/>
		<polygon id="XMLID_128_" class="st7" points="724.8,870.5 719.7,870.5 719.3,871.8 717.1,872.5 716.4,873.5 714.9,872 
			714.9,870.1 717.2,869.8 717.6,869.1 719.7,869.1 724,869.1 725.3,870.1 		"/>
		<polygon id="XMLID_129_" class="st7" points="723,865.6 718.5,865.6 717.8,866.4 718.2,867.3 716.7,867.6 716.7,868.5 
			714.5,868.5 714.5,866.1 716.1,866.1 718.5,863.9 721.5,863.9 723,864.8 		"/>
		<polygon id="XMLID_131_" class="st7" points="721,861.3 717.8,861.3 716.7,863 715.7,863.9 713.4,863.9 713.4,862.6 715.2,861.6 
			717.2,859.8 719.7,859.8 		"/>
		<polygon id="XMLID_133_" class="st7" points="720.1,858.3 716,858.3 714.8,859.5 714.5,860.6 711.9,860.6 711.9,858.3 
			713.7,857.9 716,856.5 		"/>
		<polygon id="XMLID_141_" class="st7" points="718.8,856.1 716.4,855.3 714.9,855.3 714.5,856.5 712.2,856.5 712.2,854.5 
			714.2,854.5 715.5,853.4 720.1,855.9 		"/>
	</g>
</g>
<g id="Brain" class="st1">
	<path id="XMLID_165_" class="st13" d="M613.7,893.5c0,2.9-0.1,5.7-0.4,8.5c0,0.3-0.1,0.6-0.1,0.9c-0.2,1.6-0.4,3.3-0.7,4.9
		c-4.7,28.7-23.3,52.6-48.6,64.8c-5,2.4-10.3,4.4-15.9,5.8c-1.4,0.4-2.8,0.7-4.2,1c-3.4,0.7-6.8,1.2-10.3,1.5
		c-2.5,0.2-5,0.3-7.5,0.3c-4.6,0-9.2-0.4-13.6-1.1c-41.9-6.5-74-42.8-74-86.6c0-48.4,39.3-87.7,87.7-87.7c41.3,0,75.9,28.5,85.2,67
		c0.7,2.8,1.2,5.5,1.6,8.4C613.4,885.2,613.7,889.3,613.7,893.5z"/>
	<path id="XMLID_146_" class="st14" d="M525.2,929.6L479,892v-25.8l11.4-4.3l24.7-11.1l13.7-3.2l13.5,5.9l24.4,6.4l46.9,33.7
		c0,2.9-0.1,5.7-0.4,8.5c0,0.3-0.1,0.6-0.1,0.9c-0.2,1.6-0.4,3.3-0.7,4.9c-4.7,28.7-23.3,52.6-48.6,64.8L525.2,929.6z"/>
	<g id="XMLID_153_" class="st19">
		<path id="XMLID_148_" class="st7" d="M581.8,884.3c-1.7-11.8-9.8-19.6-14.7-24.3c-11.8-11.3-24.9-14.5-27.9-15.1
			c-10.8-2.4-19.2-1-27.1,0.4c-8.9,1.5-20.3,3.6-30.7,12.4c-4.4,3.7-9.8,8.3-11.2,15.9c-1.4,8.3,2.8,15.1,4,17.1
			c1.7,2.8,3.8,6.3,8,8c4.1,1.7,9.2,1.3,10,1.2c3.1-0.3,5.5-1.1,5.9-0.3c0.3,0.6-1,1.4-2.1,3.4c-0.9,1.7-1.4,3.6-1.5,4.9
			c-0.2,4.7,4.3,8.2,4.9,8.7c4.2,3.2,8.9,2.9,10.8,2.8c2.7-0.2,4.6-0.9,7.6-2.1c7.6-3.1,8-5.2,12.7-6.6c5.9-1.7,11.3,0,13.2,0.6
			c3.4,1.1,8.4,3.5,12.7,6.1c1.8,1.1,3.8,2.5,6.6,2.4c0.7,0,2.5-0.1,5.2-1.8c4.3-2.6,6.6-6.3,8.5-9.6c1.3-2.2,3.4-5.8,4.6-11.2
			C581.5,896.4,582.7,890.7,581.8,884.3z"/>
		<path id="XMLID_150_" class="st7" d="M566.9,923.4c1,1.1-1.4,5.2-4,7.8c-1.4,1.4-3,2.9-5.4,3.6c-3.9,1-5.5-1.3-9.6,0
			c-1.9,0.6-2.4,1.4-4,1.3c-1.7-0.1-3.8-1-4.6-2.7c-1.3-2.4,1-4.1,0.9-7.5c-0.2-5.6-6.9-8.2-6-10.2c0.8-1.8,6.8-1.4,11.5,0.4
			c0.5,0.2,3.1,1.7,8.5,4.8c3.8,2.2,5,2.9,7,3C564.5,924.2,566.2,922.6,566.9,923.4z"/>
		<path id="XMLID_151_" class="st7" d="M530.3,916.6c3.2-0.4,4.1,4.8,4.3,7c0.2,2.1-0.6,2.6-0.6,6.1c0,2.2,0,3.6,0.9,5.1
			c1.5,2.6,4.2,3.5,4.5,3.6c2.3,0.7,3.1-0.2,4.3,0.6c2,1.3,1.4,5.4,0.4,7.8c-0.4,0.9-5.1,0.3-5.8-0.3c-1.8-1.3-0.2-3.8-1.6-6.4
			c-1.4-2.6-3.3-1.9-4.9-4.6c-1.6-2.6-0.4-4.1-2.1-5.8c-1.5-1.6-2.8-0.8-5.1-2.2c-2.4-1.5-6.6-6.2-4-7.6
			C523.6,918,527.6,916.9,530.3,916.6z"/>
	</g>
</g>
<g id="Eye" class="st1">
	<path id="XMLID_172_" class="st8" d="M403.2,893.5c0,2.9-0.1,5.7-0.4,8.5c0,0.3-0.1,0.6-0.1,0.9c-0.2,1.6-0.4,3.3-0.7,4.9
		c-4.3,26.4-20.5,48.8-42.8,61.7c-1.9,1.1-3.9,2.1-5.9,3.1c-5,2.4-10.3,4.4-15.8,5.8c-1.4,0.4-2.8,0.7-4.2,1
		c-3.4,0.7-6.8,1.2-10.3,1.5c-2.5,0.2-5,0.3-7.5,0.3c-4.6,0-9.2-0.4-13.6-1.1c-41.9-6.5-74-42.8-74-86.6c0-48.4,39.3-87.7,87.7-87.7
		c41.3,0,75.9,28.5,85.2,67c0.7,2.8,1.2,5.5,1.6,8.4c0.5,3.2,0.7,6.5,0.8,9.8C403.2,891.8,403.2,892.7,403.2,893.5z"/>
	<path id="XMLID_169_" class="st9" d="M403.2,893.5c0,2.9-0.1,5.7-0.4,8.5c0,0.3-0.1,0.6-0.1,0.9c-0.2,1.6-0.4,3.3-0.7,4.9
		c-4.3,26.4-20.5,48.8-42.8,61.7l-81.4-60.4l-18.3-15.6l19.4-15.8l21.5-8.6h43.4l59.2,21.9C403.2,891.8,403.2,892.7,403.2,893.5z"/>
	<g id="XMLID_4_" class="st19">
		<path id="XMLID_194_" class="st7" d="M315.5,863.2c-20.9,0-44.3,11.9-59.8,30.3c15.6,18.4,38.9,30.3,59.8,30.3
			c19.5,0,43.1-11.9,59.1-30.3C358.7,875.1,335.1,863.2,315.5,863.2z M265.2,893.5c8.3-8.4,18.4-15,28.8-19c-4.4,5-7,11.6-7,18.8
			c0,7.5,2.9,14.3,7.6,19.4C284,908.8,273.7,902.1,265.2,893.5z M315.5,915.4c-12.2,0-22.2-9.9-22.2-22.2c0-12.2,9.9-22.2,22.2-22.2
			s22.2,9.9,22.2,22.2C337.7,905.5,327.8,915.4,315.5,915.4z M337,912.1c4.4-5,7.1-11.6,7.1-18.9c0-6.9-2.4-13.2-6.5-18.2
			c9.8,4.1,19.4,10.4,27.5,18.4C356.8,901.6,347,908.1,337,912.1z"/>
		<path id="XMLID_170_" class="st7" d="M328.5,893.3c0,7.1-5.8,12.9-12.9,12.9s-12.9-5.8-12.9-12.9c0-1.9,0.4-3.7,1.1-5.3
			c0.7,2,2.6,3.4,4.8,3.4c2.8,0,5.1-2.3,5.1-5.1c0-2.2-1.4-4.1-3.4-4.8c1.6-0.7,3.4-1.1,5.3-1.1
			C322.7,880.3,328.5,886.1,328.5,893.3z"/>
	</g>
</g>
<g id="Microscope" class="st1">
	<path id="XMLID_195_" class="st13" d="M994.7,893.5c0,2.9-0.1,5.7-0.4,8.5c0,0.3,0,0.6-0.1,0.9c-0.2,1.6-0.4,3.3-0.7,4.9
		c-4.7,28.7-23.3,52.6-48.7,64.8c-5,2.4-10.3,4.4-15.8,5.8c-1.4,0.4-2.8,0.7-4.2,1c-1.1,0.2-2.2,0.4-3.2,0.6
		c-2.3,0.4-4.7,0.7-7.1,0.9c-2.5,0.2-5,0.3-7.5,0.3c-4.6,0-9.2-0.4-13.6-1.1c-42-6.5-74-42.8-74-86.6c0-48.4,39.3-87.7,87.7-87.7
		c41.3,0,75.9,28.5,85.2,67c0.2,0.7,0.3,1.4,0.5,2c0.4,2.1,0.8,4.2,1.1,6.3C994.4,885.2,994.7,889.3,994.7,893.5z"/>
	<path id="XMLID_192_" class="st14" d="M994.7,893.5c0,2.9-0.1,5.7-0.4,8.5c0,0.3,0,0.6-0.1,0.9c-0.2,1.6-0.4,3.3-0.7,4.9
		c-4.7,28.7-23.3,52.6-48.7,64.8c-5,2.4-10.3,4.4-15.8,5.8c-1.4,0.4-2.8,0.7-4.2,1c-1.1,0.2-2.2,0.4-3.2,0.6l-47-26l31.6-10.2
		l-12.3-17.5l8.4-6.6l7.5-7.4l11.3,7.9l1.6,1.7l6.8-7.3l-43.8-20l13.5-18.5l2.3-19.3l13.7-13.3l10.2-16.2l67.3,47.5
		c0.4,2.1,0.8,4.2,1.1,6.3C994.4,885.2,994.7,889.3,994.7,893.5z"/>
	<g id="XMLID_136_" class="st19">
		<path id="XMLID_191_" class="st7" d="M919,919.3c-3.8,0-6.8,3.1-6.8,6.8c0,3.8,3.1,6.8,6.8,6.8s6.8-3.1,6.8-6.8
			C925.8,922.3,922.7,919.3,919,919.3z M919,929.9c-2.1,0-3.8-1.7-3.8-3.8c0-2.1,1.7-3.8,3.8-3.8c2.1,0,3.8,1.7,3.8,3.8
			C922.7,928.2,921,929.9,919,929.9z"/>
		<path id="XMLID_190_" class="st7" d="M917.5,849.9c-6.7,0-12,5.4-12,12s5.4,12,12,12c6.7,0,12-5.4,12-12S924.2,849.9,917.5,849.9z
			 M917.5,868.1c-3.4,0-6.1-2.7-6.1-6.1s2.7-6.1,6.1-6.1c3.4,0,6.1,2.7,6.1,6.1S920.9,868.1,917.5,868.1z"/>
		<path id="XMLID_183_" class="st7" d="M945.5,891.5c0,14.4-7,26.9-17.3,33.7c-0.3-3.2-2.4-6-5.1-7.3c5.5-5.1,9-12.5,9-20.6
			c0-8.6-3.9-16.4-10-21.5c5.8-1.9,10-7.3,10-13.8c0-0.4,0-0.9-0.1-1.3C940.1,867.7,945.5,878.9,945.5,891.5z"/>
		<path id="XMLID_178_" class="st7" d="M937.8,954.2l-63.3-0.2c-0.2-0.8-0.6-3.9-0.7-7.1c-0.1-3.7,0.4-4.4,0.8-4.7
			c1.2-1.1,3-0.3,6.9,0.5c0,0,4.7,0.9,10.8,1.2c3.8,0.1,5.8,0.2,8.6-0.6c1.4-0.4,4.7-1.4,7.5-4.2c2.5-2.5,2.8-3.7,3.9-6.3
			c0-0.1,0-0.1,0.1-0.2c1.7,1.7,4,2.8,6.6,2.8c4.4,0,8.1-3.1,9-7.3c0,0,0,0,0,0c6.1,8,7.6,11.7,8.5,13.4
			C938.9,946.2,938.7,952.1,937.8,954.2z"/>
		<path id="XMLID_176_" class="st7" d="M925.4,827.4l-4.2,9.3c1.2,1.4,1.5,3.5,0.7,5.3l-2.5,5.7c-0.6-0.1-1.2-0.1-1.9-0.1
			c-4.6,0-8.6,2.1-11.3,5.4c-2,2.5-3.2,5.6-3.2,9c0,2.6,0.7,5.1,1.9,7.2c0.8,1.4,1.9,2.7,3.1,3.7l-6,13.5c-1.1,2.6-4.2,3.7-6.7,2.6
			l-4-1.8c-2.6-1.1-3.7-4.2-2.6-6.7l19.9-44.4c0.8-1.8,2.6-2.9,4.5-3l4.1-9.2c0.7-1.6,2.5-2.3,4.1-1.6l2.4,1.1
			C925.4,824,926.1,825.8,925.4,827.4z"/>
		<path id="XMLID_177_" class="st7" d="M911,930.7h-1.2c0,0-3.3,0.1-6.2-0.4c-3-0.4-6.1-1.2-7.5-2c0,0-2-1.5-2.2-2.1
			c-0.1-0.5-0.2-0.8-0.1-1.4c0.1-0.5,1-2.3,1-2.3l-2.2-1.1l1-1.7l2,0.9l3.2-7l-1.5-0.7l-0.8,1.6l-25-11.3l3-6.3l24.9,11.4l-0.7,1.7
			l1.5,0.8l1.1-2.3l8.5,3.8l-4.7,11.2l5.2-0.3c-0.2,0.5-0.3,1-0.4,1.4c-0.1,0.5-0.1,1-0.1,1.5c0,1.5,0.4,3,1,4.2
			C910.8,930.5,910.9,930.6,911,930.7z"/>
		<path id="XMLID_188_" class="st7" d="M898.1,891.7l-0.5,1.1c-0.2,0.4-0.6,0.5-1,0.4l-0.1,0c-0.4-0.2-1,0-1.2,0.4l-2.2,4.7
			l-7.6-3.5l2.1-4.5c0.2-0.4,0-1-0.4-1.2l0,0c-0.4-0.2-0.5-0.6-0.4-1l0.5-1.1c0.2-0.4,0.6-0.5,1-0.4l9.3,4.2
			C898.1,890.9,898.3,891.3,898.1,891.7z"/>
		<path id="XMLID_173_" class="st7" d="M890.2,921.8l-14.8-6.6c-1.2-0.5-1.7-1.9-1.2-3l0.1-0.2c0.5-1.2,1.9-1.7,3-1.2l14.8,6.6
			c1.2,0.5,1.7,1.9,1.2,3l-0.1,0.2C892.7,921.8,891.3,922.3,890.2,921.8z"/>
	</g>
</g>
<g id="ASkin_x5F_Hair" class="st1">
	<path id="XMLID_193_" class="st15" d="M994.7,638.5c0,4.9-0.4,9.7-1.2,14.3c-6.3,38.4-37.5,68.3-76.5,72.8
		c-1.6,0.2-3.2,0.3-4.8,0.4c-1.7,0.1-3.5,0.2-5.3,0.2c-4.6,0-9.2-0.4-13.6-1.1c-41.9-6.5-74-42.8-74-86.6
		c0-48.4,39.3-87.7,87.7-87.7c37.1,0,68.9,23.1,81.7,55.7v0c3,7.5,4.9,15.5,5.6,23.9C994.6,633.1,994.7,635.8,994.7,638.5z"/>
	<path id="XMLID_174_" class="st16" d="M994.7,638.5c0,4.9-0.4,9.7-1.2,14.3c-6.3,38.4-37.5,68.3-76.5,72.8l-29.4-37.8l8.8,3.7
		l7.7,0.9l7.1-1.3l-13.9-10l1.6-18.3l9.1-0.6l-4-27.6l6.5-24.8l9.2-15.8l15.8-20.2l53,32.8v0c3,7.5,4.9,15.5,5.6,23.9
		C994.6,633.1,994.7,635.8,994.7,638.5z"/>
	<g id="XMLID_138_" class="st19">
		<path id="XMLID_207_" class="st7" d="M935.7,573.7c-0.8-0.8-6.8,4.3-10.4,7.7c-7.1,6.7-11.3,13-12.3,14.4
			c-6.7,10.1-9.4,19.2-10,21.2c-1.3,4.7-2.3,12.2-4.1,27.2c-0.8,6.8-1.1,10.1-3.1,14.3c-0.9,1.8-2,3.7-2.7,6.8c-0.4,2-1,4.8-0.1,8.3
			c0.4,1.5,1.3,5,4.6,7.4c0.9,0.7,3.4,2.3,6.7,2.3c3.4,0,5.8-1.6,7-2.4c1.1-0.8,2.9-2,4.1-4.3c1.5-2.8,1.2-5.6,0.9-7.8
			c-0.4-3.4-1.4-4.9-3-9c0,0-1.9-5-3-10c-1.3-5.8-0.9-10.4-0.3-16.5c0.7-8,2.5-14,3.1-16.3c2.3-7.6,5.2-13,7.8-17.8
			c4.8-8.9,11.1-18.7,11.1-18.7C934.5,576.6,936.2,574.2,935.7,573.7z M908.3,674.1c-1.3,1.9-3.4,2-3.9,2h-0.1c-0.3,0-2.5-0.1-4.1-2
			c-0.9-1.1-1.1-2.2-1.2-2.8c-0.3-1.7,0.1-3.2,0.5-4.3c0.2-0.5,0.8-0.7,1.2-0.4c0.3,0.2,0.4,0.4,0.4,0.8c0,0.1,0,0.2-0.1,0.3
			c-0.4,0.9-0.7,2-0.4,3.3c0.1,0.5,0.2,1.3,0.8,2c1.1,1.3,2.7,1.4,2.8,1.4c0,0,1.6,0,2.5-1.3c0.6-0.9,0.8-1.8,0.6-3.2
			c-0.1-0.9-0.4-1.8-0.8-2.7c-0.2-0.4-0.1-0.9,0.3-1.1c0.1-0.1,0.3-0.1,0.4-0.1c0.3,0,0.6,0.2,0.8,0.5c0.5,1,0.8,2.1,1,3.2
			C909.5,671.5,909.2,672.9,908.3,674.1z"/>
		<path id="XMLID_144_" class="st7" d="M903.6,693.4c-3.6,0-7-0.8-10.2-2.2c-2.1-0.9-5.6-2.5-8.5-6.3c-2.8-3.7-3.4-7.6-3.7-10
			c-1-7.3,1.2-13.3,2.3-16.3c0.4-1,0.5-1.3,1-2.3c0.6-1.2,1.7-3.4,4.1-8.8c1.2-2.8,2.2-4.9,2.3-7.9c0.1-1.4,0.1-3.7-1.2-6.1
			c-0.5-0.8-2.2-3.6-5.2-4.4c-1.3-0.4-2.3-0.3-2.7-0.3c-3.4,0.3-11.8,0.3-26.3,0c-0.5,0-0.8-0.4-0.8-0.9l0,0c0-0.5,0.4-0.8,0.9-0.8
			c14.3,0.2,22.8,0.2,26.2,0c0.4,0,1.7-0.1,3.3,0.3c3.6,1,5.5,4,6.2,5.3c1.5,2.8,1.4,5.5,1.4,7c-0.1,3.3-1.2,5.8-2.5,8.6
			c-2.5,5.4-3.6,7.7-4.1,8.9c-0.5,1-0.6,1.3-1,2.2c-1,2.8-3.2,8.5-2.2,15.4c0.3,2.3,0.8,5.8,3.4,9.2c2.6,3.4,5.8,4.9,7.8,5.7
			c3,1.3,6.2,2,9.5,2.1h0c3.3,0,6.5-0.7,9.5-2.1c2-0.9,5.2-2.3,7.8-5.7c2.6-3.4,3.1-6.9,3.4-9.2c1-6.9-1.2-12.6-2.2-15.4
			c-0.3-0.9-0.5-1.2-1-2.2c-0.6-1.2-1.7-3.4-4.1-8.9c-1.3-2.8-2.4-5.3-2.5-8.6c-0.1-1.5-0.2-4.2,1.4-7c0.7-1.2,2.6-4.2,6.2-5.3
			c1.6-0.4,2.8-0.4,3.3-0.3c3.4,0.3,11.9,0.3,26.2,0c0.5,0,0.9,0.4,0.9,0.8l0,0c0,0.5-0.4,0.9-0.8,0.9c-14.5,0.2-22.9,0.2-26.3,0
			c-0.4,0-1.4-0.1-2.7,0.3c-3,0.9-4.7,3.6-5.2,4.4c-1.3,2.4-1.2,4.7-1.2,6.1c0.1,3,1.1,5.2,2.3,7.9c2.5,5.4,3.5,7.6,4.1,8.8
			c0.5,1,0.7,1.4,1,2.3c1.1,2.9,3.4,8.9,2.3,16.3c-0.3,2.3-0.9,6.2-3.7,10c-2.8,3.7-6.4,5.3-8.5,6.3
			C910.6,692.6,907.1,693.3,903.6,693.4L903.6,693.4z"/>
	</g>
</g>
</svg>
