<?xml version="1.0" encoding="utf-8"?>
<!-- Generator: Adobe Illustrator 19.0.0, SVG Export Plug-In . SVG Version: 6.00 Build 0)  -->
<svg version="1.1" id="Icons" xmlns="http://www.w3.org/2000/svg" xmlns:xlink="http://www.w3.org/1999/xlink" x="0px" y="0px"
	 viewBox="0 0 1000 1000" style="enable-background:new 0 0 1000 1000;" xml:space="preserve">
<style type="text/css">
	.st0{fill:#DC6A4E;}
	.st1{fill:#C44029;}
	.st2{fill:#F8FBFE;}
</style>
<g id="Heart">
	<path id="XMLID_15_" class="st0" d="M1001.8,500.9c0,35.3-3.7,69.8-10.7,103c-0.4,2.2-0.9,4.4-1.4,6.6
		c-42.6,191-194.2,340.8-386.1,380.7c-2.9,0.6-5.8,1.2-8.7,1.8c-30.5,5.8-61.9,8.9-94,8.9C224.3,1001.9,0,777.6,0,500.9
		C0,224.3,224.3,0,500.9,0C777.5,0,1001.8,224.3,1001.8,500.9z"/>
	<path id="XMLID_14_" class="st1" d="M991.1,603.9c-0.4,2.2-0.9,4.4-1.4,6.6c-42.6,191-194.2,340.8-386.1,380.7l-253-240.3
		l-44.5-103.6l-10.7-30.7l-17.9-171.4l12.9-52.2l27.1-49.3l45-87.1l77.9-64.3l15-34.3l53.7,46.4l33.8-37.1L991.1,603.9z"/>
	<path id="XMLID_13_" class="st2" d="M384.7,527.4c0,0-3.6,18.6-10.7,25s-20.7,14.3-24.3,20.7c-3.6,6.4-5.7,15-5.7,15
		s-18.6,15.7-24.3,27.1c-5.7,11.4-13.6,32.1-13.6,32.1s17.1,62.1,47.9,94.3s69.3,66.4,94.3,77.1c25,10.7,85,25,122.1,22.1
		c37.1-2.9,72.1-12.1,78.6-14.3c6.4-2.1,5.7-8.6,5.7-8.6s-22.9-32.9-25.7-45c-2.9-12.1-10.7-49.3-12.1-64.3
		c-1.4-15-1.4-63.6-1.4-63.6s9.3,47.9,13.6,62.9c4.3,15,17.2,57.9,25.7,72.1c8.5,14.3,15,25,15,25s22.1,2.1,35-5.7
		c12.9-7.9,29.3-28.6,35.7-47.1s11.4-33.6,11.4-55.7c0-22.1,5-56.4,0-81.4c-5-25,5.7-28.6-33.6-87.8c-39.3-59.3-170-70.7-170-70.7
		s72.1,1.4,113.6,17.1c41.4,15.7-25-61.4-25-61.4s-47.1-10.7-67.9-3.6c-20.7,7.1-47.1,20.7-57.9,36.4s-20,55.7-14.3,72.9
		c5.7,17.1,11.4,32.9,11.4,32.9s35.7,22.1,51.4,32.9c15.7,10.7,30,27.9,30,27.9s-33.6-15-51.4-24.3c-17.9-9.3-52.1-34.3-56.4-54.3
		c-4.3-20-6.4-55,0.7-69.3c7.1-14.3,20.7-37.9,38.6-52.1c17.9-14.3,52.1-17.1,52.1-17.1h72.9v-32.9c0,0-13.6-10-45.7-9.3
		s-53.6,0-53.6,0s-7.1-27.8-33.6-27.8s-37.9,30.7-37.9,30.7s-10.7,37.9-20,44.3s-50.7,67.9-50.7,67.9s-5.7-10-0.7-15.7
		c5-5.7,5.7-12.1,5.7-12.1s-2.9-20-15.7-29.3c-12.9-9.3-29.3-16.4-40-17.9c-10.7-1.4-34.3-0.7-47.9,5c-13.6,5.7-27.9,27.1-34.3,38.6
		s-12.9,59.3-12.1,77.1c0.7,17.9,10,52.5,19.3,69.8c9.3,17.3,16.4,33.7,16.4,33.7s30.7-39.3,42.9-50.7
		C350.4,554.5,384.7,527.4,384.7,527.4z"/>
	<path id="XMLID_12_" class="st2" d="M275.4,183.8c11.8,0.9,13.6,11.4,32.1,22.9c12.3,7.6,23.3,10.3,30.7,12.1
		c12.6,3.1,28.2,6.9,45,1.4c3.2-1,10.2-5.2,24.3-13.6c20.1-11.9,26.6-17,32.9-14.3c4.2,1.8,5.9,6,8.6,12.9
		c0.9,2.2,10.5,26.7,0.7,35.7c-6.3,5.8-14.1-0.8-29.3,2.9c-10.2,2.5-16.6,7.9-26.4,16.4c-8.5,7.4-23.9,20.9-35,44.3
		c-5.8,12.1-20.1,42.2-12.1,63.6c0.8,2.2,2.9,7.2,0.7,10c-3.4,4.3-12.3-2-24.3-0.7c-18.1,1.9-26,19-32.9,15.7
		c-2.7-1.3-3.2-4.8-4.3-17.1c-2.1-24.7-3.2-37-2.1-43.6c2.2-13.4,5.1-11.1,10.7-32.1c4.4-16.6,6.6-24.9,4.3-35
		c-0.5-2-4.4-17.9-18.6-27.9c-13.6-9.6-23.7-4.4-30-13.6c-5.2-7.5-3.8-18.7,0.7-26.4C256.3,188.6,266.3,183.2,275.4,183.8z"/>
	<path id="XMLID_11_" class="st2" d="M416.1,423.1c-4.9-0.2-4.1-16-17.1-25.7c-2.9-2.1-3.3-1.7-10.7-6.4c-3.3-2.1-11.6-7.4-15-10.7
		c-11.6-11.2-5.8-36-2.9-48.6c4.3-18.1,12-30.7,16.4-37.9c6.1-9.7,12.8-20.7,25.7-30.7c5-3.9,12.6-9.6,23.9-13.2
		c12.3-3.9,13-1.4,17.6-5.4c2.7-2.4,4.3-26.8,0.6-37.9c-2.6-7.9-11.2-14-17.6-28.2c-1.3-3-2.2-5.4-1.3-9.2l19.6-11.2
		c3.8,1.3,5.6,5.2,7.1,8.6c12.1,26.8,18.1,40.3,18.9,47.1c0.8,7,1,16.8,6.8,23.6c2.6,3.1,5.1,4,6.4,4.3c0,0,6.1,2.5,10-2.1
		c9.6-11.4,0.3-67.5,4.6-74.6c1.5-2.4,6.3-1.5,14.3-1.4c9.3,0.1,16,0.1,19.3,3.9c4.1,4.8-0.3,12.1-3.9,28.2
		c-4,17.6-6.5,28.6-2.5,38.6c4.5,11.1,12.6,9.6,31.4,25.7c6.7,5.8,18.9,16.5,27.5,32.5c5.1,9.5,8.7,32.9,7.1,49.6h-46.4
		c-6.9-6.4-4.4-11.9-12.8-20c-11.5-11-27.1-11.1-29.3-11.1c-15.7,0.2-26.2,9.2-32.1,14.3c-10.7,9.2-15.9,20-20,28.6
		c-5.8,12.1-3.1,12.1-7.9,20.4c-8.9,15.6-17.5,14.2-27.1,30C420.2,415,419.7,423.2,416.1,423.1z"/>
	<path id="XMLID_10_" class="st2" d="M362.6,185c0,0,12.6,19.5,15.7,20.5c3.1,1,23.8-3.1,26-4.3c2.1-1.2,1.2-5.9,1.2-5.9
		S393.8,175,390.9,175s-24.3,4.3-26,6.2S362.6,185,362.6,185z"/>
</g>
</svg>
