<?xml version="1.0" encoding="UTF-8"?>
<!DOCTYPE svg PUBLIC "-//W3C//DTD SVG 1.1//EN" "http://www.w3.org/Graphics/SVG/1.1/DTD/svg11.dtd">
<svg width="500pt" height="567pt" viewBox="0 0 500 567" version="1.1" xmlns="http://www.w3.org/2000/svg">
<g id="#ffffffff">
<path fill="#ffffff" opacity="1.00" d=" M 56.01 46.14 C 62.41 43.63 69.28 43.32 75.90 42.05 C 192.44 42.10 308.98 42.01 425.52 42.09 C 427.16 43.18 429.09 43.27 431.01 43.24 C 459.06 47.14 483.40 70.04 488.95 97.83 C 490.14 101.43 489.53 105.29 490.91 108.85 C 490.97 217.55 490.92 326.25 490.94 434.95 C 490.81 442.94 491.18 450.96 490.77 458.92 C 489.42 461.89 490.15 465.19 489.18 468.24 C 484.05 495.31 461.30 518.03 434.24 523.18 C 430.88 524.04 427.35 523.65 424.07 524.91 C 312.69 524.97 201.31 524.92 89.93 524.94 C 84.65 524.80 79.34 525.19 74.07 524.76 C 70.81 523.33 67.16 524.21 63.85 522.95 C 36.08 517.40 13.16 493.11 9.25 465.07 C 9.50 462.65 8.54 460.44 8.08 458.13 C 8.03 342.08 8.10 226.03 8.04 109.98 C 8.02 107.24 9.62 104.76 9.24 101.97 C 12.77 76.60 31.80 54.29 56.01 46.14 M 42.44 69.36 C 31.59 78.00 25.25 91.39 23.70 105.01 C 23.74 159.26 23.63 213.52 23.76 267.78 C 93.75 267.79 163.75 267.86 233.74 267.74 C 233.86 197.75 233.77 127.76 233.79 57.77 C 179.50 57.61 125.21 57.75 70.91 57.70 C 60.64 58.96 50.47 62.69 42.44 69.36 M 249.13 57.78 C 249.17 127.77 249.03 197.77 249.20 267.77 C 324.54 267.82 399.88 267.81 475.22 267.77 C 475.41 213.52 475.23 159.27 475.31 105.02 C 474.29 96.55 471.63 88.16 466.95 80.97 C 460.20 70.41 449.33 62.68 437.24 59.47 C 429.37 56.87 421.08 57.87 412.94 57.70 C 358.34 57.75 303.73 57.60 249.13 57.78 M 23.77 283.16 C 23.61 342.76 23.76 402.37 23.69 461.98 C 24.83 471.84 28.32 481.61 34.52 489.46 C 43.10 500.94 56.93 507.77 71.01 509.31 C 125.27 509.23 179.53 509.42 233.79 509.21 C 233.79 433.88 233.82 358.54 233.78 283.21 C 163.77 283.04 93.77 283.14 23.77 283.16 M 249.14 283.19 C 249.11 358.53 249.12 433.87 249.13 509.22 C 308.74 509.41 368.36 509.23 427.97 509.31 C 442.52 507.71 456.81 500.46 465.35 488.32 C 471.99 479.01 475.85 467.47 475.30 456.00 C 475.26 398.39 475.38 340.77 475.23 283.16 C 399.87 283.13 324.50 283.07 249.14 283.19 Z"/>
<path fill="#ffffff" opacity="1.00" d=" M 121.13 113.55 C 122.08 109.89 125.30 106.78 129.22 106.85 C 132.78 107.36 135.61 110.19 136.39 113.66 C 136.54 127.50 136.11 141.36 136.60 155.19 C 149.74 155.05 162.89 155.17 176.04 155.13 C 180.45 154.86 184.77 158.59 184.67 163.10 C 184.27 166.65 181.36 169.38 178.05 170.38 C 164.18 170.44 150.31 170.32 136.45 170.44 C 136.32 184.30 136.42 198.16 136.39 212.03 C 135.22 216.69 129.89 220.30 125.30 217.80 C 122.77 216.03 120.92 213.18 121.12 210.00 C 121.17 196.86 121.05 183.72 121.19 170.59 C 107.74 170.11 94.26 170.57 80.80 170.36 C 76.81 170.37 73.39 167.07 72.84 163.20 C 72.80 159.30 75.89 156.05 79.55 155.14 C 93.42 154.92 107.34 155.54 121.18 154.82 C 121.06 141.06 121.17 127.30 121.13 113.55 Z"/>
<path fill="#ffffff" opacity="1.00" d=" M 302.46 155.95 C 303.93 155.56 305.40 155.07 306.95 155.12 C 341.65 155.14 376.36 155.12 411.06 155.13 C 415.59 155.28 418.79 160.03 418.27 164.35 C 416.94 167.22 414.67 170.33 411.18 170.36 C 375.75 170.42 340.33 170.40 304.90 170.37 C 302.09 169.50 299.42 167.57 298.59 164.62 C 297.29 161.23 299.79 157.83 302.46 155.95 Z"/>
<path fill="#ffffff" opacity="1.00" d=" M 81.21 354.26 C 82.17 350.77 85.73 347.93 89.42 348.38 C 93.18 349.19 95.42 352.55 98.07 355.02 C 108.40 365.11 118.32 375.63 128.85 385.51 C 140.78 373.88 152.35 361.85 164.32 350.26 C 167.75 346.77 173.26 348.61 175.65 352.34 C 176.01 353.57 176.40 354.79 176.81 356.01 C 176.16 357.84 175.63 359.81 174.15 361.18 C 162.61 372.85 150.89 384.33 139.41 396.05 C 149.15 406.48 159.55 416.28 169.53 426.48 C 172.24 429.41 176.19 431.91 176.62 436.24 C 176.60 440.51 172.86 443.40 169.00 444.25 C 166.83 443.56 164.60 442.76 163.03 441.03 C 152.38 430.33 141.66 419.68 131.01 408.97 C 130.24 408.19 129.34 407.57 128.43 406.98 C 116.95 418.35 105.56 429.83 94.11 441.25 C 92.18 443.20 89.26 444.64 86.52 443.62 C 83.21 442.62 80.73 439.25 80.92 435.78 C 81.29 433.58 82.70 431.74 84.23 430.19 C 95.50 418.99 106.69 407.71 117.97 396.51 C 117.56 395.81 117.10 395.16 116.58 394.55 C 105.57 383.55 94.55 372.56 83.57 361.54 C 81.85 359.62 80.19 356.91 81.21 354.26 Z"/>
<path fill="#ffffff" opacity="1.00" d=" M 310.36 365.33 C 311.85 364.86 313.37 364.32 314.96 364.39 C 344.63 364.41 374.30 364.40 403.97 364.40 C 407.29 364.43 410.72 364.03 413.90 365.24 C 416.21 366.84 417.62 369.30 418.33 371.99 C 417.54 375.98 414.39 379.76 410.05 379.69 C 378.36 379.72 346.66 379.70 314.98 379.70 C 310.58 379.99 306.42 376.37 306.25 371.95 C 306.37 369.16 308.34 367.02 310.36 365.33 Z"/>
<path fill="#ffffff" opacity="1.00" d=" M 306.23 419.20 C 306.85 415.60 310.28 412.51 314.00 412.69 C 346.39 412.74 378.78 412.66 411.17 412.73 C 414.67 412.74 416.93 415.88 418.27 418.75 C 418.49 421.99 417.13 425.55 414.08 427.05 C 411.37 428.76 408.03 427.82 405.03 427.95 C 374.64 428.07 344.25 427.80 313.86 428.03 C 309.42 428.06 305.46 423.64 306.23 419.20 Z"/>
</g>
</svg>