<?xml version="1.0" encoding="UTF-8"?>
<!DOCTYPE svg PUBLIC "-//W3C//DTD SVG 1.1//EN" "http://www.w3.org/Graphics/SVG/1.1/DTD/svg11.dtd">
<svg width="1136pt" height="1288pt" viewBox="0 0 1136 1288" version="1.1" xmlns="http://www.w3.org/2000/svg">
<g id="#ffffffff">
<path fill="#ffffff" opacity="1.00" d=" M 436.41 27.41 C 441.81 26.36 447.26 27.70 452.60 28.47 C 465.24 32.44 476.69 39.28 488.09 45.87 C 502.37 54.37 517.38 61.63 531.23 70.86 C 540.43 76.84 549.59 82.95 558.00 90.02 C 565.50 96.11 572.89 102.49 578.76 110.21 C 589.50 124.20 597.46 140.34 601.59 157.50 C 603.23 162.84 603.72 168.43 605.15 173.82 C 606.63 179.03 605.60 184.49 606.29 189.80 C 607.48 198.47 607.22 207.28 606.09 215.94 C 605.97 222.79 606.34 229.72 604.38 236.38 C 600.81 264.35 590.25 290.69 581.24 317.22 C 568.26 354.79 555.19 392.32 541.75 429.73 C 535.16 449.60 527.82 469.22 521.02 489.02 C 512.70 513.41 504.29 537.76 496.21 562.23 C 494.87 567.30 498.20 571.94 498.07 576.97 C 498.50 582.10 496.34 586.91 495.92 591.96 C 489.56 624.87 479.67 657.54 462.58 686.58 C 455.24 699.18 446.88 711.25 436.84 721.87 C 432.18 727.88 426.22 732.61 420.57 737.63 C 407.05 749.16 391.66 758.57 375.13 765.13 C 372.42 766.30 369.47 767.22 367.26 769.25 C 363.21 774.63 361.52 781.60 362.39 788.27 C 363.39 796.82 362.63 805.45 363.25 814.02 C 364.35 820.32 363.54 826.79 364.96 833.06 C 366.42 839.49 365.46 846.20 367.35 852.57 C 374.04 900.38 388.69 947.14 411.02 990.00 C 431.63 1029.43 458.45 1065.63 490.18 1096.83 C 510.54 1118.00 533.28 1136.70 556.97 1154.01 C 571.60 1164.24 586.04 1174.97 602.22 1182.71 C 621.86 1192.69 643.37 1198.74 665.11 1201.89 C 670.32 1203.37 675.74 1202.91 681.07 1203.06 C 693.62 1204.53 706.37 1204.40 718.92 1203.04 C 724.17 1203.18 729.40 1202.78 734.53 1201.60 C 752.76 1199.57 771.48 1192.96 784.06 1179.06 C 793.38 1168.86 798.78 1155.54 800.94 1142.02 C 801.00 1135.52 801.69 1128.82 799.53 1122.56 C 795.57 1105.99 783.89 1092.49 770.65 1082.36 C 760.61 1074.73 750.75 1066.87 740.39 1059.67 C 727.13 1050.90 714.17 1041.65 700.44 1033.61 C 690.61 1027.39 680.53 1021.59 670.67 1015.40 C 654.24 1004.43 638.28 992.67 623.75 979.25 C 614.39 969.93 604.71 960.88 596.57 950.44 C 590.68 944.19 586.09 936.90 581.05 929.99 C 564.29 905.36 551.63 877.97 543.74 849.25 C 540.29 838.33 538.84 826.94 536.28 815.81 C 535.98 810.26 535.52 804.72 534.68 799.22 C 533.04 786.98 534.38 774.63 535.48 762.42 C 536.61 755.89 535.30 749.20 536.69 742.71 C 538.52 733.18 538.75 723.42 540.92 713.95 C 552.14 652.82 586.85 595.89 637.25 559.25 C 660.22 542.22 686.47 529.78 713.89 521.84 C 731.85 516.80 750.41 514.63 768.94 513.00 C 780.60 513.09 792.28 512.80 803.94 513.14 C 815.98 515.48 827.71 519.48 839.94 520.91 C 853.11 521.24 866.55 521.93 879.43 518.56 C 887.11 517.35 894.46 514.67 902.07 513.18 C 907.73 513.00 913.32 511.76 919.02 511.95 C 939.34 512.25 960.17 519.71 974.28 534.73 C 983.30 543.88 989.59 555.69 991.71 568.40 C 993.61 574.78 992.96 581.49 993.00 588.05 C 990.59 610.44 978.58 632.09 959.56 644.52 C 950.82 649.78 941.11 653.45 931.03 655.04 C 909.12 658.16 884.49 651.56 870.19 633.85 C 861.70 624.16 856.54 612.20 851.57 600.47 C 849.52 595.23 846.09 590.72 842.68 586.32 C 836.47 579.39 827.56 575.67 818.72 573.41 C 809.48 572.24 800.38 569.65 790.99 569.98 C 781.33 570.27 771.60 569.35 761.99 570.73 C 730.14 573.70 699.86 586.14 672.71 602.68 C 647.63 618.73 626.10 640.91 612.62 667.61 C 600.51 690.32 594.72 715.71 591.09 740.99 C 591.02 747.70 589.56 754.27 589.04 760.94 C 588.88 767.29 589.07 773.65 588.97 780.00 C 588.67 787.75 591.01 795.29 591.01 803.03 C 591.03 807.70 592.79 812.12 593.31 816.74 C 598.84 843.59 609.68 869.31 624.96 892.07 C 637.26 909.73 651.24 926.35 667.69 940.30 C 693.19 962.50 722.16 980.15 750.20 998.86 C 770.97 1012.64 791.97 1026.61 809.26 1044.75 C 822.24 1057.46 832.95 1072.37 841.81 1088.19 C 852.42 1108.32 859.64 1130.96 857.85 1153.94 C 856.35 1162.72 855.17 1171.60 851.93 1179.97 C 844.48 1199.86 830.52 1217.00 813.37 1229.38 C 796.99 1241.70 777.57 1249.50 757.59 1253.64 C 750.93 1255.45 743.97 1255.71 737.25 1257.25 C 732.59 1258.36 727.78 1257.80 723.06 1258.17 C 714.42 1259.23 705.67 1259.23 696.99 1258.75 C 688.55 1257.36 679.87 1258.90 671.58 1256.45 C 630.59 1250.58 591.84 1233.88 556.80 1212.22 C 540.13 1202.23 524.54 1190.61 508.93 1179.08 C 501.40 1172.96 493.77 1166.96 486.44 1160.62 C 479.75 1155.70 474.24 1149.44 467.83 1144.20 C 462.92 1139.42 458.09 1134.58 452.94 1130.07 C 447.66 1123.69 441.32 1118.31 435.96 1112.00 C 420.65 1095.47 406.52 1077.80 393.76 1059.21 C 360.91 1012.54 337.14 959.71 322.32 904.66 C 317.52 885.46 312.89 866.16 310.40 846.52 C 308.76 839.64 308.58 832.54 307.42 825.58 C 306.80 821.07 305.84 816.59 306.00 812.02 C 306.18 806.43 305.11 800.92 304.58 795.38 C 303.53 789.19 304.65 782.65 302.35 776.69 C 299.39 772.50 293.63 773.41 289.20 772.69 C 282.06 771.04 274.98 769.13 268.00 766.94 C 253.18 761.16 238.81 753.70 226.53 743.52 C 210.75 731.29 197.87 715.79 186.50 699.50 C 180.48 689.99 174.99 680.17 169.80 670.19 C 156.58 643.18 147.17 614.37 141.15 584.93 C 140.82 580.62 140.92 576.29 141.03 571.98 C 141.20 566.54 146.21 561.66 143.93 556.13 C 140.59 546.98 137.65 537.69 134.60 528.43 C 111.79 460.64 89.52 392.68 67.40 324.66 C 60.60 303.17 53.40 281.81 46.83 260.25 C 44.40 250.97 42.18 241.59 41.07 232.06 C 41.29 224.67 39.65 217.39 39.97 210.00 C 39.69 201.99 41.05 194.08 41.22 186.09 C 43.30 174.91 45.21 163.66 48.89 152.87 C 60.73 114.37 86.73 79.95 122.03 60.12 C 131.79 54.83 142.22 50.82 152.94 47.93 C 169.98 43.39 185.65 34.73 202.89 30.84 C 207.53 29.77 212.32 29.94 217.05 29.96 C 227.58 29.76 237.92 35.61 243.55 44.44 C 249.16 53.44 250.35 64.72 248.00 74.94 C 245.03 86.22 235.73 94.88 225.12 99.14 C 219.95 101.04 214.67 103.40 209.03 103.04 C 204.70 102.96 200.36 103.19 196.04 102.91 C 184.86 100.67 175.50 92.80 163.95 91.86 C 150.73 90.20 138.66 97.78 129.18 106.19 C 116.99 116.39 106.56 128.61 98.06 142.03 C 88.95 156.87 83.30 173.73 81.02 190.95 C 81.02 200.96 80.85 210.99 81.10 221.00 C 81.81 225.79 82.97 230.51 83.75 235.29 C 88.65 254.40 95.27 273.01 101.23 291.80 C 127.14 371.04 155.43 449.47 184.35 527.67 C 186.58 533.35 188.26 539.33 191.35 544.64 C 193.80 547.90 197.75 549.54 200.63 552.37 C 206.82 558.54 210.62 566.97 211.47 575.63 C 217.67 603.90 227.61 631.57 242.73 656.33 C 253.03 672.23 265.84 687.30 282.97 696.06 C 306.78 708.87 336.98 707.75 360.27 694.28 C 377.51 684.79 390.80 669.53 400.82 652.83 C 413.41 631.32 420.67 607.15 425.76 582.89 C 427.14 573.51 428.53 563.38 434.77 555.82 C 437.92 552.25 441.28 548.64 445.75 546.74 C 448.04 545.40 451.03 544.90 452.66 542.66 C 454.39 539.16 455.42 535.37 456.75 531.72 C 477.92 476.00 498.41 420.02 519.23 364.16 C 533.45 329.34 548.90 294.79 558.18 258.23 C 561.71 242.75 564.64 226.96 564.00 211.00 C 565.04 187.68 557.49 164.79 546.53 144.46 C 540.95 134.03 535.33 123.44 527.29 114.64 C 520.02 105.40 510.53 97.54 499.32 93.63 C 490.23 91.24 480.40 91.35 471.50 94.50 C 463.32 97.28 455.34 100.77 446.92 102.82 C 440.33 102.93 433.17 104.20 427.13 100.83 C 418.35 96.97 410.64 90.68 405.18 82.80 C 402.49 77.72 400.54 71.88 401.06 66.07 C 402.60 57.12 406.69 48.56 413.13 42.09 C 419.54 35.50 426.75 28.33 436.41 27.41 Z"/>
<path fill="#ffffff" opacity="1.00" d=" M 902.43 409.56 C 906.58 408.85 910.80 408.98 915.00 408.99 C 922.08 409.03 929.23 408.51 936.24 409.79 C 941.40 410.71 946.63 410.87 951.84 411.29 C 957.20 412.83 962.79 413.28 968.15 414.81 C 981.33 418.41 994.05 423.57 1006.25 429.70 C 1019.44 437.05 1032.44 445.10 1043.28 455.73 C 1058.14 469.58 1070.07 486.26 1080.02 503.90 C 1087.56 519.16 1093.83 535.20 1097.03 551.97 C 1098.71 561.92 1101.36 571.83 1101.06 582.03 C 1100.83 594.55 1101.96 607.31 1098.63 619.55 C 1096.02 638.26 1088.29 655.79 1079.30 672.25 C 1071.19 688.28 1060.20 702.83 1047.18 715.21 C 1031.61 729.61 1014.09 742.12 994.54 750.55 C 984.61 754.93 974.37 758.88 963.63 760.73 C 957.42 762.85 950.79 762.80 944.49 764.51 C 938.37 765.61 932.11 764.58 925.94 765.22 C 919.28 765.99 912.63 764.83 905.97 765.02 C 900.52 765.35 895.42 763.06 890.03 762.81 C 874.67 760.17 859.87 754.87 845.77 748.24 C 834.15 743.20 823.81 735.75 813.61 728.36 C 809.37 725.34 805.89 721.45 801.98 718.07 C 783.67 702.05 769.16 681.78 759.53 659.47 C 754.03 646.10 749.26 632.33 747.01 618.02 C 746.45 614.02 747.65 610.08 749.57 606.61 C 753.83 602.10 759.91 599.61 765.99 598.96 C 773.00 599.40 780.45 602.54 784.04 608.92 C 788.05 614.67 788.35 621.83 790.71 628.25 C 793.96 639.91 800.88 649.94 806.46 660.53 C 814.90 674.87 826.57 687.27 840.16 696.85 C 848.88 703.60 858.59 709.09 868.84 713.17 C 877.70 716.94 886.84 720.31 896.41 721.71 C 900.76 723.23 905.38 722.94 909.91 723.32 C 921.88 724.88 934.01 724.15 945.97 722.83 C 963.87 719.35 981.34 712.72 996.46 702.40 C 1012.25 691.87 1025.88 678.17 1036.47 662.43 C 1048.43 644.35 1055.79 623.42 1058.96 602.06 C 1058.91 591.03 1059.32 579.97 1058.72 568.96 C 1056.70 557.81 1054.73 546.48 1049.87 536.14 C 1045.32 524.52 1038.92 513.65 1031.04 503.97 C 1023.85 494.59 1015.44 486.13 1006.03 478.97 C 995.81 470.42 983.86 464.18 971.43 459.51 C 959.47 454.41 946.59 452.02 933.75 450.44 C 927.86 449.69 921.92 450.09 916.01 449.98 C 904.58 449.47 893.64 453.43 882.58 455.65 C 874.55 458.22 866.61 461.21 859.15 465.17 C 856.07 466.79 853.06 468.61 849.76 469.75 C 845.25 470.27 840.66 470.16 836.14 469.84 C 829.98 467.83 823.85 463.61 821.92 457.11 C 819.55 449.10 823.73 440.83 828.99 434.96 C 837.58 426.26 849.15 421.43 860.50 417.45 C 869.07 414.31 878.06 412.79 886.97 411.10 C 892.16 411.00 897.31 410.41 902.43 409.56 Z"/>
</g>
</svg>