<?xml version="1.0" encoding="UTF-8"?>
<!DOCTYPE svg PUBLIC "-//W3C//DTD SVG 1.1//EN" "http://www.w3.org/Graphics/SVG/1.1/DTD/svg11.dtd">
<svg width="500pt" height="567pt" viewBox="0 0 500 567" version="1.1" xmlns="http://www.w3.org/2000/svg">
<g id="#ffffffff">
<path fill="#ffffff" opacity="1.00" d=" M 247.93 7.84 C 253.03 5.83 258.97 9.05 261.36 13.74 C 261.59 14.89 261.86 16.03 262.20 17.16 C 262.59 31.58 262.24 46.03 262.38 60.46 C 266.06 62.35 270.25 62.91 274.00 64.69 C 291.20 72.52 304.78 89.23 306.86 108.23 C 308.84 116.38 307.39 125.06 305.17 133.06 C 304.82 134.01 304.50 134.97 304.20 135.94 C 300.20 146.77 292.56 155.83 283.50 162.83 C 284.95 165.42 284.49 168.49 285.52 171.23 C 287.87 185.49 290.76 199.66 293.13 213.90 C 295.01 222.94 296.16 232.17 298.31 241.15 C 298.14 244.95 299.92 248.41 299.99 252.19 C 300.77 254.02 300.74 256.03 300.89 257.98 C 302.89 263.13 302.27 268.89 304.32 274.04 C 304.63 279.55 306.30 284.85 306.87 290.31 C 307.89 294.46 308.48 298.72 309.12 302.95 C 309.68 304.64 309.83 306.41 309.83 308.18 C 310.30 309.49 310.77 310.81 311.29 312.11 C 311.40 314.07 311.26 316.13 312.23 317.92 C 312.09 321.71 313.83 325.18 313.83 328.96 C 314.81 330.79 314.51 332.91 314.76 334.90 C 315.78 336.79 315.76 338.96 315.93 341.05 C 316.72 342.92 316.76 344.95 316.86 346.95 C 318.51 349.79 317.95 353.15 319.11 356.12 C 319.23 358.71 319.39 361.37 320.67 363.71 C 331.78 363.50 342.89 363.55 354.00 363.66 C 356.55 366.15 355.90 369.69 356.02 372.91 C 355.08 373.88 354.57 375.77 352.91 375.58 C 344.27 375.69 335.63 375.57 326.99 375.62 C 325.44 375.51 323.98 375.97 322.56 376.53 C 322.64 377.34 322.81 378.98 322.89 379.80 C 323.86 381.41 323.61 383.32 323.70 385.12 C 324.20 386.41 324.69 387.71 325.19 389.01 C 325.24 390.94 325.29 392.92 326.07 394.74 C 326.23 396.86 326.27 399.06 327.19 401.04 C 327.43 403.02 327.28 405.13 328.23 406.97 C 328.07 410.73 329.87 414.16 329.81 417.92 C 330.95 421.12 330.55 424.67 332.12 427.80 C 332.15 429.56 332.36 431.33 332.91 433.02 C 333.48 437.06 334.02 441.15 335.07 445.09 C 336.06 452.79 337.80 460.39 339.06 468.04 C 339.90 471.30 339.75 474.77 341.11 477.92 C 341.20 479.86 341.27 481.85 342.05 483.69 C 344.04 496.42 346.53 509.11 348.90 521.81 C 348.93 524.62 349.94 527.25 350.43 529.98 C 349.35 532.39 347.62 534.40 345.57 536.03 C 345.98 544.19 348.96 551.99 349.21 560.16 C 348.83 560.61 348.06 561.50 347.68 561.95 C 345.13 562.33 342.82 561.80 341.70 559.28 C 341.42 552.03 338.80 545.11 338.22 537.89 C 334.08 537.24 328.34 535.36 329.13 530.06 C 328.66 528.77 328.22 527.47 327.79 526.18 C 327.83 524.37 327.60 522.59 327.11 520.86 C 326.42 516.83 325.89 512.71 324.81 508.80 C 324.47 503.12 322.42 497.69 322.24 491.98 C 320.99 488.08 320.32 483.96 320.23 479.87 C 319.74 478.57 319.28 477.28 318.76 476.00 C 318.64 474.04 318.77 472.00 317.80 470.22 C 317.69 468.09 317.76 465.88 316.66 463.98 C 316.39 461.97 316.72 459.81 315.68 457.97 C 315.79 454.22 314.09 450.78 314.02 447.05 C 313.26 445.16 313.28 443.10 313.16 441.11 C 311.77 438.24 312.00 434.98 310.95 432.03 C 310.73 429.93 310.83 427.74 309.79 425.84 C 309.60 424.20 309.51 422.56 309.38 420.93 C 306.21 406.32 304.06 391.35 301.10 376.67 C 288.26 376.41 275.40 376.51 262.55 376.63 C 262.33 382.42 262.56 388.22 262.45 394.01 C 262.25 398.67 260.06 403.52 255.48 405.34 C 254.22 405.60 253.00 405.99 251.83 406.52 C 250.10 406.17 248.40 405.67 246.66 405.40 C 243.98 403.98 242.00 401.75 240.54 399.13 C 240.13 392.32 240.23 385.49 240.27 378.68 C 240.00 378.16 239.45 377.11 239.18 376.59 C 227.42 376.52 215.65 376.42 203.89 376.78 C 201.32 376.63 201.71 379.98 200.81 381.63 C 199.92 389.42 197.92 397.09 196.95 404.90 C 195.85 409.90 195.00 414.96 193.99 419.99 C 193.87 423.71 192.21 427.16 192.30 430.91 C 191.25 434.88 190.49 439.01 190.10 443.13 C 189.23 444.93 189.30 446.94 189.14 448.89 C 188.64 450.18 188.21 451.50 187.76 452.82 C 187.83 454.63 187.67 456.46 187.10 458.19 C 186.02 465.94 184.06 473.56 183.23 481.32 C 181.96 487.17 180.58 493.11 180.19 499.13 C 179.71 500.40 179.23 501.69 178.72 502.96 C 178.64 504.96 178.82 507.07 177.82 508.90 C 177.67 510.96 177.75 513.13 176.68 515.00 C 176.51 516.67 176.42 518.35 176.29 520.04 C 174.97 522.25 176.08 525.10 174.43 527.18 C 173.76 528.61 172.24 529.24 171.00 530.07 C 169.56 530.38 168.11 530.61 166.65 530.85 C 165.74 534.89 164.87 538.92 164.13 543.00 C 163.89 546.34 162.71 549.51 162.44 552.86 C 161.79 555.82 161.77 558.97 160.17 561.65 C 158.32 561.76 156.17 562.54 154.65 561.10 C 153.55 557.05 154.89 552.88 155.60 548.89 C 156.78 544.66 157.14 540.25 157.97 535.95 C 158.74 533.73 158.96 531.40 158.91 529.06 C 157.30 527.83 155.79 526.47 154.35 525.06 C 153.91 518.54 156.42 512.35 157.16 505.94 C 157.49 502.13 158.95 498.52 159.01 494.68 C 159.73 492.84 159.85 490.87 159.94 488.93 C 161.72 484.37 161.40 479.35 162.83 474.69 C 163.78 472.20 163.23 469.43 164.33 467.00 C 165.45 458.28 167.49 449.68 168.88 441.00 C 169.66 436.94 170.21 432.81 171.23 428.84 C 171.14 425.09 172.95 421.67 172.84 417.93 C 173.75 416.10 173.64 414.04 173.80 412.06 C 174.47 410.46 174.81 408.76 175.18 407.09 C 175.38 404.73 175.76 402.38 175.91 400.02 C 177.52 397.13 176.96 393.76 178.13 390.79 C 178.54 386.39 179.59 382.10 180.26 377.75 C 179.23 377.51 178.22 377.12 177.15 377.18 C 168.10 377.49 159.04 377.44 150.00 377.72 C 145.88 377.17 145.79 372.02 146.03 368.81 C 146.63 367.82 147.24 366.83 147.84 365.84 C 156.54 365.57 165.25 365.41 173.96 365.46 C 176.89 365.42 179.90 365.73 182.72 364.70 C 182.71 364.01 182.69 362.62 182.69 361.93 C 183.21 360.62 183.70 359.30 184.25 358.01 C 184.29 355.97 184.18 353.87 185.11 352.00 C 185.28 349.93 185.22 347.77 186.27 345.91 C 186.44 344.30 186.52 342.69 186.64 341.09 C 187.55 337.03 188.63 332.93 188.82 328.74 C 189.72 326.96 189.65 324.95 189.74 323.01 C 190.23 321.73 190.71 320.45 191.20 319.18 C 191.16 317.19 191.31 315.21 192.04 313.36 C 192.59 309.30 193.17 305.20 194.20 301.26 C 194.09 297.46 195.95 293.99 195.85 290.19 C 198.51 277.59 200.65 264.77 202.77 252.05 C 206.20 235.84 208.58 219.36 211.86 203.11 C 212.89 196.37 214.36 189.72 215.32 182.98 C 216.83 177.69 216.81 172.09 218.53 166.85 C 218.89 165.09 219.40 162.58 217.42 161.59 C 207.02 153.88 199.51 142.53 196.25 130.03 C 195.06 123.31 193.25 116.28 195.13 109.50 C 195.60 107.74 195.65 105.90 195.81 104.10 C 200.58 83.75 217.04 66.37 237.54 61.65 C 240.90 61.16 239.55 57.28 239.88 54.93 C 240.21 52.95 240.23 50.94 240.19 48.95 C 239.30 41.31 239.99 33.59 240.19 25.94 C 239.74 23.65 239.75 21.31 239.87 18.98 C 239.98 14.06 242.88 9.01 247.93 7.84 M 245.84 84.14 C 243.42 84.28 241.14 85.07 238.89 85.90 C 233.08 88.27 227.97 92.29 224.33 97.39 C 216.85 107.66 216.17 122.31 222.90 133.12 C 230.23 145.94 246.80 152.49 260.85 147.84 C 275.31 143.41 285.70 128.17 283.88 113.11 C 282.69 101.59 275.10 90.94 264.43 86.36 C 258.64 83.97 251.99 82.35 245.84 84.14 M 238.83 172.72 C 238.04 177.82 236.62 182.81 236.19 187.95 C 234.97 192.90 234.10 197.96 233.19 202.99 C 232.46 207.05 231.96 211.18 230.95 215.17 C 228.81 228.01 226.49 240.88 224.00 253.68 C 222.88 261.48 221.20 269.20 219.92 276.98 C 217.63 289.76 215.16 302.53 213.07 315.31 C 210.55 327.13 208.90 339.14 206.39 350.96 C 205.64 355.46 205.19 360.01 203.71 364.35 C 215.70 364.86 227.73 364.48 239.74 364.47 C 239.93 359.98 239.54 355.47 240.08 350.99 C 239.81 347.19 239.91 342.69 242.89 339.87 C 244.72 337.69 247.52 336.91 249.98 335.70 C 254.62 336.17 259.17 338.36 261.40 342.65 C 261.59 343.78 261.85 344.91 262.18 346.02 C 262.53 352.14 262.20 358.29 262.51 364.42 C 274.20 364.64 285.90 364.48 297.59 364.50 C 297.83 364.11 298.30 363.34 298.54 362.95 C 297.36 356.34 296.39 349.67 294.94 343.13 C 286.17 292.78 276.64 242.50 267.86 192.13 C 266.45 185.43 265.40 178.64 264.07 171.93 C 260.69 170.96 257.33 172.49 254.06 173.19 C 250.32 173.45 246.60 173.06 243.01 172.00 C 241.66 171.77 239.37 170.80 238.83 172.72 Z"/>
</g>
</svg>