<?xml version="1.0" encoding="UTF-8"?>
<!DOCTYPE svg PUBLIC "-//W3C//DTD SVG 1.1//EN" "http://www.w3.org/Graphics/SVG/1.1/DTD/svg11.dtd">
<svg width="500pt" height="567pt" viewBox="0 0 500 567" version="1.1" xmlns="http://www.w3.org/2000/svg">
<g id="#ffffffff">
<path fill="#ffffff" opacity="1.00" d=" M 478.11 47.19 C 484.36 45.68 490.31 53.79 486.73 59.21 C 478.22 80.60 473.05 103.09 466.14 125.00 C 461.84 138.44 456.33 151.99 446.52 162.41 C 436.49 172.85 422.14 177.98 407.99 179.41 C 401.97 179.60 395.99 180.60 389.95 180.16 C 380.45 179.31 370.84 179.48 361.51 177.32 C 358.63 176.14 356.59 173.17 356.42 170.07 C 356.33 166.00 354.92 162.09 355.21 157.99 C 353.89 149.75 354.74 141.37 354.48 133.06 C 355.20 122.48 357.05 111.70 361.97 102.17 C 365.62 94.84 371.05 88.44 377.63 83.57 C 387.65 76.06 399.49 71.54 411.30 67.71 C 433.54 60.78 456.26 55.37 478.11 47.19 M 430.92 78.96 C 420.21 82.14 409.41 85.36 399.45 90.50 C 390.57 95.14 382.57 101.97 377.90 110.96 C 373.68 118.97 371.60 128.07 371.44 137.10 C 370.69 141.73 370.61 146.44 371.32 151.09 C 371.98 154.78 371.05 158.61 372.17 162.24 C 380.37 163.54 388.66 163.62 396.96 163.44 C 408.51 162.49 420.52 160.07 429.88 152.78 C 440.56 144.63 446.32 131.93 450.47 119.52 C 455.28 105.28 458.76 90.64 463.28 76.32 C 464.05 74.01 464.90 71.71 465.16 69.27 C 453.71 72.36 442.36 75.83 430.92 78.96 Z"/>
<path fill="#ffffff" opacity="1.00" d=" M 293.49 88.48 C 299.11 83.24 304.62 77.37 311.93 74.54 C 316.09 72.87 321.38 73.00 324.65 76.40 C 329.13 80.65 329.91 87.14 330.69 92.93 C 330.30 97.67 331.64 102.29 331.45 107.01 C 331.37 112.72 331.84 118.42 332.47 124.09 C 332.73 130.06 332.18 136.06 333.25 141.98 C 333.31 152.64 333.84 163.45 331.39 173.90 C 329.04 185.66 323.11 196.38 315.88 205.82 C 312.71 210.04 305.42 209.84 302.50 205.42 C 300.64 203.41 301.48 200.53 301.28 198.08 C 304.00 193.89 307.17 189.99 309.50 185.55 C 312.75 179.77 314.67 173.36 316.05 166.91 C 317.04 158.60 317.75 150.23 316.69 141.88 C 315.83 136.93 316.47 131.89 316.07 126.91 C 314.80 120.01 316.00 112.95 314.87 106.02 C 314.06 101.70 314.49 97.29 314.18 92.93 C 311.20 93.57 309.48 96.40 307.17 98.15 C 290.79 113.22 276.46 131.68 270.51 153.45 C 268.70 160.12 268.00 167.00 267.62 173.87 C 268.85 181.16 267.76 188.57 268.60 195.90 C 269.93 205.20 269.10 214.61 269.36 223.97 C 268.60 237.69 264.60 251.37 256.79 262.79 C 254.16 266.23 252.26 270.85 247.87 272.38 C 245.26 272.64 242.27 272.83 240.26 270.81 C 236.63 268.16 236.27 262.49 239.13 259.15 C 244.87 251.74 249.37 243.24 251.34 234.03 C 253.76 225.19 252.68 215.98 252.93 206.94 C 253.15 203.60 252.25 200.33 252.23 197.00 C 252.55 187.28 250.68 177.67 251.08 167.96 C 249.83 164.24 251.38 159.90 249.44 156.49 C 230.73 172.32 213.83 192.42 208.45 216.90 C 205.97 227.11 207.07 237.62 206.83 248.00 C 206.59 255.03 208.11 261.97 207.93 268.99 C 207.64 276.38 208.61 283.87 207.15 291.17 C 205.76 305.60 199.25 319.16 190.30 330.41 C 187.28 334.29 180.62 334.21 177.59 330.39 C 174.89 327.23 175.33 322.19 178.06 319.19 C 186.93 307.85 192.03 293.48 191.62 279.04 C 191.46 272.96 192.10 266.83 190.92 260.83 C 190.78 254.78 190.90 248.69 190.04 242.68 C 189.27 237.52 190.26 232.25 189.38 227.10 C 188.73 223.82 189.56 220.38 188.44 217.18 C 179.31 223.98 171.60 232.61 164.74 241.66 C 153.75 256.47 147.45 274.60 146.61 292.98 C 146.85 298.28 145.88 303.57 146.40 308.87 C 147.03 315.28 146.01 321.79 147.31 328.14 C 147.08 333.48 148.01 338.74 148.47 344.03 C 148.04 349.08 149.55 354.00 149.24 359.04 C 149.06 362.63 150.46 366.81 147.82 369.83 C 144.84 373.88 138.18 373.99 135.10 370.00 C 132.08 366.67 133.73 361.94 132.90 357.94 C 131.70 351.76 132.67 345.44 131.47 339.27 C 131.45 333.49 131.13 327.73 130.34 322.00 C 130.18 311.29 130.27 300.58 130.29 289.87 C 131.33 283.98 131.47 277.97 133.03 272.16 C 137.68 248.18 152.36 227.36 170.14 211.13 C 175.74 205.88 181.43 199.99 189.14 198.05 C 191.58 197.09 194.16 197.95 196.46 198.86 C 198.53 195.04 200.02 190.95 202.18 187.18 C 209.15 174.11 218.78 162.65 229.36 152.37 C 234.62 147.60 239.60 142.29 246.00 139.02 C 249.66 137.06 254.19 136.72 258.05 138.28 C 265.80 119.20 278.61 102.56 293.49 88.48 Z"/>
<path fill="#ffffff" opacity="1.00" d=" M 328.03 219.01 C 339.93 209.28 354.63 202.91 369.95 201.41 C 375.93 201.41 381.87 199.96 387.86 200.92 C 393.80 201.94 399.85 200.87 405.80 201.81 C 412.01 202.65 418.30 202.41 424.55 202.61 C 430.61 203.91 436.87 202.62 442.93 203.98 C 449.81 204.40 458.01 206.60 460.90 213.61 C 462.48 221.69 457.29 228.70 452.15 234.29 C 436.76 251.87 418.07 267.00 396.31 275.90 C 399.02 282.10 395.95 288.79 391.96 293.65 C 376.77 312.00 358.24 328.34 335.83 337.15 C 336.33 340.02 336.53 342.98 336.11 345.87 C 334.02 352.76 328.70 357.86 324.06 363.09 C 309.41 378.94 291.53 392.63 270.56 398.75 C 260.97 401.78 250.94 402.79 241.00 403.79 C 232.31 403.75 223.61 403.87 214.93 403.73 C 209.27 403.09 203.61 402.50 197.91 402.66 C 193.94 402.13 189.97 401.71 185.96 401.89 C 180.26 401.44 174.58 400.62 168.85 400.77 C 163.79 400.60 160.12 395.49 161.05 390.59 C 162.05 388.62 163.01 386.37 165.13 385.37 C 168.50 383.64 172.39 384.68 175.99 384.73 C 182.27 384.61 188.45 385.88 194.74 385.67 C 201.09 387.09 207.63 386.25 214.00 387.40 C 227.68 387.16 241.54 388.51 255.01 385.56 C 277.10 381.79 296.41 368.65 311.47 352.50 C 313.45 350.20 315.89 348.15 317.08 345.29 C 309.36 345.09 301.73 343.85 293.99 344.26 C 286.08 343.31 278.12 343.09 270.16 343.12 C 263.84 341.96 257.41 342.55 251.02 342.39 C 237.37 342.81 224.30 348.37 213.59 356.68 C 208.72 360.67 200.22 356.35 200.83 350.03 C 200.44 347.34 202.05 344.88 204.14 343.35 C 215.18 334.76 228.36 328.65 242.30 326.85 C 249.10 325.36 256.13 326.41 263.03 326.09 C 269.06 325.68 274.95 327.47 280.97 327.18 C 285.00 326.99 288.99 327.60 293.00 327.76 C 305.19 327.63 317.55 326.47 329.03 322.06 C 348.67 314.85 364.45 300.29 378.01 284.80 C 375.59 282.46 371.86 284.20 368.88 283.55 C 361.95 282.17 354.86 283.45 347.90 282.33 C 340.28 281.38 332.57 282.24 324.98 281.11 C 318.68 281.20 312.31 280.61 306.07 281.67 C 293.62 283.08 282.39 289.25 272.53 296.68 C 269.68 296.67 266.31 297.20 264.23 294.75 C 260.59 291.95 260.52 285.94 263.93 282.93 C 278.82 270.36 298.56 263.77 318.00 264.66 C 326.39 264.05 334.63 266.19 343.02 265.77 C 355.31 267.28 367.80 266.33 379.87 263.72 C 404.97 257.50 425.50 240.09 441.98 220.86 C 435.44 218.88 428.60 220.20 421.95 219.12 C 414.36 218.11 406.66 219.10 399.12 217.80 C 391.74 218.05 384.37 217.03 377.00 217.73 C 363.76 217.51 350.66 222.34 340.21 230.37 C 337.76 232.26 334.54 234.30 331.38 232.87 C 327.04 231.70 324.66 227.06 325.42 222.77 C 326.24 221.49 326.87 220.03 328.03 219.01 Z"/>
<path fill="#ffffff" opacity="1.00" d=" M 128.02 393.95 C 130.20 391.92 133.58 390.28 136.50 391.74 C 140.35 392.83 142.93 396.94 142.12 400.89 C 141.92 404.10 139.19 406.08 137.14 408.18 C 115.60 429.67 94.00 451.10 72.53 472.65 C 71.17 473.47 72.87 474.95 73.93 474.52 C 90.45 474.77 107.01 473.48 123.16 469.86 C 148.68 464.33 172.88 453.23 194.21 438.24 C 196.90 436.34 199.67 433.96 203.14 433.90 C 206.18 434.66 209.32 436.31 210.45 439.44 C 210.87 441.41 210.92 443.50 210.41 445.47 C 209.25 448.48 206.25 450.00 203.77 451.76 C 180.35 468.22 153.70 480.21 125.68 486.20 C 114.90 488.34 104.03 490.12 93.03 490.44 C 85.72 491.51 78.34 491.29 70.98 491.18 C 65.67 490.63 60.35 490.00 55.00 490.14 C 45.90 499.35 36.68 508.45 27.54 517.61 C 25.19 520.05 21.56 521.94 18.18 520.53 C 14.43 519.35 12.23 515.36 11.99 511.63 C 13.00 509.81 13.78 507.81 15.36 506.38 C 52.92 468.92 90.49 431.45 128.02 393.95 Z"/>
</g>
</svg>